<?xml version="1.0" encoding="UTF-8" standalone="no"?>
<svg
   xmlns:dc="http://purl.org/dc/elements/1.1/"
   xmlns:cc="http://creativecommons.org/ns#"
   xmlns:rdf="http://www.w3.org/1999/02/22-rdf-syntax-ns#"
   xmlns:svg="http://www.w3.org/2000/svg"
   xmlns="http://www.w3.org/2000/svg"
   viewBox="0 0 690.66669 445.33334"
   height="445.33334"
   width="690.66669"
   xml:space="preserve"
   id="svg2"
   version="1.1"><metadata
     id="metadata8"><rdf:RDF><cc:Work
         rdf:about=""><dc:format>image/svg+xml</dc:format><dc:type
           rdf:resource="http://purl.org/dc/dcmitype/StillImage" /></cc:Work></rdf:RDF></metadata><defs
     id="defs6"><clipPath
       id="clipPath30"
       clipPathUnits="userSpaceOnUse"><path
         id="path28"
         d="m 55,269.8 h 298 v 55 H 55 Z" /></clipPath><clipPath
       id="clipPath42"
       clipPathUnits="userSpaceOnUse"><path
         id="path40"
         d="M 0,18.95 H 55 V 269.8 H 0 Z" /></clipPath></defs><g
     transform="matrix(1.3333333,0,0,-1.3333333,0,445.33333)"
     id="g10"><g
       id="g12" /><g
       id="g14" /><g
       id="g16"><text
         id="text20"
         style="font-variant:normal;font-weight:bold;font-size:9px;font-family:Helvetica;-inkscape-font-specification:Helvetica-Bold;writing-mode:lr-tb;fill:#000000;fill-opacity:1;fill-rule:nonzero;stroke:none"
         transform="matrix(1,0,0,-1,174.51,326.41)"><tspan
           id="tspan18"
           y="0"
           x="0 4.7789998 10.278 15.777 18.278999 23.283001 28.287001 30.789 36.108002 41.112 49.112999 51.615002 53.981998">Top 25 Family</tspan></text>
</g><g
       id="g22" /><g
       id="g24"><g
         clip-path="url(#clipPath30)"
         id="g26"><path
           id="path32"
           style="fill:none;stroke:#000000;stroke-width:0.75;stroke-linecap:round;stroke-linejoin:round;stroke-miterlimit:10;stroke-dasharray:none;stroke-opacity:1"
           d="m 129.5,269.8 v 52.38 h 149 V 269.8" /></g></g><g
       id="g34" /><g
       id="g36"><g
         clip-path="url(#clipPath42)"
         id="g38"><path
           id="path44"
           style="fill:none;stroke:#000000;stroke-width:0.75;stroke-linecap:round;stroke-linejoin:round;stroke-miterlimit:10;stroke-dasharray:none;stroke-opacity:1"
           d="m 55,77.48 v 0 -16.73 0" /><path
           id="path46"
           style="fill:none;stroke:#000000;stroke-width:0.75;stroke-linecap:round;stroke-linejoin:round;stroke-miterlimit:10;stroke-dasharray:none;stroke-opacity:1"
           d="M 55,44.03 H 54.91 V 27.31 H 55" /><path
           id="path48"
           style="fill:none;stroke:#000000;stroke-width:0.75;stroke-linecap:round;stroke-linejoin:round;stroke-miterlimit:10;stroke-dasharray:none;stroke-opacity:1"
           d="M 55,69.12 H 54.8 V 35.67 h 0.11" /><path
           id="path50"
           style="fill:none;stroke:#000000;stroke-width:0.75;stroke-linecap:round;stroke-linejoin:round;stroke-miterlimit:10;stroke-dasharray:none;stroke-opacity:1"
           d="M 55,177.82 H 54.22 V 161.09 H 55" /><path
           id="path52"
           style="fill:none;stroke:#000000;stroke-width:0.75;stroke-linecap:round;stroke-linejoin:round;stroke-miterlimit:10;stroke-dasharray:none;stroke-opacity:1"
           d="M 55,94.2 H 53.9 V 52.39 h 0.9" /><path
           id="path54"
           style="fill:none;stroke:#000000;stroke-width:0.75;stroke-linecap:round;stroke-linejoin:round;stroke-miterlimit:10;stroke-dasharray:none;stroke-opacity:1"
           d="M 55,110.92 H 53.42 V 73.3 h 0.48" /><path
           id="path56"
           style="fill:none;stroke:#000000;stroke-width:0.75;stroke-linecap:round;stroke-linejoin:round;stroke-miterlimit:10;stroke-dasharray:none;stroke-opacity:1"
           d="M 55,227.99 H 52.66 V 211.26 H 55" /><path
           id="path58"
           style="fill:none;stroke:#000000;stroke-width:0.75;stroke-linecap:round;stroke-linejoin:round;stroke-miterlimit:10;stroke-dasharray:none;stroke-opacity:1"
           d="M 55,127.65 H 52.36 V 92.11 h 1.06" /><path
           id="path60"
           style="fill:none;stroke:#000000;stroke-width:0.75;stroke-linecap:round;stroke-linejoin:round;stroke-miterlimit:10;stroke-dasharray:none;stroke-opacity:1"
           d="m 55,194.54 h -5.55 v -25.08 h 4.77" /><path
           id="path62"
           style="fill:none;stroke:#000000;stroke-width:0.75;stroke-linecap:round;stroke-linejoin:round;stroke-miterlimit:10;stroke-dasharray:none;stroke-opacity:1"
           d="M 55,261.43 H 49.27 V 244.71 H 55" /><path
           id="path64"
           style="fill:none;stroke:#000000;stroke-width:0.75;stroke-linecap:round;stroke-linejoin:round;stroke-miterlimit:10;stroke-dasharray:none;stroke-opacity:1"
           d="m 55,144.37 h -8.5 v -34.49 h 5.86" /><path
           id="path66"
           style="fill:none;stroke:#000000;stroke-width:0.75;stroke-linecap:round;stroke-linejoin:round;stroke-miterlimit:10;stroke-dasharray:none;stroke-opacity:1"
           d="M 49.45,182 H 43.53 V 127.12 H 46.5" /><path
           id="path68"
           style="fill:none;stroke:#000000;stroke-width:0.75;stroke-linecap:round;stroke-linejoin:round;stroke-miterlimit:10;stroke-dasharray:none;stroke-opacity:1"
           d="M 52.66,219.63 H 23.17 v -65.07 h 20.36" /><path
           id="path70"
           style="fill:none;stroke:#000000;stroke-width:0.75;stroke-linecap:round;stroke-linejoin:round;stroke-miterlimit:10;stroke-dasharray:none;stroke-opacity:1"
           d="M 49.27,253.07 H 2.62 v -65.98 h 20.55" /></g></g><g
       id="g72" /><g
       id="g74"><path
         id="path76"
         style="fill:#4575b4;fill-opacity:1;fill-rule:nonzero;stroke:#999999;stroke-width:0.75;stroke-linecap:round;stroke-linejoin:round;stroke-miterlimit:10;stroke-dasharray:none;stroke-opacity:1"
         d="m 55,253.07 h 149 v 16.72 H 55 Z" /><path
         id="path78"
         style="fill:#4575b4;fill-opacity:1;fill-rule:nonzero;stroke:#999999;stroke-width:0.75;stroke-linecap:round;stroke-linejoin:round;stroke-miterlimit:10;stroke-dasharray:none;stroke-opacity:1"
         d="m 55,236.35 h 149 v 16.72 H 55 Z" /><path
         id="path80"
         style="fill:#fcb271;fill-opacity:1;fill-rule:nonzero;stroke:#999999;stroke-width:0.75;stroke-linecap:round;stroke-linejoin:round;stroke-miterlimit:10;stroke-dasharray:none;stroke-opacity:1"
         d="m 55,219.63 h 149 v 16.72 H 55 Z" /><path
         id="path82"
         style="fill:#fdd085;fill-opacity:1;fill-rule:nonzero;stroke:#999999;stroke-width:0.75;stroke-linecap:round;stroke-linejoin:round;stroke-miterlimit:10;stroke-dasharray:none;stroke-opacity:1"
         d="m 55,202.9 h 149 v 16.72 H 55 Z" /><path
         id="path84"
         style="fill:#b4d6e8;fill-opacity:1;fill-rule:nonzero;stroke:#999999;stroke-width:0.75;stroke-linecap:round;stroke-linejoin:round;stroke-miterlimit:10;stroke-dasharray:none;stroke-opacity:1"
         d="M 55,186.18 H 204 V 202.9 H 55 Z" /><path
         id="path86"
         style="fill:#80afd2;fill-opacity:1;fill-rule:nonzero;stroke:#999999;stroke-width:0.75;stroke-linecap:round;stroke-linejoin:round;stroke-miterlimit:10;stroke-dasharray:none;stroke-opacity:1"
         d="m 55,169.46 h 149 v 16.72 H 55 Z" /><path
         id="path88"
         style="fill:#77a6ce;fill-opacity:1;fill-rule:nonzero;stroke:#999999;stroke-width:0.75;stroke-linecap:round;stroke-linejoin:round;stroke-miterlimit:10;stroke-dasharray:none;stroke-opacity:1"
         d="m 55,152.73 h 149 v 16.72 H 55 Z" /><path
         id="path90"
         style="fill:#4e7db8;fill-opacity:1;fill-rule:nonzero;stroke:#999999;stroke-width:0.75;stroke-linecap:round;stroke-linejoin:round;stroke-miterlimit:10;stroke-dasharray:none;stroke-opacity:1"
         d="m 55,136.01 h 149 v 16.72 H 55 Z" /><path
         id="path92"
         style="fill:#5c8bbf;fill-opacity:1;fill-rule:nonzero;stroke:#999999;stroke-width:0.75;stroke-linecap:round;stroke-linejoin:round;stroke-miterlimit:10;stroke-dasharray:none;stroke-opacity:1"
         d="m 55,119.29 h 149 v 16.72 H 55 Z" /><path
         id="path94"
         style="fill:#4575b4;fill-opacity:1;fill-rule:nonzero;stroke:#999999;stroke-width:0.75;stroke-linecap:round;stroke-linejoin:round;stroke-miterlimit:10;stroke-dasharray:none;stroke-opacity:1"
         d="m 55,102.56 h 149 v 16.72 H 55 Z" /><path
         id="path96"
         style="fill:#4575b4;fill-opacity:1;fill-rule:nonzero;stroke:#999999;stroke-width:0.75;stroke-linecap:round;stroke-linejoin:round;stroke-miterlimit:10;stroke-dasharray:none;stroke-opacity:1"
         d="m 55,85.84 h 149 v 16.72 H 55 Z" /><path
         id="path98"
         style="fill:#4e7db8;fill-opacity:1;fill-rule:nonzero;stroke:#999999;stroke-width:0.75;stroke-linecap:round;stroke-linejoin:round;stroke-miterlimit:10;stroke-dasharray:none;stroke-opacity:1"
         d="M 55,69.12 H 204 V 85.84 H 55 Z" /><path
         id="path100"
         style="fill:#4e7db8;fill-opacity:1;fill-rule:nonzero;stroke:#999999;stroke-width:0.75;stroke-linecap:round;stroke-linejoin:round;stroke-miterlimit:10;stroke-dasharray:none;stroke-opacity:1"
         d="M 55,52.39 H 204 V 69.11 H 55 Z" /><path
         id="path102"
         style="fill:#4e7db8;fill-opacity:1;fill-rule:nonzero;stroke:#999999;stroke-width:0.75;stroke-linecap:round;stroke-linejoin:round;stroke-miterlimit:10;stroke-dasharray:none;stroke-opacity:1"
         d="M 55,35.67 H 204 V 52.39 H 55 Z" /><path
         id="path104"
         style="fill:#4e7db8;fill-opacity:1;fill-rule:nonzero;stroke:#999999;stroke-width:0.75;stroke-linecap:round;stroke-linejoin:round;stroke-miterlimit:10;stroke-dasharray:none;stroke-opacity:1"
         d="M 55,18.95 H 204 V 35.67 H 55 Z" /><path
         id="path106"
         style="fill:#d73027;fill-opacity:1;fill-rule:nonzero;stroke:#999999;stroke-width:0.75;stroke-linecap:round;stroke-linejoin:round;stroke-miterlimit:10;stroke-dasharray:none;stroke-opacity:1"
         d="m 204,253.07 h 149 v 16.72 H 204 Z" /><path
         id="path108"
         style="fill:#f4794e;fill-opacity:1;fill-rule:nonzero;stroke:#999999;stroke-width:0.75;stroke-linecap:round;stroke-linejoin:round;stroke-miterlimit:10;stroke-dasharray:none;stroke-opacity:1"
         d="m 204,236.35 h 149 v 16.72 H 204 Z" /><path
         id="path110"
         style="fill:#4575b4;fill-opacity:1;fill-rule:nonzero;stroke:#999999;stroke-width:0.75;stroke-linecap:round;stroke-linejoin:round;stroke-miterlimit:10;stroke-dasharray:none;stroke-opacity:1"
         d="m 204,219.63 h 149 v 16.72 H 204 Z" /><path
         id="path112"
         style="fill:#4575b4;fill-opacity:1;fill-rule:nonzero;stroke:#999999;stroke-width:0.75;stroke-linecap:round;stroke-linejoin:round;stroke-miterlimit:10;stroke-dasharray:none;stroke-opacity:1"
         d="m 204,202.9 h 149 v 16.72 H 204 Z" /><path
         id="path114"
         style="fill:#5282bb;fill-opacity:1;fill-rule:nonzero;stroke:#999999;stroke-width:0.75;stroke-linecap:round;stroke-linejoin:round;stroke-miterlimit:10;stroke-dasharray:none;stroke-opacity:1"
         d="M 204,186.18 H 353 V 202.9 H 204 Z" /><path
         id="path116"
         style="fill:#4575b4;fill-opacity:1;fill-rule:nonzero;stroke:#999999;stroke-width:0.75;stroke-linecap:round;stroke-linejoin:round;stroke-miterlimit:10;stroke-dasharray:none;stroke-opacity:1"
         d="m 204,169.46 h 149 v 16.72 H 204 Z" /><path
         id="path118"
         style="fill:#4575b4;fill-opacity:1;fill-rule:nonzero;stroke:#999999;stroke-width:0.75;stroke-linecap:round;stroke-linejoin:round;stroke-miterlimit:10;stroke-dasharray:none;stroke-opacity:1"
         d="m 204,152.73 h 149 v 16.72 H 204 Z" /><path
         id="path120"
         style="fill:#9cc6df;fill-opacity:1;fill-rule:nonzero;stroke:#999999;stroke-width:0.75;stroke-linecap:round;stroke-linejoin:round;stroke-miterlimit:10;stroke-dasharray:none;stroke-opacity:1"
         d="m 204,136.01 h 149 v 16.72 H 204 Z" /><path
         id="path122"
         style="fill:#4575b4;fill-opacity:1;fill-rule:nonzero;stroke:#999999;stroke-width:0.75;stroke-linecap:round;stroke-linejoin:round;stroke-miterlimit:10;stroke-dasharray:none;stroke-opacity:1"
         d="m 204,119.29 h 149 v 16.72 H 204 Z" /><path
         id="path124"
         style="fill:#4e7db8;fill-opacity:1;fill-rule:nonzero;stroke:#999999;stroke-width:0.75;stroke-linecap:round;stroke-linejoin:round;stroke-miterlimit:10;stroke-dasharray:none;stroke-opacity:1"
         d="m 204,102.56 h 149 v 16.72 H 204 Z" /><path
         id="path126"
         style="fill:#4575b4;fill-opacity:1;fill-rule:nonzero;stroke:#999999;stroke-width:0.75;stroke-linecap:round;stroke-linejoin:round;stroke-miterlimit:10;stroke-dasharray:none;stroke-opacity:1"
         d="m 204,85.84 h 149 v 16.72 H 204 Z" /><path
         id="path128"
         style="fill:#4575b4;fill-opacity:1;fill-rule:nonzero;stroke:#999999;stroke-width:0.75;stroke-linecap:round;stroke-linejoin:round;stroke-miterlimit:10;stroke-dasharray:none;stroke-opacity:1"
         d="M 204,69.12 H 353 V 85.84 H 204 Z" /><path
         id="path130"
         style="fill:#4575b4;fill-opacity:1;fill-rule:nonzero;stroke:#999999;stroke-width:0.75;stroke-linecap:round;stroke-linejoin:round;stroke-miterlimit:10;stroke-dasharray:none;stroke-opacity:1"
         d="M 204,52.39 H 353 V 69.11 H 204 Z" /><path
         id="path132"
         style="fill:#4575b4;fill-opacity:1;fill-rule:nonzero;stroke:#999999;stroke-width:0.75;stroke-linecap:round;stroke-linejoin:round;stroke-miterlimit:10;stroke-dasharray:none;stroke-opacity:1"
         d="M 204,35.67 H 353 V 52.39 H 204 Z" /><path
         id="path134"
         style="fill:#4575b4;fill-opacity:1;fill-rule:nonzero;stroke:#999999;stroke-width:0.75;stroke-linecap:round;stroke-linejoin:round;stroke-miterlimit:10;stroke-dasharray:none;stroke-opacity:1"
         d="M 204,18.95 H 353 V 35.67 H 204 Z" /></g><g
       id="g136" /><g
       id="g138"><text
         id="text142"
         style="font-variant:normal;font-weight:normal;font-size:7px;font-family:Helvetica;-inkscape-font-specification:Helvetica;writing-mode:lr-tb;fill:#000000;fill-opacity:1;fill-rule:nonzero;stroke:none"
         transform="matrix(0,-1,-1,0,126.99,15.95)"><tspan
           id="tspan140"
           y="0"
           x="0 5.0539999">C1</tspan></text>
<text
         id="text146"
         style="font-variant:normal;font-weight:normal;font-size:7px;font-family:Helvetica;-inkscape-font-specification:Helvetica;writing-mode:lr-tb;fill:#000000;fill-opacity:1;fill-rule:nonzero;stroke:none"
         transform="matrix(0,-1,-1,0,275.98,15.95)"><tspan
           id="tspan144"
           y="0"
           x="0 5.0539999">C2</tspan></text>
</g><g
       id="g148" /><g
       id="g150"><text
         id="text154"
         style="font-variant:normal;font-weight:normal;font-size:7px;font-family:Helvetica;-inkscape-font-specification:Helvetica;writing-mode:lr-tb;fill:#000000;fill-opacity:1;fill-rule:nonzero;stroke:none"
         transform="matrix(1,0,0,-1,356,258.92)"><tspan
           id="tspan152"
           y="0"
           x="0 1.946 5.8379998 9.7299995 14.119 18.011 21.511 23.457001 27.349001 31.240999 33.571999 37.464001 39.018002 40.571999 44.464001 47.964001 51.855999 55.748001">f__Pasteurellaceae</tspan></text>
<text
         id="text158"
         style="font-variant:normal;font-weight:normal;font-size:7px;font-family:Helvetica;-inkscape-font-specification:Helvetica;writing-mode:lr-tb;fill:#000000;fill-opacity:1;fill-rule:nonzero;stroke:none"
         transform="matrix(1,0,0,-1,356,242.2)"><tspan
           id="tspan156"
           y="0"
           x="0 1.946 5.8379998 9.7299995 14.399 18.291 22.183001 23.737 27.629 31.521 35.412998 41.243999 45.136002 49.028 52.919998 56.812 60.703999 64.204002 68.096001 71.987999">f__Sphingomonadaceae</tspan></text>
<text
         id="text162"
         style="font-variant:normal;font-weight:normal;font-size:7px;font-family:Helvetica;-inkscape-font-specification:Helvetica;writing-mode:lr-tb;fill:#000000;fill-opacity:1;fill-rule:nonzero;stroke:none"
         transform="matrix(1,0,0,-1,356,225.47)"><tspan
           id="tspan160"
           y="0"
           x="0 1.946 5.8379998 9.7299995 14.007 17.899 21.399 25.291 29.183001 33.075001 36.575001 38.521 42.412998 44.848999 46.403 50.294998 53.794998 57.687 61.578999">f__Fusobacteriaceae</tspan></text>
<text
         id="text166"
         style="font-variant:normal;font-weight:normal;font-size:7px;font-family:Helvetica;-inkscape-font-specification:Helvetica;writing-mode:lr-tb;fill:#000000;fill-opacity:1;fill-rule:nonzero;stroke:none"
         transform="matrix(1,0,0,-1,356,208.75)"><tspan
           id="tspan164"
           y="0"
           x="0 1.946 5.8379998 9.7299995 14.007 15.561 19.313 22.638 26.530001 30.422001 34.313999 37.813999 39.759998 43.652 46.088001 47.641998 51.534 55.034 58.925999 62.818001">f__Flavobacteriaceae</tspan></text>
<text
         id="text170"
         style="font-variant:normal;font-weight:normal;font-size:7px;font-family:Helvetica;-inkscape-font-specification:Helvetica;writing-mode:lr-tb;fill:#000000;fill-opacity:1;fill-rule:nonzero;stroke:none"
         transform="matrix(1,0,0,-1,356,192.03)"><tspan
           id="tspan168"
           y="0"
           x="0 1.946 5.8379998 9.7299995 14.399 16.73 20.412001 23.737 27.629 29.575001 33.466999 35.021 36.575001 40.466999 43.966999 47.859001 51.750999">f__Prevotellaceae</tspan></text>
<text
         id="text174"
         style="font-variant:normal;font-weight:normal;font-size:7px;font-family:Helvetica;-inkscape-font-specification:Helvetica;writing-mode:lr-tb;fill:#000000;fill-opacity:1;fill-rule:nonzero;stroke:none"
         transform="matrix(1,0,0,-1,356,175.3)"><tspan
           id="tspan172"
           y="0"
           x="0 1.946 5.8379998 9.7299995 14.399 18.291 21.791 23.344999 24.899 26.452999 30.344999 31.899 35.791 39.291 43.182999 47.075001 50.966999 54.859001 58.750999 64.582001">f__Bacillales_noname</tspan></text>
<text
         id="text178"
         style="font-variant:normal;font-weight:normal;font-size:7px;font-family:Helvetica;-inkscape-font-specification:Helvetica;writing-mode:lr-tb;fill:#000000;fill-opacity:1;fill-rule:nonzero;stroke:none"
         transform="matrix(1,0,0,-1,356,158.58)"><tspan
           id="tspan176"
           y="0"
           x="0 1.946 5.8379998 9.7299995 14.049 17.941 21.833 23.778999 27.671 31.171 33.117001 35.448002 39.34 43.231998 45.178001 49.07 52.57 56.462002 59.962002 63.462002 67.353996 70.853996 74.746002 78.638">f__Peptostreptococcaceae</tspan></text>
<text
         id="text182"
         style="font-variant:normal;font-weight:normal;font-size:7px;font-family:Helvetica;-inkscape-font-specification:Helvetica;writing-mode:lr-tb;fill:#000000;fill-opacity:1;fill-rule:nonzero;stroke:none"
         transform="matrix(1,0,0,-1,356,141.86)"><tspan
           id="tspan180"
           y="0"
           x="0 1.946 5.8379998 9.7299995 14.784 18.676001 20.23 23.73 27.23 31.122 33.557999 35.112 39.004002 42.504002 46.396 50.287998">f__Neisseriaceae</tspan></text>
<text
         id="text186"
         style="font-variant:normal;font-weight:normal;font-size:7px;font-family:Helvetica;-inkscape-font-specification:Helvetica;writing-mode:lr-tb;fill:#000000;fill-opacity:1;fill-rule:nonzero;stroke:none"
         transform="matrix(1,0,0,-1,356,125.13)"><tspan
           id="tspan184"
           y="0"
           x="0 1.946 5.8379998 9.7299995 13.622 17.514 21.406 23.351999 27.243999 29.190001 31.625999 33.18 36.68 40.571999 42.125999 46.018002 49.518002 53.41 57.301998">f__Leptotrichiaceae</tspan></text>
<text
         id="text190"
         style="font-variant:normal;font-weight:normal;font-size:7px;font-family:Helvetica;-inkscape-font-specification:Helvetica;writing-mode:lr-tb;fill:#000000;fill-opacity:1;fill-rule:nonzero;stroke:none"
         transform="matrix(1,0,0,-1,356,108.41)"><tspan
           id="tspan188"
           y="0"
           x="0 1.946 5.8379998 9.7299995 13.839 17.731001 19.285 20.839001 22.393 26.285 30.177 34.069 35.623001 37.176998 41.069 44.569 48.460999 52.353001">f__Veillonellaceae</tspan></text>
<text
         id="text194"
         style="font-variant:normal;font-weight:normal;font-size:7px;font-family:Helvetica;-inkscape-font-specification:Helvetica;writing-mode:lr-tb;fill:#000000;fill-opacity:1;fill-rule:nonzero;stroke:none"
         transform="matrix(1,0,0,-1,356,91.69)"><tspan
           id="tspan192"
           y="0"
           x="0 1.946 5.8379998 9.7299995 14.784 18.676001 21.112 22.666 26.558001 30.450001 34.341999 37.841999 39.787998 43.68 46.116001 47.669998 51.562 55.062 58.953999 62.846001">f__Coriobacteriaceae</tspan></text>
<text
         id="text198"
         style="font-variant:normal;font-weight:normal;font-size:7px;font-family:Helvetica;-inkscape-font-specification:Helvetica;writing-mode:lr-tb;fill:#000000;fill-opacity:1;fill-rule:nonzero;stroke:none"
         transform="matrix(1,0,0,-1,356,74.96)"><tspan
           id="tspan196"
           y="0"
           x="0 1.946 5.8379998 9.7299995 14.784 16.337999 20.23 23.73 25.676001 28.112 29.666 33.557999 35.112 39.004002 40.557999 44.450001 47.950001 51.841999 55.769001 59.660999 65.491997 67.045998 68.599998 72.099998 75.991997 80.661003 82.607002 86.499001 88.445 92.336998 95.836998 99.728996 102.34 104.286 108.178 112.07 115.962 120.631 124.523 128.41499 129.96899">f__Clostridiales_Family_XI_Incertae_Sedis</tspan></text>
<text
         id="text202"
         style="font-variant:normal;font-weight:normal;font-size:7px;font-family:Helvetica;-inkscape-font-specification:Helvetica;writing-mode:lr-tb;fill:#000000;fill-opacity:1;fill-rule:nonzero;stroke:none"
         transform="matrix(1,0,0,-1,356,58.24)"><tspan
           id="tspan200"
           y="0"
           x="0 1.946 5.8379998 9.7299995 14.784 18.676001 24.507 28.188999 31.688999 33.243 37.134998 41.027 44.918999 48.418999 50.365002 54.257 56.518002 60.41 63.91 67.802002 71.694">f__Campylobacteraceae</tspan></text>
<text
         id="text206"
         style="font-variant:normal;font-weight:normal;font-size:7px;font-family:Helvetica;-inkscape-font-specification:Helvetica;writing-mode:lr-tb;fill:#000000;fill-opacity:1;fill-rule:nonzero;stroke:none"
         transform="matrix(1,0,0,-1,356,41.52)"><tspan
           id="tspan204"
           y="0"
           x="0 1.946 5.8379998 9.7299995 13.622 17.514 21.014 24.906 28.798 32.689999 36.189999 40.082001 41.636002 43.896999 47.789001 51.289001 55.181 59.073002">f__Lachnospiraceae</tspan></text>
<text
         id="text210"
         style="font-variant:normal;font-weight:normal;font-size:7px;font-family:Helvetica;-inkscape-font-specification:Helvetica;writing-mode:lr-tb;fill:#000000;fill-opacity:1;fill-rule:nonzero;stroke:none"
         transform="matrix(1,0,0,-1,356,24.79)"><tspan
           id="tspan208"
           y="0"
           x="0 1.946 5.8379998 9.7299995 14.399 16.940001 20.440001 23.940001 25.493999 29.386 33.278 34.832001 38.723999 40.669998 43.105999 44.66 48.16 52.051998 55.944 59.444 63.335999 67.227997">f__Erysipelotrichaceae</tspan></text>
</g><g
       id="g212" /><g
       id="g214"><path
         id="path216"
         style="fill:#4575b4;fill-opacity:1;fill-rule:nonzero;stroke:none"
         d="m 496.47,119.8 h 10 v 1.5 h -10 z" /><path
         id="path218"
         style="fill:#4979b6;fill-opacity:1;fill-rule:nonzero;stroke:none"
         d="m 496.47,121.3 h 10 v 1.5 h -10 z" /><path
         id="path220"
         style="fill:#4e7db8;fill-opacity:1;fill-rule:nonzero;stroke:none"
         d="m 496.47,122.8 h 10 v 1.5 h -10 z" /><path
         id="path222"
         style="fill:#5282bb;fill-opacity:1;fill-rule:nonzero;stroke:none"
         d="m 496.47,124.3 h 10 v 1.5 h -10 z" /><path
         id="path224"
         style="fill:#5786bd;fill-opacity:1;fill-rule:nonzero;stroke:none"
         d="m 496.47,125.8 h 10 v 1.5 h -10 z" /><path
         id="path226"
         style="fill:#5c8bbf;fill-opacity:1;fill-rule:nonzero;stroke:none"
         d="m 496.47,127.3 h 10 v 1.5 h -10 z" /><path
         id="path228"
         style="fill:#608fc2;fill-opacity:1;fill-rule:nonzero;stroke:none"
         d="m 496.47,128.8 h 10 v 1.5 h -10 z" /><path
         id="path230"
         style="fill:#6594c4;fill-opacity:1;fill-rule:nonzero;stroke:none"
         d="m 496.47,130.3 h 10 v 1.5 h -10 z" /><path
         id="path232"
         style="fill:#6998c6;fill-opacity:1;fill-rule:nonzero;stroke:none"
         d="m 496.47,131.8 h 10 v 1.5 h -10 z" /><path
         id="path234"
         style="fill:#6e9dc9;fill-opacity:1;fill-rule:nonzero;stroke:none"
         d="m 496.47,133.3 h 10 v 1.5 h -10 z" /><path
         id="path236"
         style="fill:#73a1cb;fill-opacity:1;fill-rule:nonzero;stroke:none"
         d="m 496.47,134.8 h 10 v 1.5 h -10 z" /><path
         id="path238"
         style="fill:#77a6ce;fill-opacity:1;fill-rule:nonzero;stroke:none"
         d="m 496.47,136.3 h 10 v 1.5 h -10 z" /><path
         id="path240"
         style="fill:#7caad0;fill-opacity:1;fill-rule:nonzero;stroke:none"
         d="m 496.47,137.8 h 10 v 1.5 h -10 z" /><path
         id="path242"
         style="fill:#80afd2;fill-opacity:1;fill-rule:nonzero;stroke:none"
         d="m 496.47,139.3 h 10 v 1.5 h -10 z" /><path
         id="path244"
         style="fill:#85b3d5;fill-opacity:1;fill-rule:nonzero;stroke:none"
         d="m 496.47,140.8 h 10 v 1.5 h -10 z" /><path
         id="path246"
         style="fill:#8ab8d7;fill-opacity:1;fill-rule:nonzero;stroke:none"
         d="m 496.47,142.3 h 10 v 1.5 h -10 z" /><path
         id="path248"
         style="fill:#8ebcd9;fill-opacity:1;fill-rule:nonzero;stroke:none"
         d="m 496.47,143.8 h 10 v 1.5 h -10 z" /><path
         id="path250"
         style="fill:#93c0db;fill-opacity:1;fill-rule:nonzero;stroke:none"
         d="m 496.47,145.3 h 10 v 1.5 h -10 z" /><path
         id="path252"
         style="fill:#98c3dd;fill-opacity:1;fill-rule:nonzero;stroke:none"
         d="m 496.47,146.8 h 10 v 1.5 h -10 z" /><path
         id="path254"
         style="fill:#9cc6df;fill-opacity:1;fill-rule:nonzero;stroke:none"
         d="m 496.47,148.3 h 10 v 1.5 h -10 z" /><path
         id="path256"
         style="fill:#a1cae1;fill-opacity:1;fill-rule:nonzero;stroke:none"
         d="m 496.47,149.8 h 10 v 1.5 h -10 z" /><path
         id="path258"
         style="fill:#a6cde2;fill-opacity:1;fill-rule:nonzero;stroke:none"
         d="m 496.47,151.3 h 10 v 1.5 h -10 z" /><path
         id="path260"
         style="fill:#abd0e4;fill-opacity:1;fill-rule:nonzero;stroke:none"
         d="m 496.47,152.8 h 10 v 1.5 h -10 z" /><path
         id="path262"
         style="fill:#b0d3e6;fill-opacity:1;fill-rule:nonzero;stroke:none"
         d="m 496.47,154.3 h 10 v 1.5 h -10 z" /><path
         id="path264"
         style="fill:#b4d6e8;fill-opacity:1;fill-rule:nonzero;stroke:none"
         d="m 496.47,155.8 h 10 v 1.5 h -10 z" /><path
         id="path266"
         style="fill:#b9d9e9;fill-opacity:1;fill-rule:nonzero;stroke:none"
         d="m 496.47,157.3 h 10 v 1.5 h -10 z" /><path
         id="path268"
         style="fill:#bedceb;fill-opacity:1;fill-rule:nonzero;stroke:none"
         d="m 496.47,158.8 h 10 v 1.5 h -10 z" /><path
         id="path270"
         style="fill:#c3e0ed;fill-opacity:1;fill-rule:nonzero;stroke:none"
         d="m 496.47,160.3 h 10 v 1.5 h -10 z" /><path
         id="path272"
         style="fill:#c8e3ef;fill-opacity:1;fill-rule:nonzero;stroke:none"
         d="m 496.47,161.8 h 10 v 1.5 h -10 z" /><path
         id="path274"
         style="fill:#cce6f0;fill-opacity:1;fill-rule:nonzero;stroke:none"
         d="m 496.47,163.3 h 10 v 1.5 h -10 z" /><path
         id="path276"
         style="fill:#d1e9f2;fill-opacity:1;fill-rule:nonzero;stroke:none"
         d="m 496.47,164.8 h 10 v 1.5 h -10 z" /><path
         id="path278"
         style="fill:#d6ecf4;fill-opacity:1;fill-rule:nonzero;stroke:none"
         d="m 496.47,166.3 h 10 v 1.5 h -10 z" /><path
         id="path280"
         style="fill:#dbeff6;fill-opacity:1;fill-rule:nonzero;stroke:none"
         d="m 496.47,167.8 h 10 v 1.5 h -10 z" /><path
         id="path282"
         style="fill:#e0f3f7;fill-opacity:1;fill-rule:nonzero;stroke:none"
         d="m 496.47,169.3 h 10 v 1.5 h -10 z" /><path
         id="path284"
         style="fill:#e1f3f4;fill-opacity:1;fill-rule:nonzero;stroke:none"
         d="m 496.47,170.8 h 10 v 1.5 h -10 z" /><path
         id="path286"
         style="fill:#e3f4f1;fill-opacity:1;fill-rule:nonzero;stroke:none"
         d="m 496.47,172.3 h 10 v 1.5 h -10 z" /><path
         id="path288"
         style="fill:#e5f5ed;fill-opacity:1;fill-rule:nonzero;stroke:none"
         d="m 496.47,173.8 h 10 v 1.5 h -10 z" /><path
         id="path290"
         style="fill:#e7f5ea;fill-opacity:1;fill-rule:nonzero;stroke:none"
         d="m 496.47,175.3 h 10 v 1.5 h -10 z" /><path
         id="path292"
         style="fill:#e9f6e6;fill-opacity:1;fill-rule:nonzero;stroke:none"
         d="m 496.47,176.8 h 10 v 1.5 h -10 z" /><path
         id="path294"
         style="fill:#ebf7e3;fill-opacity:1;fill-rule:nonzero;stroke:none"
         d="m 496.47,178.3 h 10 v 1.5 h -10 z" /><path
         id="path296"
         style="fill:#edf8df;fill-opacity:1;fill-rule:nonzero;stroke:none"
         d="m 496.47,179.8 h 10 v 1.5 h -10 z" /><path
         id="path298"
         style="fill:#eff8dc;fill-opacity:1;fill-rule:nonzero;stroke:none"
         d="m 496.47,181.3 h 10 v 1.5 h -10 z" /><path
         id="path300"
         style="fill:#f0f9d8;fill-opacity:1;fill-rule:nonzero;stroke:none"
         d="m 496.47,182.8 h 10 v 1.5 h -10 z" /><path
         id="path302"
         style="fill:#f2fad5;fill-opacity:1;fill-rule:nonzero;stroke:none"
         d="m 496.47,184.3 h 10 v 1.5 h -10 z" /><path
         id="path304"
         style="fill:#f4fbd2;fill-opacity:1;fill-rule:nonzero;stroke:none"
         d="m 496.47,185.8 h 10 v 1.5 h -10 z" /><path
         id="path306"
         style="fill:#f6fbce;fill-opacity:1;fill-rule:nonzero;stroke:none"
         d="m 496.47,187.3 h 10 v 1.5 h -10 z" /><path
         id="path308"
         style="fill:#f8fccb;fill-opacity:1;fill-rule:nonzero;stroke:none"
         d="m 496.47,188.8 h 10 v 1.5 h -10 z" /><path
         id="path310"
         style="fill:#fafdc7;fill-opacity:1;fill-rule:nonzero;stroke:none"
         d="m 496.47,190.3 h 10 v 1.5 h -10 z" /><path
         id="path312"
         style="fill:#fcfdc4;fill-opacity:1;fill-rule:nonzero;stroke:none"
         d="m 496.47,191.8 h 10 v 1.5 h -10 z" /><path
         id="path314"
         style="fill:#fefec0;fill-opacity:1;fill-rule:nonzero;stroke:none"
         d="m 496.47,193.3 h 10 v 1.5 h -10 z" /><path
         id="path316"
         style="fill:#fefebd;fill-opacity:1;fill-rule:nonzero;stroke:none"
         d="m 496.47,194.8 h 10 v 1.5 h -10 z" /><path
         id="path318"
         style="fill:#fefcba;fill-opacity:1;fill-rule:nonzero;stroke:none"
         d="m 496.47,196.3 h 10 v 1.5 h -10 z" /><path
         id="path320"
         style="fill:#fefab7;fill-opacity:1;fill-rule:nonzero;stroke:none"
         d="m 496.47,197.8 h 10 v 1.5 h -10 z" /><path
         id="path322"
         style="fill:#fef8b5;fill-opacity:1;fill-rule:nonzero;stroke:none"
         d="m 496.47,199.3 h 10 v 1.5 h -10 z" /><path
         id="path324"
         style="fill:#fef6b2;fill-opacity:1;fill-rule:nonzero;stroke:none"
         d="m 496.47,200.8 h 10 v 1.5 h -10 z" /><path
         id="path326"
         style="fill:#fef4af;fill-opacity:1;fill-rule:nonzero;stroke:none"
         d="m 496.47,202.3 h 10 v 1.5 h -10 z" /><path
         id="path328"
         style="fill:#fef2ac;fill-opacity:1;fill-rule:nonzero;stroke:none"
         d="m 496.47,203.8 h 10 v 1.5 h -10 z" /><path
         id="path330"
         style="fill:#fef0a9;fill-opacity:1;fill-rule:nonzero;stroke:none"
         d="m 496.47,205.3 h 10 v 1.5 h -10 z" /><path
         id="path332"
         style="fill:#feefa6;fill-opacity:1;fill-rule:nonzero;stroke:none"
         d="m 496.47,206.8 h 10 v 1.5 h -10 z" /><path
         id="path334"
         style="fill:#feeda3;fill-opacity:1;fill-rule:nonzero;stroke:none"
         d="m 496.47,208.3 h 10 v 1.5 h -10 z" /><path
         id="path336"
         style="fill:#feeba1;fill-opacity:1;fill-rule:nonzero;stroke:none"
         d="m 496.47,209.8 h 10 v 1.5 h -10 z" /><path
         id="path338"
         style="fill:#fee99e;fill-opacity:1;fill-rule:nonzero;stroke:none"
         d="m 496.47,211.3 h 10 v 1.5 h -10 z" /><path
         id="path340"
         style="fill:#fee79b;fill-opacity:1;fill-rule:nonzero;stroke:none"
         d="m 496.47,212.8 h 10 v 1.5 h -10 z" /><path
         id="path342"
         style="fill:#fee598;fill-opacity:1;fill-rule:nonzero;stroke:none"
         d="m 496.47,214.3 h 10 v 1.5 h -10 z" /><path
         id="path344"
         style="fill:#fee395;fill-opacity:1;fill-rule:nonzero;stroke:none"
         d="m 496.47,215.8 h 10 v 1.5 h -10 z" /><path
         id="path346"
         style="fill:#fee192;fill-opacity:1;fill-rule:nonzero;stroke:none"
         d="m 496.47,217.3 h 10 v 1.5 h -10 z" /><path
         id="path348"
         style="fill:#fedf8f;fill-opacity:1;fill-rule:nonzero;stroke:none"
         d="m 496.47,218.8 h 10 v 1.5 h -10 z" /><path
         id="path350"
         style="fill:#fdda8c;fill-opacity:1;fill-rule:nonzero;stroke:none"
         d="m 496.47,220.3 h 10 v 1.5 h -10 z" /><path
         id="path352"
         style="fill:#fdd589;fill-opacity:1;fill-rule:nonzero;stroke:none"
         d="m 496.47,221.8 h 10 v 1.5 h -10 z" /><path
         id="path354"
         style="fill:#fdd085;fill-opacity:1;fill-rule:nonzero;stroke:none"
         d="m 496.47,223.3 h 10 v 1.5 h -10 z" /><path
         id="path356"
         style="fill:#fdcb82;fill-opacity:1;fill-rule:nonzero;stroke:none"
         d="m 496.47,224.8 h 10 v 1.5 h -10 z" /><path
         id="path358"
         style="fill:#fdc67f;fill-opacity:1;fill-rule:nonzero;stroke:none"
         d="m 496.47,226.3 h 10 v 1.5 h -10 z" /><path
         id="path360"
         style="fill:#fdc17b;fill-opacity:1;fill-rule:nonzero;stroke:none"
         d="m 496.47,227.8 h 10 v 1.5 h -10 z" /><path
         id="path362"
         style="fill:#fdbc78;fill-opacity:1;fill-rule:nonzero;stroke:none"
         d="m 496.47,229.3 h 10 v 1.5 h -10 z" /><path
         id="path364"
         style="fill:#fdb775;fill-opacity:1;fill-rule:nonzero;stroke:none"
         d="m 496.47,230.8 h 10 v 1.5 h -10 z" /><path
         id="path366"
         style="fill:#fcb271;fill-opacity:1;fill-rule:nonzero;stroke:none"
         d="m 496.47,232.3 h 10 v 1.5 h -10 z" /><path
         id="path368"
         style="fill:#fcad6e;fill-opacity:1;fill-rule:nonzero;stroke:none"
         d="m 496.47,233.8 h 10 v 1.5 h -10 z" /><path
         id="path370"
         style="fill:#fca86b;fill-opacity:1;fill-rule:nonzero;stroke:none"
         d="m 496.47,235.3 h 10 v 1.5 h -10 z" /><path
         id="path372"
         style="fill:#fca367;fill-opacity:1;fill-rule:nonzero;stroke:none"
         d="m 496.47,236.8 h 10 v 1.5 h -10 z" /><path
         id="path374"
         style="fill:#fc9e64;fill-opacity:1;fill-rule:nonzero;stroke:none"
         d="m 496.47,238.3 h 10 v 1.5 h -10 z" /><path
         id="path376"
         style="fill:#fc9961;fill-opacity:1;fill-rule:nonzero;stroke:none"
         d="m 496.47,239.8 h 10 v 1.5 h -10 z" /><path
         id="path378"
         style="fill:#fc945d;fill-opacity:1;fill-rule:nonzero;stroke:none"
         d="m 496.47,241.3 h 10 v 1.5 h -10 z" /><path
         id="path380"
         style="fill:#fc8f5a;fill-opacity:1;fill-rule:nonzero;stroke:none"
         d="m 496.47,242.8 h 10 v 1.5 h -10 z" /><path
         id="path382"
         style="fill:#fa8a57;fill-opacity:1;fill-rule:nonzero;stroke:none"
         d="m 496.47,244.3 h 10 v 1.5 h -10 z" /><path
         id="path384"
         style="fill:#f88454;fill-opacity:1;fill-rule:nonzero;stroke:none"
         d="m 496.47,245.8 h 10 v 1.5 h -10 z" /><path
         id="path386"
         style="fill:#f67e51;fill-opacity:1;fill-rule:nonzero;stroke:none"
         d="m 496.47,247.3 h 10 v 1.5 h -10 z" /><path
         id="path388"
         style="fill:#f4794e;fill-opacity:1;fill-rule:nonzero;stroke:none"
         d="m 496.47,248.8 h 10 v 1.5 h -10 z" /><path
         id="path390"
         style="fill:#f1734b;fill-opacity:1;fill-rule:nonzero;stroke:none"
         d="m 496.47,250.3 h 10 v 1.5 h -10 z" /><path
         id="path392"
         style="fill:#ef6d48;fill-opacity:1;fill-rule:nonzero;stroke:none"
         d="m 496.47,251.8 h 10 v 1.5 h -10 z" /><path
         id="path394"
         style="fill:#ed6845;fill-opacity:1;fill-rule:nonzero;stroke:none"
         d="m 496.47,253.3 h 10 v 1.5 h -10 z" /><path
         id="path396"
         style="fill:#eb6242;fill-opacity:1;fill-rule:nonzero;stroke:none"
         d="m 496.47,254.8 h 10 v 1.5 h -10 z" /><path
         id="path398"
         style="fill:#e85d3f;fill-opacity:1;fill-rule:nonzero;stroke:none"
         d="m 496.47,256.3 h 10 v 1.5 h -10 z" /><path
         id="path400"
         style="fill:#e6573c;fill-opacity:1;fill-rule:nonzero;stroke:none"
         d="m 496.47,257.8 h 10 v 1.5 h -10 z" /><path
         id="path402"
         style="fill:#e45139;fill-opacity:1;fill-rule:nonzero;stroke:none"
         d="m 496.47,259.3 h 10 v 1.5 h -10 z" /><path
         id="path404"
         style="fill:#e24c36;fill-opacity:1;fill-rule:nonzero;stroke:none"
         d="m 496.47,260.8 h 10 v 1.5 h -10 z" /><path
         id="path406"
         style="fill:#df4633;fill-opacity:1;fill-rule:nonzero;stroke:none"
         d="m 496.47,262.3 h 10 v 1.5 h -10 z" /><path
         id="path408"
         style="fill:#dd4030;fill-opacity:1;fill-rule:nonzero;stroke:none"
         d="m 496.47,263.8 h 10 v 1.5 h -10 z" /><path
         id="path410"
         style="fill:#db3b2d;fill-opacity:1;fill-rule:nonzero;stroke:none"
         d="m 496.47,265.3 h 10 v 1.5 h -10 z" /><path
         id="path412"
         style="fill:#d9352a;fill-opacity:1;fill-rule:nonzero;stroke:none"
         d="m 496.47,266.8 h 10 v 1.5 h -10 z" /><path
         id="path414"
         style="fill:#d73027;fill-opacity:1;fill-rule:nonzero;stroke:none"
         d="m 496.47,268.3 h 10 v 1.5 h -10 z" /><text
         id="text418"
         style="font-variant:normal;font-weight:normal;font-size:7px;font-family:Helvetica;-inkscape-font-specification:Helvetica;writing-mode:lr-tb;fill:#000000;fill-opacity:1;fill-rule:nonzero;stroke:none"
         transform="matrix(1,0,0,-1,510.47,117.28)"><tspan
           id="tspan416"
           y="0"
           x="0">0</tspan></text>
<text
         id="text422"
         style="font-variant:normal;font-weight:normal;font-size:7px;font-family:Helvetica;-inkscape-font-specification:Helvetica;writing-mode:lr-tb;fill:#000000;fill-opacity:1;fill-rule:nonzero;stroke:none"
         transform="matrix(1,0,0,-1,510.47,149.19)"><tspan
           id="tspan420"
           y="0"
           x="0 3.892">10</tspan></text>
<text
         id="text426"
         style="font-variant:normal;font-weight:normal;font-size:7px;font-family:Helvetica;-inkscape-font-specification:Helvetica;writing-mode:lr-tb;fill:#000000;fill-opacity:1;fill-rule:nonzero;stroke:none"
         transform="matrix(1,0,0,-1,510.47,181.11)"><tspan
           id="tspan424"
           y="0"
           x="0 3.892">20</tspan></text>
<text
         id="text430"
         style="font-variant:normal;font-weight:normal;font-size:7px;font-family:Helvetica;-inkscape-font-specification:Helvetica;writing-mode:lr-tb;fill:#000000;fill-opacity:1;fill-rule:nonzero;stroke:none"
         transform="matrix(1,0,0,-1,510.47,213.02)"><tspan
           id="tspan428"
           y="0"
           x="0 3.892">30</tspan></text>
<text
         id="text434"
         style="font-variant:normal;font-weight:normal;font-size:7px;font-family:Helvetica;-inkscape-font-specification:Helvetica;writing-mode:lr-tb;fill:#000000;fill-opacity:1;fill-rule:nonzero;stroke:none"
         transform="matrix(1,0,0,-1,510.47,244.93)"><tspan
           id="tspan432"
           y="0"
           x="0 3.892">40</tspan></text>
</g><g
       id="g436" /><g
       id="g438" /></g></svg>