<?xml version="1.0" encoding="UTF-8" standalone="no"?>
<svg
   xmlns:dc="http://purl.org/dc/elements/1.1/"
   xmlns:cc="http://creativecommons.org/ns#"
   xmlns:rdf="http://www.w3.org/1999/02/22-rdf-syntax-ns#"
   xmlns:svg="http://www.w3.org/2000/svg"
   xmlns="http://www.w3.org/2000/svg"
   version="1.1"
   id="svg2"
   xml:space="preserve"
   width="336"
   height="222.66667"
   viewBox="0 0 336 222.66667"><metadata
     id="metadata8"><rdf:RDF><cc:Work
         rdf:about=""><dc:format>image/svg+xml</dc:format><dc:type
           rdf:resource="http://purl.org/dc/dcmitype/StillImage" /></cc:Work></rdf:RDF></metadata><defs
     id="defs6"><clipPath
       clipPathUnits="userSpaceOnUse"
       id="clipPath62"><path
         d="m 31.39,25.34 h 163.4 V 161.76 H 31.39 Z"
         id="path60" /></clipPath></defs><g
     id="g10"
     transform="matrix(1.3333333,0,0,-1.3333333,0,222.66667)"><g
       id="g12"><path
         d="M 0,0 H 252.28 V 167.24 H 0 Z"
         style="fill:#ffffff;fill-opacity:1;fill-rule:nonzero;stroke:none"
         id="path14" /></g><g
       id="g16" /><g
       id="g18" /><g
       id="g20" /><g
       id="g22" /><g
       id="g24" /><g
       id="g26" /><g
       id="g28" /><g
       id="g30" /><g
       id="g32" /><g
       id="g34" /><g
       id="g36" /><g
       id="g38" /><g
       id="g40" /><g
       id="g42" /><g
       id="g44" /><g
       id="g46" /><g
       id="g48" /><g
       id="g50"><path
         d="M 0,0 H 252.28 V 167.24 H 0 Z"
         style="fill:#ffffff;fill-opacity:1;fill-rule:nonzero;stroke:#ffffff;stroke-width:1.07;stroke-linecap:round;stroke-linejoin:round;stroke-miterlimit:10;stroke-dasharray:none;stroke-opacity:1"
         id="path52" /></g><g
       id="g54" /><g
       id="g56"><g
         id="g58"
         clip-path="url(#clipPath62)"><path
           d="m 31.39,25.34 h 163.4 V 161.76 H 31.39 Z"
           style="fill:#ffffff;fill-opacity:1;fill-rule:nonzero;stroke:none"
           id="path64" /><path
           d="m 62.03,96.36 v 19.07"
           style="fill:none;stroke:#f8766d;stroke-width:1.49;stroke-linecap:butt;stroke-linejoin:round;stroke-miterlimit:10;stroke-dasharray:none;stroke-opacity:1"
           id="path66" /><path
           d="M 62.03,57.1 V 31.83"
           style="fill:none;stroke:#f8766d;stroke-width:1.49;stroke-linecap:butt;stroke-linejoin:round;stroke-miterlimit:10;stroke-dasharray:none;stroke-opacity:1"
           id="path68" /><path
           d="M 49.26,96.36 V 57.1 h 25.53 v 39.26 z"
           style="fill:#ffffff;fill-opacity:1;fill-rule:nonzero;stroke:#f8766d;stroke-width:1.49;stroke-linecap:round;stroke-linejoin:round;stroke-miterlimit:10;stroke-dasharray:none;stroke-opacity:1"
           id="path70" /><path
           d="M 49.26,75.91 H 74.79"
           style="fill:none;stroke:#f8766d;stroke-width:2.99;stroke-linecap:butt;stroke-linejoin:round;stroke-miterlimit:10;stroke-dasharray:none;stroke-opacity:1"
           id="path72" /><path
           d="m 113.09,142.23 v 7.44"
           style="fill:none;stroke:#00ba38;stroke-width:1.49;stroke-linecap:butt;stroke-linejoin:round;stroke-miterlimit:10;stroke-dasharray:none;stroke-opacity:1"
           id="path74" /><path
           d="M 113.09,110.57 V 93.27"
           style="fill:none;stroke:#00ba38;stroke-width:1.49;stroke-linecap:butt;stroke-linejoin:round;stroke-miterlimit:10;stroke-dasharray:none;stroke-opacity:1"
           id="path76" /><path
           d="m 100.33,142.23 v -31.66 h 25.53 v 31.66 z"
           style="fill:#ffffff;fill-opacity:1;fill-rule:nonzero;stroke:#00ba38;stroke-width:1.49;stroke-linecap:round;stroke-linejoin:round;stroke-miterlimit:10;stroke-dasharray:none;stroke-opacity:1"
           id="path78" /><path
           d="m 100.33,126.95 h 25.53"
           style="fill:none;stroke:#00ba38;stroke-width:2.99;stroke-linecap:butt;stroke-linejoin:round;stroke-miterlimit:10;stroke-dasharray:none;stroke-opacity:1"
           id="path80" /><path
           d="m 164.15,107.74 v 16.98"
           style="fill:none;stroke:#619cff;stroke-width:1.49;stroke-linecap:butt;stroke-linejoin:round;stroke-miterlimit:10;stroke-dasharray:none;stroke-opacity:1"
           id="path82" /><path
           d="M 164.15,69.37 V 59.5"
           style="fill:none;stroke:#619cff;stroke-width:1.49;stroke-linecap:butt;stroke-linejoin:round;stroke-miterlimit:10;stroke-dasharray:none;stroke-opacity:1"
           id="path84" /><path
           d="M 151.39,107.74 V 69.37 h 25.53 v 38.37 z"
           style="fill:#ffffff;fill-opacity:1;fill-rule:nonzero;stroke:#619cff;stroke-width:1.49;stroke-linecap:round;stroke-linejoin:round;stroke-miterlimit:10;stroke-dasharray:none;stroke-opacity:1"
           id="path86" /><path
           d="m 151.39,98.38 h 25.53"
           style="fill:none;stroke:#619cff;stroke-width:2.99;stroke-linecap:butt;stroke-linejoin:round;stroke-miterlimit:10;stroke-dasharray:none;stroke-opacity:1"
           id="path88" /><text
           transform="matrix(1,0,0,-1,58.97,117.38)"
           style="font-variant:normal;font-weight:normal;font-size:11px;font-family:Helvetica;-inkscape-font-specification:Helvetica;writing-mode:lr-tb;fill:#f8766d;fill-opacity:1;fill-rule:nonzero;stroke:none"
           id="text92"><tspan
             x="0"
             y="0"
             id="tspan90">b</tspan></text><text
           transform="matrix(1,0,0,-1,58.97,117.38)"
           style="font-variant:normal;font-weight:normal;font-size:11px;font-family:Helvetica;-inkscape-font-specification:Helvetica;writing-mode:lr-tb;fill:#f8766d;fill-opacity:1;fill-rule:nonzero;stroke:none"
           id="text96"><tspan
             x="0"
             y="0"
             id="tspan94">b</tspan></text><text
           transform="matrix(1,0,0,-1,58.97,117.38)"
           style="font-variant:normal;font-weight:normal;font-size:11px;font-family:Helvetica;-inkscape-font-specification:Helvetica;writing-mode:lr-tb;fill:#f8766d;fill-opacity:1;fill-rule:nonzero;stroke:none"
           id="text100"><tspan
             x="0"
             y="0"
             id="tspan98">b</tspan></text><text
           transform="matrix(1,0,0,-1,58.97,117.38)"
           style="font-variant:normal;font-weight:normal;font-size:11px;font-family:Helvetica;-inkscape-font-specification:Helvetica;writing-mode:lr-tb;fill:#f8766d;fill-opacity:1;fill-rule:nonzero;stroke:none"
           id="text104"><tspan
             x="0"
             y="0"
             id="tspan102">b</tspan></text><text
           transform="matrix(1,0,0,-1,58.97,117.38)"
           style="font-variant:normal;font-weight:normal;font-size:11px;font-family:Helvetica;-inkscape-font-specification:Helvetica;writing-mode:lr-tb;fill:#f8766d;fill-opacity:1;fill-rule:nonzero;stroke:none"
           id="text108"><tspan
             x="0"
             y="0"
             id="tspan106">b</tspan></text><text
           transform="matrix(1,0,0,-1,58.97,117.38)"
           style="font-variant:normal;font-weight:normal;font-size:11px;font-family:Helvetica;-inkscape-font-specification:Helvetica;writing-mode:lr-tb;fill:#f8766d;fill-opacity:1;fill-rule:nonzero;stroke:none"
           id="text112"><tspan
             x="0"
             y="0"
             id="tspan110">b</tspan></text><text
           transform="matrix(1,0,0,-1,110.03,151.61)"
           style="font-variant:normal;font-weight:normal;font-size:11px;font-family:Helvetica;-inkscape-font-specification:Helvetica;writing-mode:lr-tb;fill:#00ba38;fill-opacity:1;fill-rule:nonzero;stroke:none"
           id="text116"><tspan
             x="0"
             y="0"
             id="tspan114">a</tspan></text><text
           transform="matrix(1,0,0,-1,110.03,151.61)"
           style="font-variant:normal;font-weight:normal;font-size:11px;font-family:Helvetica;-inkscape-font-specification:Helvetica;writing-mode:lr-tb;fill:#00ba38;fill-opacity:1;fill-rule:nonzero;stroke:none"
           id="text120"><tspan
             x="0"
             y="0"
             id="tspan118">a</tspan></text><text
           transform="matrix(1,0,0,-1,110.03,151.61)"
           style="font-variant:normal;font-weight:normal;font-size:11px;font-family:Helvetica;-inkscape-font-specification:Helvetica;writing-mode:lr-tb;fill:#00ba38;fill-opacity:1;fill-rule:nonzero;stroke:none"
           id="text124"><tspan
             x="0"
             y="0"
             id="tspan122">a</tspan></text><text
           transform="matrix(1,0,0,-1,110.03,151.61)"
           style="font-variant:normal;font-weight:normal;font-size:11px;font-family:Helvetica;-inkscape-font-specification:Helvetica;writing-mode:lr-tb;fill:#00ba38;fill-opacity:1;fill-rule:nonzero;stroke:none"
           id="text128"><tspan
             x="0"
             y="0"
             id="tspan126">a</tspan></text><text
           transform="matrix(1,0,0,-1,110.03,151.61)"
           style="font-variant:normal;font-weight:normal;font-size:11px;font-family:Helvetica;-inkscape-font-specification:Helvetica;writing-mode:lr-tb;fill:#00ba38;fill-opacity:1;fill-rule:nonzero;stroke:none"
           id="text132"><tspan
             x="0"
             y="0"
             id="tspan130">a</tspan></text><text
           transform="matrix(1,0,0,-1,110.03,151.61)"
           style="font-variant:normal;font-weight:normal;font-size:11px;font-family:Helvetica;-inkscape-font-specification:Helvetica;writing-mode:lr-tb;fill:#00ba38;fill-opacity:1;fill-rule:nonzero;stroke:none"
           id="text136"><tspan
             x="0"
             y="0"
             id="tspan134">a</tspan></text><text
           transform="matrix(1,0,0,-1,158.04,126.67)"
           style="font-variant:normal;font-weight:normal;font-size:11px;font-family:Helvetica;-inkscape-font-specification:Helvetica;writing-mode:lr-tb;fill:#619cff;fill-opacity:1;fill-rule:nonzero;stroke:none"
           id="text140"><tspan
             x="0 6.1160002"
             y="0"
             id="tspan138">ab</tspan></text><text
           transform="matrix(1,0,0,-1,158.04,126.67)"
           style="font-variant:normal;font-weight:normal;font-size:11px;font-family:Helvetica;-inkscape-font-specification:Helvetica;writing-mode:lr-tb;fill:#619cff;fill-opacity:1;fill-rule:nonzero;stroke:none"
           id="text144"><tspan
             x="0 6.1160002"
             y="0"
             id="tspan142">ab</tspan></text><text
           transform="matrix(1,0,0,-1,158.04,126.67)"
           style="font-variant:normal;font-weight:normal;font-size:11px;font-family:Helvetica;-inkscape-font-specification:Helvetica;writing-mode:lr-tb;fill:#619cff;fill-opacity:1;fill-rule:nonzero;stroke:none"
           id="text148"><tspan
             x="0 6.1160002"
             y="0"
             id="tspan146">ab</tspan></text><text
           transform="matrix(1,0,0,-1,158.04,126.67)"
           style="font-variant:normal;font-weight:normal;font-size:11px;font-family:Helvetica;-inkscape-font-specification:Helvetica;writing-mode:lr-tb;fill:#619cff;fill-opacity:1;fill-rule:nonzero;stroke:none"
           id="text152"><tspan
             x="0 6.1160002"
             y="0"
             id="tspan150">ab</tspan></text><text
           transform="matrix(1,0,0,-1,158.04,126.67)"
           style="font-variant:normal;font-weight:normal;font-size:11px;font-family:Helvetica;-inkscape-font-specification:Helvetica;writing-mode:lr-tb;fill:#619cff;fill-opacity:1;fill-rule:nonzero;stroke:none"
           id="text156"><tspan
             x="0 6.1160002"
             y="0"
             id="tspan154">ab</tspan></text><text
           transform="matrix(1,0,0,-1,158.04,126.67)"
           style="font-variant:normal;font-weight:normal;font-size:11px;font-family:Helvetica;-inkscape-font-specification:Helvetica;writing-mode:lr-tb;fill:#619cff;fill-opacity:1;fill-rule:nonzero;stroke:none"
           id="text160"><tspan
             x="0 6.1160002"
             y="0"
             id="tspan158">ab</tspan></text><path
           d="m 59.79,98.92 c 0,0.79 0.64,1.43 1.42,1.43 0.78,0 1.42,-0.64 1.42,-1.43 0,-0.78 -0.64,-1.42 -1.42,-1.42 -0.78,0 -1.42,0.64 -1.42,1.42"
           style="fill:#f8766d;fill-opacity:0.698;fill-rule:nonzero;stroke:#f8766d;stroke-width:0.71;stroke-linecap:round;stroke-linejoin:round;stroke-miterlimit:10;stroke-dasharray:none;stroke-opacity:0.698"
           id="path162" /><path
           d="m 53.79,115.35 c 0,0.78 0.64,1.42 1.42,1.42 0.79,0 1.43,-0.64 1.43,-1.42 0,-0.78 -0.64,-1.42 -1.43,-1.42 -0.78,0 -1.42,0.64 -1.42,1.42"
           style="fill:#f8766d;fill-opacity:0.698;fill-rule:nonzero;stroke:#f8766d;stroke-width:0.71;stroke-linecap:round;stroke-linejoin:round;stroke-miterlimit:10;stroke-dasharray:none;stroke-opacity:0.698"
           id="path164" /><path
           d="m 66.09,54.86 c 0,0.78 0.64,1.42 1.42,1.42 0.78,0 1.42,-0.64 1.42,-1.42 0,-0.78 -0.64,-1.42 -1.42,-1.42 -0.78,0 -1.42,0.64 -1.42,1.42"
           style="fill:#f8766d;fill-opacity:0.698;fill-rule:nonzero;stroke:#f8766d;stroke-width:0.71;stroke-linecap:round;stroke-linejoin:round;stroke-miterlimit:10;stroke-dasharray:none;stroke-opacity:0.698"
           id="path166" /><path
           d="m 53.4,64.15 c 0,0.78 0.64,1.42 1.42,1.42 0.78,0 1.42,-0.64 1.42,-1.42 0,-0.79 -0.64,-1.43 -1.42,-1.43 -0.78,0 -1.42,0.64 -1.42,1.43"
           style="fill:#f8766d;fill-opacity:0.698;fill-rule:nonzero;stroke:#f8766d;stroke-width:0.71;stroke-linecap:round;stroke-linejoin:round;stroke-miterlimit:10;stroke-dasharray:none;stroke-opacity:0.698"
           id="path168" /><path
           d="m 66.71,31.55 c 0,0.78 0.64,1.42 1.42,1.42 0.78,0 1.42,-0.64 1.42,-1.42 0,-0.79 -0.64,-1.43 -1.42,-1.43 -0.78,0 -1.42,0.64 -1.42,1.43"
           style="fill:#f8766d;fill-opacity:0.698;fill-rule:nonzero;stroke:#f8766d;stroke-width:0.71;stroke-linecap:round;stroke-linejoin:round;stroke-miterlimit:10;stroke-dasharray:none;stroke-opacity:0.698"
           id="path170" /><path
           d="m 55.53,87.89 c 0,0.78 0.64,1.42 1.42,1.42 0.78,0 1.42,-0.64 1.42,-1.42 0,-0.78 -0.64,-1.42 -1.42,-1.42 -0.78,0 -1.42,0.64 -1.42,1.42"
           style="fill:#f8766d;fill-opacity:0.698;fill-rule:nonzero;stroke:#f8766d;stroke-width:0.71;stroke-linecap:round;stroke-linejoin:round;stroke-miterlimit:10;stroke-dasharray:none;stroke-opacity:0.698"
           id="path172" /><path
           d="m 104.23,149.66 c 0,0.78 0.64,1.42 1.42,1.42 0.78,0 1.42,-0.64 1.42,-1.42 0,-0.79 -0.64,-1.43 -1.42,-1.43 -0.78,0 -1.42,0.64 -1.42,1.43"
           style="fill:#00ba38;fill-opacity:0.698;fill-rule:nonzero;stroke:#00ba38;stroke-width:0.71;stroke-linecap:round;stroke-linejoin:round;stroke-miterlimit:10;stroke-dasharray:none;stroke-opacity:0.698"
           id="path174" /><path
           d="m 112.35,128.2 c 0,0.79 0.64,1.42 1.42,1.42 0.78,0 1.42,-0.63 1.42,-1.42 0,-0.78 -0.64,-1.42 -1.42,-1.42 -0.78,0 -1.42,0.64 -1.42,1.42"
           style="fill:#00ba38;fill-opacity:0.698;fill-rule:nonzero;stroke:#00ba38;stroke-width:0.71;stroke-linecap:round;stroke-linejoin:round;stroke-miterlimit:10;stroke-dasharray:none;stroke-opacity:0.698"
           id="path176" /><path
           d="m 119.93,93.44 c 0,0.78 0.64,1.42 1.42,1.42 0.78,0 1.42,-0.64 1.42,-1.42 0,-0.78 -0.64,-1.42 -1.42,-1.42 -0.78,0 -1.42,0.64 -1.42,1.42"
           style="fill:#00ba38;fill-opacity:0.698;fill-rule:nonzero;stroke:#00ba38;stroke-width:0.71;stroke-linecap:round;stroke-linejoin:round;stroke-miterlimit:10;stroke-dasharray:none;stroke-opacity:0.698"
           id="path178" /><path
           d="m 104.08,105.5 c 0,0.79 0.64,1.43 1.42,1.43 0.79,0 1.43,-0.64 1.43,-1.43 0,-0.78 -0.64,-1.42 -1.43,-1.42 -0.78,0 -1.42,0.64 -1.42,1.42"
           style="fill:#00ba38;fill-opacity:0.698;fill-rule:nonzero;stroke:#00ba38;stroke-width:0.71;stroke-linecap:round;stroke-linejoin:round;stroke-miterlimit:10;stroke-dasharray:none;stroke-opacity:0.698"
           id="path180" /><path
           d="m 114,125.84 c 0,0.79 0.64,1.42 1.42,1.42 0.79,0 1.42,-0.63 1.42,-1.42 0,-0.78 -0.63,-1.42 -1.42,-1.42 -0.78,0 -1.42,0.64 -1.42,1.42"
           style="fill:#00ba38;fill-opacity:0.698;fill-rule:nonzero;stroke:#00ba38;stroke-width:0.71;stroke-linecap:round;stroke-linejoin:round;stroke-miterlimit:10;stroke-dasharray:none;stroke-opacity:0.698"
           id="path182" /><path
           d="m 117.58,146.64 c 0,0.78 0.64,1.42 1.42,1.42 0.78,0 1.42,-0.64 1.42,-1.42 0,-0.78 -0.64,-1.42 -1.42,-1.42 -0.78,0 -1.42,0.64 -1.42,1.42"
           style="fill:#00ba38;fill-opacity:0.698;fill-rule:nonzero;stroke:#00ba38;stroke-width:0.71;stroke-linecap:round;stroke-linejoin:round;stroke-miterlimit:10;stroke-dasharray:none;stroke-opacity:0.698"
           id="path184" /><path
           d="m 168.75,89.36 c 0,0.78 0.64,1.42 1.42,1.42 0.78,0 1.42,-0.64 1.42,-1.42 0,-0.78 -0.64,-1.42 -1.42,-1.42 -0.78,0 -1.42,0.64 -1.42,1.42"
           style="fill:#619cff;fill-opacity:0.698;fill-rule:nonzero;stroke:#619cff;stroke-width:0.71;stroke-linecap:round;stroke-linejoin:round;stroke-miterlimit:10;stroke-dasharray:none;stroke-opacity:0.698"
           id="path186" /><path
           d="m 170.53,59.74 c 0,0.78 0.64,1.42 1.42,1.42 0.78,0 1.42,-0.64 1.42,-1.42 0,-0.78 -0.64,-1.42 -1.42,-1.42 -0.78,0 -1.42,0.64 -1.42,1.42"
           style="fill:#619cff;fill-opacity:0.698;fill-rule:nonzero;stroke:#619cff;stroke-width:0.71;stroke-linecap:round;stroke-linejoin:round;stroke-miterlimit:10;stroke-dasharray:none;stroke-opacity:0.698"
           id="path188" /><path
           d="m 163.96,124.54 c 0,0.78 0.64,1.42 1.43,1.42 0.78,0 1.42,-0.64 1.42,-1.42 0,-0.79 -0.64,-1.43 -1.42,-1.43 -0.79,0 -1.43,0.64 -1.43,1.43"
           style="fill:#619cff;fill-opacity:0.698;fill-rule:nonzero;stroke:#619cff;stroke-width:0.71;stroke-linecap:round;stroke-linejoin:round;stroke-miterlimit:10;stroke-dasharray:none;stroke-opacity:0.698"
           id="path190" /><path
           d="m 156.25,107.71 c 0,0.78 0.64,1.42 1.43,1.42 0.78,0 1.42,-0.64 1.42,-1.42 0,-0.79 -0.64,-1.43 -1.42,-1.43 -0.79,0 -1.43,0.64 -1.43,1.43"
           style="fill:#619cff;fill-opacity:0.698;fill-rule:nonzero;stroke:#619cff;stroke-width:0.71;stroke-linecap:round;stroke-linejoin:round;stroke-miterlimit:10;stroke-dasharray:none;stroke-opacity:0.698"
           id="path192" /><path
           d="m 165.71,62.81 c 0,0.79 0.64,1.43 1.42,1.43 0.79,0 1.42,-0.64 1.42,-1.43 0,-0.78 -0.63,-1.42 -1.42,-1.42 -0.78,0 -1.42,0.64 -1.42,1.42"
           style="fill:#619cff;fill-opacity:0.698;fill-rule:nonzero;stroke:#619cff;stroke-width:0.71;stroke-linecap:round;stroke-linejoin:round;stroke-miterlimit:10;stroke-dasharray:none;stroke-opacity:0.698"
           id="path194" /><path
           d="m 155.28,107.33 c 0,0.78 0.64,1.42 1.42,1.42 0.78,0 1.42,-0.64 1.42,-1.42 0,-0.78 -0.64,-1.42 -1.42,-1.42 -0.78,0 -1.42,0.64 -1.42,1.42"
           style="fill:#619cff;fill-opacity:0.698;fill-rule:nonzero;stroke:#619cff;stroke-width:0.71;stroke-linecap:round;stroke-linejoin:round;stroke-miterlimit:10;stroke-dasharray:none;stroke-opacity:0.698"
           id="path196" /></g></g><g
       id="g198" /><g
       id="g200" /><g
       id="g202" /><g
       id="g204" /><g
       id="g206" /><g
       id="g208" /><g
       id="g210" /><g
       id="g212" /><g
       id="g214" /><g
       id="g216" /><g
       id="g218" /><g
       id="g220" /><g
       id="g222"><path
         d="M 31.39,25.34 V 161.76"
         style="fill:none;stroke:#000000;stroke-width:1.07;stroke-linecap:butt;stroke-linejoin:round;stroke-miterlimit:10;stroke-dasharray:none;stroke-opacity:1"
         id="path224" /></g><g
       id="g226" /><g
       id="g228" /><g
       id="g230"><text
         transform="matrix(1,0,0,-1,14.79,49.61)"
         style="font-variant:normal;font-weight:normal;font-size:6px;font-family:Helvetica;-inkscape-font-specification:Helvetica;writing-mode:lr-tb;fill:#4d4d4d;fill-opacity:1;fill-rule:nonzero;stroke:none"
         id="text234"><tspan
           x="0 3.336 5.0040002 8.3400002"
           y="0"
           id="tspan232">5.50</tspan></text><text
         transform="matrix(1,0,0,-1,14.79,84.87)"
         style="font-variant:normal;font-weight:normal;font-size:6px;font-family:Helvetica;-inkscape-font-specification:Helvetica;writing-mode:lr-tb;fill:#4d4d4d;fill-opacity:1;fill-rule:nonzero;stroke:none"
         id="text238"><tspan
           x="0 3.336 5.0040002 8.3400002"
           y="0"
           id="tspan236">5.75</tspan></text><text
         transform="matrix(1,0,0,-1,14.79,120.14)"
         style="font-variant:normal;font-weight:normal;font-size:6px;font-family:Helvetica;-inkscape-font-specification:Helvetica;writing-mode:lr-tb;fill:#4d4d4d;fill-opacity:1;fill-rule:nonzero;stroke:none"
         id="text242"><tspan
           x="0 3.336 5.0040002 8.3400002"
           y="0"
           id="tspan240">6.00</tspan></text><text
         transform="matrix(1,0,0,-1,14.79,155.4)"
         style="font-variant:normal;font-weight:normal;font-size:6px;font-family:Helvetica;-inkscape-font-specification:Helvetica;writing-mode:lr-tb;fill:#4d4d4d;fill-opacity:1;fill-rule:nonzero;stroke:none"
         id="text246"><tspan
           x="0 3.336 5.0040002 8.3400002"
           y="0"
           id="tspan244">6.25</tspan></text></g><g
       id="g248" /><g
       id="g250"><path
         d="m 28.65,51.76 h 2.74"
         style="fill:none;stroke:#333333;stroke-width:1.07;stroke-linecap:butt;stroke-linejoin:round;stroke-miterlimit:10;stroke-dasharray:none;stroke-opacity:1"
         id="path252" /><path
         d="m 28.65,87.03 h 2.74"
         style="fill:none;stroke:#333333;stroke-width:1.07;stroke-linecap:butt;stroke-linejoin:round;stroke-miterlimit:10;stroke-dasharray:none;stroke-opacity:1"
         id="path254" /><path
         d="m 28.65,122.29 h 2.74"
         style="fill:none;stroke:#333333;stroke-width:1.07;stroke-linecap:butt;stroke-linejoin:round;stroke-miterlimit:10;stroke-dasharray:none;stroke-opacity:1"
         id="path256" /><path
         d="m 28.65,157.56 h 2.74"
         style="fill:none;stroke:#333333;stroke-width:1.07;stroke-linecap:butt;stroke-linejoin:round;stroke-miterlimit:10;stroke-dasharray:none;stroke-opacity:1"
         id="path258" /></g><g
       id="g260" /><g
       id="g262" /><g
       id="g264" /><g
       id="g266" /><g
       id="g268" /><g
       id="g270" /><g
       id="g272"><path
         d="m 31.39,25.34 h 163.4"
         style="fill:none;stroke:#000000;stroke-width:1.07;stroke-linecap:butt;stroke-linejoin:round;stroke-miterlimit:10;stroke-dasharray:none;stroke-opacity:1"
         id="path274" /></g><g
       id="g276" /><g
       id="g278" /><g
       id="g280"><path
         d="m 62.03,22.6 v 2.74"
         style="fill:none;stroke:#333333;stroke-width:1.07;stroke-linecap:butt;stroke-linejoin:round;stroke-miterlimit:10;stroke-dasharray:none;stroke-opacity:1"
         id="path282" /><path
         d="m 113.09,22.6 v 2.74"
         style="fill:none;stroke:#333333;stroke-width:1.07;stroke-linecap:butt;stroke-linejoin:round;stroke-miterlimit:10;stroke-dasharray:none;stroke-opacity:1"
         id="path284" /><path
         d="m 164.15,22.6 v 2.74"
         style="fill:none;stroke:#333333;stroke-width:1.07;stroke-linecap:butt;stroke-linejoin:round;stroke-miterlimit:10;stroke-dasharray:none;stroke-opacity:1"
         id="path286" /></g><g
       id="g288" /><g
       id="g290"><text
         transform="matrix(1,0,0,-1,57.84,16.11)"
         style="font-variant:normal;font-weight:normal;font-size:6px;font-family:Helvetica;-inkscape-font-specification:Helvetica;writing-mode:lr-tb;fill:#4d4d4d;fill-opacity:1;fill-rule:nonzero;stroke:none"
         id="text294"><tspan
           x="0 3.7019999"
           y="0"
           id="tspan292">KO</tspan></text><text
         transform="matrix(1,0,0,-1,108.76,16.11)"
         style="font-variant:normal;font-weight:normal;font-size:6px;font-family:Helvetica;-inkscape-font-specification:Helvetica;writing-mode:lr-tb;fill:#4d4d4d;fill-opacity:1;fill-rule:nonzero;stroke:none"
         id="text298"><tspan
           x="0 4.6680002"
           y="0"
           id="tspan296">OE</tspan></text><text
         transform="matrix(1,0,0,-1,159.49,16.11)"
         style="font-variant:normal;font-weight:normal;font-size:6px;font-family:Helvetica;-inkscape-font-specification:Helvetica;writing-mode:lr-tb;fill:#4d4d4d;fill-opacity:1;fill-rule:nonzero;stroke:none"
         id="text302"><tspan
           x="0 5.664"
           y="0"
           id="tspan300">WT</tspan></text></g><g
       id="g304" /><g
       id="g306" /><g
       id="g308" /><g
       id="g310" /><g
       id="g312" /><g
       id="g314"><text
         transform="matrix(1,0,0,-1,101.61,7.02)"
         style="font-variant:normal;font-weight:normal;font-size:7px;font-family:Helvetica;-inkscape-font-specification:Helvetica;writing-mode:lr-tb;fill:#000000;fill-opacity:1;fill-rule:nonzero;stroke:none"
         id="text318"><tspan
           x="0 5.4460001 7.777 11.669 15.561 19.452999"
           y="0"
           id="tspan316">Groups</tspan></text></g><g
       id="g320" /><g
       id="g322"><text
         transform="matrix(0,1,1,0,10.51,70.9)"
         style="font-variant:normal;font-weight:normal;font-size:7px;font-family:Helvetica;-inkscape-font-specification:Helvetica;writing-mode:lr-tb;fill:#000000;fill-opacity:1;fill-rule:nonzero;stroke:none"
         id="text326"><tspan
           x="0 3.5 7.3920002 11.284 15.176 19.068001 22.959999 26.851999 28.798 30.351999 34.243999 38.136002 41.818001"
           y="0"
           id="tspan324">shannon index</tspan></text></g><g
       id="g328" /><g
       id="g330" /><g
       id="g332" /><g
       id="g334" /><g
       id="g336" /><g
       id="g338" /><g
       id="g340" /><g
       id="g342"><path
         d="m 205.75,57.13 h 41.06 v 72.85 h -41.06 z"
         style="fill:#ffffff;fill-opacity:1;fill-rule:nonzero;stroke:none"
         id="path344" /></g><g
       id="g346" /><g
       id="g348" /><g
       id="g350" /><g
       id="g352"><text
         transform="matrix(1,0,0,-1,211.23,118.71)"
         style="font-variant:normal;font-weight:normal;font-size:7px;font-family:Helvetica;-inkscape-font-specification:Helvetica;writing-mode:lr-tb;fill:#000000;fill-opacity:1;fill-rule:nonzero;stroke:none"
         id="text356"><tspan
           x="0 5.4460001 7.777 11.669 15.561"
           y="0"
           id="tspan354">Group</tspan></text></g><g
       id="g358" /><g
       id="g360" /><g
       id="g362" /><g
       id="g364" /><g
       id="g366"><path
         d="m 219.87,98.9 v 2.59"
         style="fill:none;stroke:#f8766d;stroke-width:1.49;stroke-linecap:round;stroke-linejoin:round;stroke-miterlimit:10;stroke-dasharray:none;stroke-opacity:1"
         id="path368" /><path
         d="m 219.87,110.13 v 2.59"
         style="fill:none;stroke:#f8766d;stroke-width:1.49;stroke-linecap:round;stroke-linejoin:round;stroke-miterlimit:10;stroke-dasharray:none;stroke-opacity:1"
         id="path370" /><path
         d="m 213.39,101.49 h 12.96 v 8.64 h -12.96 z"
         style="fill:#ffffff;fill-opacity:1;fill-rule:nonzero;stroke:#f8766d;stroke-width:1.49;stroke-linecap:round;stroke-linejoin:round;stroke-miterlimit:10;stroke-dasharray:none;stroke-opacity:1"
         id="path372" /><path
         d="m 213.39,105.81 h 12.96"
         style="fill:none;stroke:#f8766d;stroke-width:1.49;stroke-linecap:round;stroke-linejoin:round;stroke-miterlimit:10;stroke-dasharray:none;stroke-opacity:1"
         id="path374" /></g><g
       id="g376" /><g
       id="g378"><text
         transform="matrix(1,0,0,-1,216.81,101.86)"
         style="font-variant:normal;font-weight:normal;font-size:11px;font-family:Helvetica;-inkscape-font-specification:Helvetica;writing-mode:lr-tb;fill:#f8766d;fill-opacity:1;fill-rule:nonzero;stroke:none"
         id="text382"><tspan
           x="0"
           y="0"
           id="tspan380">a</tspan></text></g><g
       id="g384" /><g
       id="g386"><path
         d="m 218.45,105.81 c 0,0.78 0.64,1.42 1.42,1.42 0.78,0 1.42,-0.64 1.42,-1.42 0,-0.78 -0.64,-1.42 -1.42,-1.42 -0.78,0 -1.42,0.64 -1.42,1.42"
         style="fill:#f8766d;fill-opacity:0.698;fill-rule:nonzero;stroke:#f8766d;stroke-width:0.71;stroke-linecap:round;stroke-linejoin:round;stroke-miterlimit:10;stroke-dasharray:none;stroke-opacity:0.698"
         id="path388" /></g><g
       id="g390" /><g
       id="g392" /><g
       id="g394" /><g
       id="g396"><path
         d="m 219.87,81.62 v 2.59"
         style="fill:none;stroke:#00ba38;stroke-width:1.49;stroke-linecap:round;stroke-linejoin:round;stroke-miterlimit:10;stroke-dasharray:none;stroke-opacity:1"
         id="path398" /><path
         d="m 219.87,92.85 v 2.59"
         style="fill:none;stroke:#00ba38;stroke-width:1.49;stroke-linecap:round;stroke-linejoin:round;stroke-miterlimit:10;stroke-dasharray:none;stroke-opacity:1"
         id="path400" /><path
         d="m 213.39,84.21 h 12.96 v 8.64 h -12.96 z"
         style="fill:#ffffff;fill-opacity:1;fill-rule:nonzero;stroke:#00ba38;stroke-width:1.49;stroke-linecap:round;stroke-linejoin:round;stroke-miterlimit:10;stroke-dasharray:none;stroke-opacity:1"
         id="path402" /><path
         d="m 213.39,88.53 h 12.96"
         style="fill:none;stroke:#00ba38;stroke-width:1.49;stroke-linecap:round;stroke-linejoin:round;stroke-miterlimit:10;stroke-dasharray:none;stroke-opacity:1"
         id="path404" /></g><g
       id="g406" /><g
       id="g408"><text
         transform="matrix(1,0,0,-1,216.81,84.58)"
         style="font-variant:normal;font-weight:normal;font-size:11px;font-family:Helvetica;-inkscape-font-specification:Helvetica;writing-mode:lr-tb;fill:#00ba38;fill-opacity:1;fill-rule:nonzero;stroke:none"
         id="text412"><tspan
           x="0"
           y="0"
           id="tspan410">a</tspan></text></g><g
       id="g414" /><g
       id="g416"><path
         d="m 218.45,88.53 c 0,0.78 0.64,1.42 1.42,1.42 0.78,0 1.42,-0.64 1.42,-1.42 0,-0.78 -0.64,-1.42 -1.42,-1.42 -0.78,0 -1.42,0.64 -1.42,1.42"
         style="fill:#00ba38;fill-opacity:0.698;fill-rule:nonzero;stroke:#00ba38;stroke-width:0.71;stroke-linecap:round;stroke-linejoin:round;stroke-miterlimit:10;stroke-dasharray:none;stroke-opacity:0.698"
         id="path418" /></g><g
       id="g420" /><g
       id="g422" /><g
       id="g424" /><g
       id="g426"><path
         d="m 219.87,64.34 v 2.59"
         style="fill:none;stroke:#619cff;stroke-width:1.49;stroke-linecap:round;stroke-linejoin:round;stroke-miterlimit:10;stroke-dasharray:none;stroke-opacity:1"
         id="path428" /><path
         d="m 219.87,75.57 v 2.59"
         style="fill:none;stroke:#619cff;stroke-width:1.49;stroke-linecap:round;stroke-linejoin:round;stroke-miterlimit:10;stroke-dasharray:none;stroke-opacity:1"
         id="path430" /><path
         d="m 213.39,66.93 h 12.96 v 8.64 h -12.96 z"
         style="fill:#ffffff;fill-opacity:1;fill-rule:nonzero;stroke:#619cff;stroke-width:1.49;stroke-linecap:round;stroke-linejoin:round;stroke-miterlimit:10;stroke-dasharray:none;stroke-opacity:1"
         id="path432" /><path
         d="m 213.39,71.25 h 12.96"
         style="fill:none;stroke:#619cff;stroke-width:1.49;stroke-linecap:round;stroke-linejoin:round;stroke-miterlimit:10;stroke-dasharray:none;stroke-opacity:1"
         id="path434" /></g><g
       id="g436" /><g
       id="g438"><text
         transform="matrix(1,0,0,-1,216.81,67.3)"
         style="font-variant:normal;font-weight:normal;font-size:11px;font-family:Helvetica;-inkscape-font-specification:Helvetica;writing-mode:lr-tb;fill:#619cff;fill-opacity:1;fill-rule:nonzero;stroke:none"
         id="text442"><tspan
           x="0"
           y="0"
           id="tspan440">a</tspan></text></g><g
       id="g444" /><g
       id="g446"><path
         d="m 218.45,71.25 c 0,0.78 0.64,1.42 1.42,1.42 0.78,0 1.42,-0.64 1.42,-1.42 0,-0.78 -0.64,-1.42 -1.42,-1.42 -0.78,0 -1.42,0.64 -1.42,1.42"
         style="fill:#619cff;fill-opacity:0.698;fill-rule:nonzero;stroke:#619cff;stroke-width:0.71;stroke-linecap:round;stroke-linejoin:round;stroke-miterlimit:10;stroke-dasharray:none;stroke-opacity:0.698"
         id="path448" /></g><g
       id="g450" /><g
       id="g452" /><g
       id="g454" /><g
       id="g456"><text
         transform="matrix(1,0,0,-1,231.99,103.65)"
         style="font-variant:normal;font-weight:normal;font-size:6px;font-family:Helvetica;-inkscape-font-specification:Helvetica;writing-mode:lr-tb;fill:#000000;fill-opacity:1;fill-rule:nonzero;stroke:none"
         id="text460"><tspan
           x="0 3.7019999"
           y="0"
           id="tspan458">KO</tspan></text></g><g
       id="g462" /><g
       id="g464" /><g
       id="g466" /><g
       id="g468" /><g
       id="g470"><text
         transform="matrix(1,0,0,-1,231.99,86.37)"
         style="font-variant:normal;font-weight:normal;font-size:6px;font-family:Helvetica;-inkscape-font-specification:Helvetica;writing-mode:lr-tb;fill:#000000;fill-opacity:1;fill-rule:nonzero;stroke:none"
         id="text474"><tspan
           x="0 4.6680002"
           y="0"
           id="tspan472">OE</tspan></text></g><g
       id="g476" /><g
       id="g478" /><g
       id="g480" /><g
       id="g482" /><g
       id="g484"><text
         transform="matrix(1,0,0,-1,231.99,69.09)"
         style="font-variant:normal;font-weight:normal;font-size:6px;font-family:Helvetica;-inkscape-font-specification:Helvetica;writing-mode:lr-tb;fill:#000000;fill-opacity:1;fill-rule:nonzero;stroke:none"
         id="text488"><tspan
           x="0 5.664"
           y="0"
           id="tspan486">WT</tspan></text></g><g
       id="g490" /><g
       id="g492" /><g
       id="g494" /><g
       id="g496" /><g
       id="g498" /><g
       id="g500" /><g
       id="g502" /><g
       id="g504" /><g
       id="g506" /><g
       id="g508" /><g
       id="g510" /><g
       id="g512" /><g
       id="g514" /></g></svg>
