<?xml version="1.0" encoding="UTF-8" standalone="no"?>
<svg
   xmlns:dc="http://purl.org/dc/elements/1.1/"
   xmlns:cc="http://creativecommons.org/ns#"
   xmlns:rdf="http://www.w3.org/1999/02/22-rdf-syntax-ns#"
   xmlns:svg="http://www.w3.org/2000/svg"
   xmlns="http://www.w3.org/2000/svg"
   version="1.1"
   id="svg2"
   xml:space="preserve"
   width="672"
   height="638.40002"
   viewBox="0 0 672 638.40002"><metadata
     id="metadata8"><rdf:RDF><cc:Work
         rdf:about=""><dc:format>image/svg+xml</dc:format><dc:type
           rdf:resource="http://purl.org/dc/dcmitype/StillImage" /></cc:Work></rdf:RDF></metadata><defs
     id="defs6"><clipPath
       clipPathUnits="userSpaceOnUse"
       id="clipPath20"><path
         d="M 100.8,45 H 453.6 V 411.3 H 100.8 Z"
         id="path18" /></clipPath><clipPath
       clipPathUnits="userSpaceOnUse"
       id="clipPath30"><path
         d="M 100.8,45 H 453.6 V 411.3 H 100.8 Z"
         id="path28" /></clipPath><clipPath
       clipPathUnits="userSpaceOnUse"
       id="clipPath40"><path
         d="M 100.8,45 H 453.6 V 411.3 H 100.8 Z"
         id="path38" /></clipPath><clipPath
       clipPathUnits="userSpaceOnUse"
       id="clipPath50"><path
         d="M 100.8,45 H 453.6 V 411.3 H 100.8 Z"
         id="path48" /></clipPath><clipPath
       clipPathUnits="userSpaceOnUse"
       id="clipPath60"><path
         d="M 100.8,45 H 453.6 V 411.3 H 100.8 Z"
         id="path58" /></clipPath><clipPath
       clipPathUnits="userSpaceOnUse"
       id="clipPath70"><path
         d="M 100.8,45 H 453.6 V 411.3 H 100.8 Z"
         id="path68" /></clipPath><clipPath
       clipPathUnits="userSpaceOnUse"
       id="clipPath80"><path
         d="M 100.8,45 H 453.6 V 411.3 H 100.8 Z"
         id="path78" /></clipPath><clipPath
       clipPathUnits="userSpaceOnUse"
       id="clipPath90"><path
         d="M 100.8,45 H 453.6 V 411.3 H 100.8 Z"
         id="path88" /></clipPath><clipPath
       clipPathUnits="userSpaceOnUse"
       id="clipPath100"><path
         d="M 100.8,45 H 453.6 V 411.3 H 100.8 Z"
         id="path98" /></clipPath><clipPath
       clipPathUnits="userSpaceOnUse"
       id="clipPath110"><path
         d="M 100.8,45 H 453.6 V 411.3 H 100.8 Z"
         id="path108" /></clipPath><clipPath
       clipPathUnits="userSpaceOnUse"
       id="clipPath120"><path
         d="M 100.8,45 H 453.6 V 411.3 H 100.8 Z"
         id="path118" /></clipPath><clipPath
       clipPathUnits="userSpaceOnUse"
       id="clipPath130"><path
         d="M 100.8,45 H 453.6 V 411.3 H 100.8 Z"
         id="path128" /></clipPath><clipPath
       clipPathUnits="userSpaceOnUse"
       id="clipPath140"><path
         d="M 100.8,45 H 453.6 V 411.3 H 100.8 Z"
         id="path138" /></clipPath><clipPath
       clipPathUnits="userSpaceOnUse"
       id="clipPath150"><path
         d="M 100.8,45 H 453.6 V 411.3 H 100.8 Z"
         id="path148" /></clipPath><clipPath
       clipPathUnits="userSpaceOnUse"
       id="clipPath160"><path
         d="M 100.8,45 H 453.6 V 411.3 H 100.8 Z"
         id="path158" /></clipPath><clipPath
       clipPathUnits="userSpaceOnUse"
       id="clipPath170"><path
         d="M 100.8,45 H 453.6 V 411.3 H 100.8 Z"
         id="path168" /></clipPath><clipPath
       clipPathUnits="userSpaceOnUse"
       id="clipPath180"><path
         d="M 100.8,45 H 453.6 V 411.3 H 100.8 Z"
         id="path178" /></clipPath><clipPath
       clipPathUnits="userSpaceOnUse"
       id="clipPath190"><path
         d="M 100.8,45 H 453.6 V 411.3 H 100.8 Z"
         id="path188" /></clipPath><clipPath
       clipPathUnits="userSpaceOnUse"
       id="clipPath200"><path
         d="M 100.8,45 H 453.6 V 411.3 H 100.8 Z"
         id="path198" /></clipPath><clipPath
       clipPathUnits="userSpaceOnUse"
       id="clipPath210"><path
         d="M 100.8,45 H 453.6 V 411.3 H 100.8 Z"
         id="path208" /></clipPath><clipPath
       clipPathUnits="userSpaceOnUse"
       id="clipPath220"><path
         d="M 100.8,45 H 453.6 V 411.3 H 100.8 Z"
         id="path218" /></clipPath><clipPath
       clipPathUnits="userSpaceOnUse"
       id="clipPath230"><path
         d="M 100.8,45 H 453.6 V 411.3 H 100.8 Z"
         id="path228" /></clipPath><clipPath
       clipPathUnits="userSpaceOnUse"
       id="clipPath240"><path
         d="M 100.8,45 H 453.6 V 411.3 H 100.8 Z"
         id="path238" /></clipPath><clipPath
       clipPathUnits="userSpaceOnUse"
       id="clipPath250"><path
         d="M 100.8,45 H 453.6 V 411.3 H 100.8 Z"
         id="path248" /></clipPath><clipPath
       clipPathUnits="userSpaceOnUse"
       id="clipPath260"><path
         d="M 100.8,45 H 453.6 V 411.3 H 100.8 Z"
         id="path258" /></clipPath><clipPath
       clipPathUnits="userSpaceOnUse"
       id="clipPath270"><path
         d="M 100.8,45 H 453.6 V 411.3 H 100.8 Z"
         id="path268" /></clipPath><clipPath
       clipPathUnits="userSpaceOnUse"
       id="clipPath280"><path
         d="M 100.8,45 H 453.6 V 411.3 H 100.8 Z"
         id="path278" /></clipPath><clipPath
       clipPathUnits="userSpaceOnUse"
       id="clipPath290"><path
         d="M 100.8,45 H 453.6 V 411.3 H 100.8 Z"
         id="path288" /></clipPath><clipPath
       clipPathUnits="userSpaceOnUse"
       id="clipPath308"><path
         d="M 100.8,45 H 453.6 V 411.3 H 100.8 Z"
         id="path306" /></clipPath><clipPath
       clipPathUnits="userSpaceOnUse"
       id="clipPath326"><path
         d="M 100.8,45 H 453.6 V 411.3 H 100.8 Z"
         id="path324" /></clipPath><clipPath
       clipPathUnits="userSpaceOnUse"
       id="clipPath344"><path
         d="M 100.8,45 H 453.6 V 411.3 H 100.8 Z"
         id="path342" /></clipPath><clipPath
       clipPathUnits="userSpaceOnUse"
       id="clipPath362"><path
         d="M 100.8,45 H 453.6 V 411.3 H 100.8 Z"
         id="path360" /></clipPath></defs><g
     id="g10"
     transform="matrix(1.3333333,0,0,-1.3333333,0,638.4)"><path
       d="M 0,0 H 504 V 478.8 H 0 Z"
       style="fill:#ffffff;fill-opacity:1;fill-rule:nonzero;stroke:none"
       id="path12" /><g
       id="g14"><g
         id="g16"
         clip-path="url(#clipPath20)"><path
           d="M 100.8,52.849286 H 374.64911 V 63.315 H 100.8 Z"
           style="fill:#ff0000;fill-opacity:1;fill-rule:nonzero;stroke:#000000;stroke-width:1;stroke-linecap:butt;stroke-linejoin:miter;stroke-miterlimit:10;stroke-dasharray:none;stroke-opacity:1"
           id="path22" /></g></g><g
       id="g24"><g
         id="g26"
         clip-path="url(#clipPath30)"><path
           d="M 100.8,65.931429 H 374.64911 V 76.397143 H 100.8 Z"
           style="fill:#ff0000;fill-opacity:1;fill-rule:nonzero;stroke:#000000;stroke-width:1;stroke-linecap:butt;stroke-linejoin:miter;stroke-miterlimit:10;stroke-dasharray:none;stroke-opacity:1"
           id="path32" /></g></g><g
       id="g34"><g
         id="g36"
         clip-path="url(#clipPath40)"><path
           d="M 100.8,79.013571 H 374.64911 V 89.479286 H 100.8 Z"
           style="fill:#ff0000;fill-opacity:1;fill-rule:nonzero;stroke:#000000;stroke-width:1;stroke-linecap:butt;stroke-linejoin:miter;stroke-miterlimit:10;stroke-dasharray:none;stroke-opacity:1"
           id="path42" /></g></g><g
       id="g44"><g
         id="g46"
         clip-path="url(#clipPath50)"><path
           d="M 100.8,92.095714 H 388.13825 V 102.56143 H 100.8 Z"
           style="fill:#ff0000;fill-opacity:1;fill-rule:nonzero;stroke:#000000;stroke-width:1;stroke-linecap:butt;stroke-linejoin:miter;stroke-miterlimit:10;stroke-dasharray:none;stroke-opacity:1"
           id="path52" /></g></g><g
       id="g54"><g
         id="g56"
         clip-path="url(#clipPath60)"><path
           d="m 100.8,105.17786 h 287.96402 v 10.46571 H 100.8 Z"
           style="fill:#ff0000;fill-opacity:1;fill-rule:nonzero;stroke:#000000;stroke-width:1;stroke-linecap:butt;stroke-linejoin:miter;stroke-miterlimit:10;stroke-dasharray:none;stroke-opacity:1"
           id="path62" /></g></g><g
       id="g64"><g
         id="g66"
         clip-path="url(#clipPath70)"><path
           d="m 100.8,118.26 h 287.96402 v 10.46571 H 100.8 Z"
           style="fill:#ff0000;fill-opacity:1;fill-rule:nonzero;stroke:#000000;stroke-width:1;stroke-linecap:butt;stroke-linejoin:miter;stroke-miterlimit:10;stroke-dasharray:none;stroke-opacity:1"
           id="path72" /></g></g><g
       id="g74"><g
         id="g76"
         clip-path="url(#clipPath80)"><path
           d="m 100.8,131.34214 h 290.47294 v 10.46572 H 100.8 Z"
           style="fill:#ff0000;fill-opacity:1;fill-rule:nonzero;stroke:#000000;stroke-width:1;stroke-linecap:butt;stroke-linejoin:miter;stroke-miterlimit:10;stroke-dasharray:none;stroke-opacity:1"
           id="path82" /></g></g><g
       id="g84"><g
         id="g86"
         clip-path="url(#clipPath90)"><path
           d="M 100.8,144.42429 H 392.54055 V 154.89 H 100.8 Z"
           style="fill:#ff0000;fill-opacity:1;fill-rule:nonzero;stroke:#000000;stroke-width:1;stroke-linecap:butt;stroke-linejoin:miter;stroke-miterlimit:10;stroke-dasharray:none;stroke-opacity:1"
           id="path92" /></g></g><g
       id="g94"><g
         id="g96"
         clip-path="url(#clipPath100)"><path
           d="m 100.8,157.50643 h 294.40178 v 10.46571 H 100.8 Z"
           style="fill:#ff0000;fill-opacity:1;fill-rule:nonzero;stroke:#000000;stroke-width:1;stroke-linecap:butt;stroke-linejoin:miter;stroke-miterlimit:10;stroke-dasharray:none;stroke-opacity:1"
           id="path102" /></g></g><g
       id="g104"><g
         id="g106"
         clip-path="url(#clipPath110)"><path
           d="m 100.8,170.58857 h 309.14747 v 10.46572 H 100.8 Z"
           style="fill:#ff0000;fill-opacity:1;fill-rule:nonzero;stroke:#000000;stroke-width:1;stroke-linecap:butt;stroke-linejoin:miter;stroke-miterlimit:10;stroke-dasharray:none;stroke-opacity:1"
           id="path112" /></g></g><g
       id="g114"><g
         id="g116"
         clip-path="url(#clipPath120)"><path
           d="m 100.8,183.67071 h 324.10096 v 10.46572 H 100.8 Z"
           style="fill:#ff0000;fill-opacity:1;fill-rule:nonzero;stroke:#000000;stroke-width:1;stroke-linecap:butt;stroke-linejoin:miter;stroke-miterlimit:10;stroke-dasharray:none;stroke-opacity:1"
           id="path122" /></g></g><g
       id="g124"><g
         id="g126"
         clip-path="url(#clipPath130)"><path
           d="m 100.8,196.75286 h 336 v 10.46571 h -336 z"
           style="fill:#ff0000;fill-opacity:1;fill-rule:nonzero;stroke:#000000;stroke-width:1;stroke-linecap:butt;stroke-linejoin:miter;stroke-miterlimit:10;stroke-dasharray:none;stroke-opacity:1"
           id="path132" /></g></g><g
       id="g134"><g
         id="g136"
         clip-path="url(#clipPath140)"><path
           d="m 100.8,209.835 h 275.2835 v 10.46571 H 100.8 Z"
           style="fill:#008000;fill-opacity:1;fill-rule:nonzero;stroke:#000000;stroke-width:1;stroke-linecap:butt;stroke-linejoin:miter;stroke-miterlimit:10;stroke-dasharray:none;stroke-opacity:1"
           id="path142" /></g></g><g
       id="g144"><g
         id="g146"
         clip-path="url(#clipPath150)"><path
           d="m 100.8,222.91714 h 275.2835 v 10.46572 H 100.8 Z"
           style="fill:#008000;fill-opacity:1;fill-rule:nonzero;stroke:#000000;stroke-width:1;stroke-linecap:butt;stroke-linejoin:miter;stroke-miterlimit:10;stroke-dasharray:none;stroke-opacity:1"
           id="path152" /></g></g><g
       id="g154"><g
         id="g156"
         clip-path="url(#clipPath160)"><path
           d="M 100.8,235.99929 H 376.0835 V 246.465 H 100.8 Z"
           style="fill:#008000;fill-opacity:1;fill-rule:nonzero;stroke:#000000;stroke-width:1;stroke-linecap:butt;stroke-linejoin:miter;stroke-miterlimit:10;stroke-dasharray:none;stroke-opacity:1"
           id="path162" /></g></g><g
       id="g164"><g
         id="g166"
         clip-path="url(#clipPath170)"><path
           d="m 100.8,249.08143 h 288.04476 v 10.46571 H 100.8 Z"
           style="fill:#008000;fill-opacity:1;fill-rule:nonzero;stroke:#000000;stroke-width:1;stroke-linecap:butt;stroke-linejoin:miter;stroke-miterlimit:10;stroke-dasharray:none;stroke-opacity:1"
           id="path172" /></g></g><g
       id="g174"><g
         id="g176"
         clip-path="url(#clipPath180)"><path
           d="m 100.8,262.16357 h 302.12716 v 10.46572 H 100.8 Z"
           style="fill:#008000;fill-opacity:1;fill-rule:nonzero;stroke:#000000;stroke-width:1;stroke-linecap:butt;stroke-linejoin:miter;stroke-miterlimit:10;stroke-dasharray:none;stroke-opacity:1"
           id="path182" /></g></g><g
       id="g184"><g
         id="g186"
         clip-path="url(#clipPath190)"><path
           d="m 100.8,275.24571 h 302.12716 v 10.46572 H 100.8 Z"
           style="fill:#008000;fill-opacity:1;fill-rule:nonzero;stroke:#000000;stroke-width:1;stroke-linecap:butt;stroke-linejoin:miter;stroke-miterlimit:10;stroke-dasharray:none;stroke-opacity:1"
           id="path192" /></g></g><g
       id="g194"><g
         id="g196"
         clip-path="url(#clipPath200)"><path
           d="m 100.8,288.32786 h 302.12716 v 10.46571 H 100.8 Z"
           style="fill:#008000;fill-opacity:1;fill-rule:nonzero;stroke:#000000;stroke-width:1;stroke-linecap:butt;stroke-linejoin:miter;stroke-miterlimit:10;stroke-dasharray:none;stroke-opacity:1"
           id="path202" /></g></g><g
       id="g204"><g
         id="g206"
         clip-path="url(#clipPath210)"><path
           d="m 100.8,301.41 h 302.12716 v 10.46571 H 100.8 Z"
           style="fill:#008000;fill-opacity:1;fill-rule:nonzero;stroke:#000000;stroke-width:1;stroke-linecap:butt;stroke-linejoin:miter;stroke-miterlimit:10;stroke-dasharray:none;stroke-opacity:1"
           id="path212" /></g></g><g
       id="g214"><g
         id="g216"
         clip-path="url(#clipPath220)"><path
           d="m 100.8,314.49214 h 302.12716 v 10.46572 H 100.8 Z"
           style="fill:#008000;fill-opacity:1;fill-rule:nonzero;stroke:#000000;stroke-width:1;stroke-linecap:butt;stroke-linejoin:miter;stroke-miterlimit:10;stroke-dasharray:none;stroke-opacity:1"
           id="path222" /></g></g><g
       id="g224"><g
         id="g226"
         clip-path="url(#clipPath230)"><path
           d="M 100.8,327.57429 H 411.91851 V 338.04 H 100.8 Z"
           style="fill:#008000;fill-opacity:1;fill-rule:nonzero;stroke:#000000;stroke-width:1;stroke-linecap:butt;stroke-linejoin:miter;stroke-miterlimit:10;stroke-dasharray:none;stroke-opacity:1"
           id="path232" /></g></g><g
       id="g234"><g
         id="g236"
         clip-path="url(#clipPath240)"><path
           d="m 100.8,340.65643 h 311.11851 v 10.46571 H 100.8 Z"
           style="fill:#008000;fill-opacity:1;fill-rule:nonzero;stroke:#000000;stroke-width:1;stroke-linecap:butt;stroke-linejoin:miter;stroke-miterlimit:10;stroke-dasharray:none;stroke-opacity:1"
           id="path242" /></g></g><g
       id="g244"><g
         id="g246"
         clip-path="url(#clipPath250)"><path
           d="m 100.8,353.73857 h 311.11851 v 10.46572 H 100.8 Z"
           style="fill:#008000;fill-opacity:1;fill-rule:nonzero;stroke:#000000;stroke-width:1;stroke-linecap:butt;stroke-linejoin:miter;stroke-miterlimit:10;stroke-dasharray:none;stroke-opacity:1"
           id="path252" /></g></g><g
       id="g254"><g
         id="g256"
         clip-path="url(#clipPath260)"><path
           d="m 100.8,366.82071 h 273.45799 v 10.46572 H 100.8 Z"
           style="fill:#0000ff;fill-opacity:1;fill-rule:nonzero;stroke:#000000;stroke-width:1;stroke-linecap:butt;stroke-linejoin:miter;stroke-miterlimit:10;stroke-dasharray:none;stroke-opacity:1"
           id="path262" /></g></g><g
       id="g264"><g
         id="g266"
         clip-path="url(#clipPath270)"><path
           d="m 100.8,379.90286 h 273.45799 v 10.46571 H 100.8 Z"
           style="fill:#0000ff;fill-opacity:1;fill-rule:nonzero;stroke:#000000;stroke-width:1;stroke-linecap:butt;stroke-linejoin:miter;stroke-miterlimit:10;stroke-dasharray:none;stroke-opacity:1"
           id="path272" /></g></g><g
       id="g274"><g
         id="g276"
         clip-path="url(#clipPath280)"><path
           d="m 100.8,392.985 h 273.45799 v 10.46571 H 100.8 Z"
           style="fill:#0000ff;fill-opacity:1;fill-rule:nonzero;stroke:#000000;stroke-width:1;stroke-linecap:butt;stroke-linejoin:miter;stroke-miterlimit:10;stroke-dasharray:none;stroke-opacity:1"
           id="path282" /></g></g><g
       id="g284"><g
         id="g286"
         clip-path="url(#clipPath290)"><path
           d="M 100.8,45 V 411.3"
           style="fill:none;stroke:#000000;stroke-width:0.8;stroke-linecap:square;stroke-linejoin:round;stroke-miterlimit:10;stroke-dasharray:none;stroke-opacity:1"
           id="path292" /></g></g><g
       id="g294"><path
         d="M 100.8,45 V 41.5"
         style="fill:#000000;fill-opacity:1;fill-rule:nonzero;stroke:#000000;stroke-width:0.8;stroke-linecap:butt;stroke-linejoin:round;stroke-miterlimit:10;stroke-dasharray:none;stroke-opacity:1"
         id="path296" /><text
         transform="matrix(1,0,0,-1,97.620312,30.40625)"
         style="font-variant:normal;font-weight:normal;font-size:10px;font-family:'DejaVu Sans';-inkscape-font-specification:DejaVuSans;writing-mode:lr-tb;fill:#000000;fill-opacity:1;fill-rule:nonzero;stroke:none"
         id="text300"><tspan
           x="0"
           y="0"
           id="tspan298">0</tspan></text></g><g
       id="g302"><g
         id="g304"
         clip-path="url(#clipPath308)"><path
           d="M 172.76576,45 V 411.3"
           style="fill:none;stroke:#000000;stroke-width:0.8;stroke-linecap:square;stroke-linejoin:round;stroke-miterlimit:10;stroke-dasharray:none;stroke-opacity:1"
           id="path310" /></g></g><g
       id="g312"><path
         d="M 172.76576,45 V 41.5"
         style="fill:#000000;fill-opacity:1;fill-rule:nonzero;stroke:#000000;stroke-width:0.8;stroke-linecap:butt;stroke-linejoin:round;stroke-miterlimit:10;stroke-dasharray:none;stroke-opacity:1"
         id="path314" /><text
         transform="matrix(1,0,0,-1,169.58607,30.40625)"
         style="font-variant:normal;font-weight:normal;font-size:10px;font-family:'DejaVu Sans';-inkscape-font-specification:DejaVuSans;writing-mode:lr-tb;fill:#000000;fill-opacity:1;fill-rule:nonzero;stroke:none"
         id="text318"><tspan
           x="0"
           y="0"
           id="tspan316">1</tspan></text></g><g
       id="g320"><g
         id="g322"
         clip-path="url(#clipPath326)"><path
           d="M 244.73152,45 V 411.3"
           style="fill:none;stroke:#000000;stroke-width:0.8;stroke-linecap:square;stroke-linejoin:round;stroke-miterlimit:10;stroke-dasharray:none;stroke-opacity:1"
           id="path328" /></g></g><g
       id="g330"><path
         d="M 244.73152,45 V 41.5"
         style="fill:#000000;fill-opacity:1;fill-rule:nonzero;stroke:#000000;stroke-width:0.8;stroke-linecap:butt;stroke-linejoin:round;stroke-miterlimit:10;stroke-dasharray:none;stroke-opacity:1"
         id="path332" /><text
         transform="matrix(1,0,0,-1,241.55183,30.40625)"
         style="font-variant:normal;font-weight:normal;font-size:10px;font-family:'DejaVu Sans';-inkscape-font-specification:DejaVuSans;writing-mode:lr-tb;fill:#000000;fill-opacity:1;fill-rule:nonzero;stroke:none"
         id="text336"><tspan
           x="0"
           y="0"
           id="tspan334">2</tspan></text></g><g
       id="g338"><g
         id="g340"
         clip-path="url(#clipPath344)"><path
           d="M 316.69728,45 V 411.3"
           style="fill:none;stroke:#000000;stroke-width:0.8;stroke-linecap:square;stroke-linejoin:round;stroke-miterlimit:10;stroke-dasharray:none;stroke-opacity:1"
           id="path346" /></g></g><g
       id="g348"><path
         d="M 316.69728,45 V 41.5"
         style="fill:#000000;fill-opacity:1;fill-rule:nonzero;stroke:#000000;stroke-width:0.8;stroke-linecap:butt;stroke-linejoin:round;stroke-miterlimit:10;stroke-dasharray:none;stroke-opacity:1"
         id="path350" /><text
         transform="matrix(1,0,0,-1,313.5176,30.40625)"
         style="font-variant:normal;font-weight:normal;font-size:10px;font-family:'DejaVu Sans';-inkscape-font-specification:DejaVuSans;writing-mode:lr-tb;fill:#000000;fill-opacity:1;fill-rule:nonzero;stroke:none"
         id="text354"><tspan
           x="0"
           y="0"
           id="tspan352">3</tspan></text></g><g
       id="g356"><g
         id="g358"
         clip-path="url(#clipPath362)"><path
           d="M 388.66304,45 V 411.3"
           style="fill:none;stroke:#000000;stroke-width:0.8;stroke-linecap:square;stroke-linejoin:round;stroke-miterlimit:10;stroke-dasharray:none;stroke-opacity:1"
           id="path364" /></g></g><g
       id="g366"><path
         d="M 388.66304,45 V 41.5"
         style="fill:#000000;fill-opacity:1;fill-rule:nonzero;stroke:#000000;stroke-width:0.8;stroke-linecap:butt;stroke-linejoin:round;stroke-miterlimit:10;stroke-dasharray:none;stroke-opacity:1"
         id="path368" /><text
         transform="matrix(1,0,0,-1,385.48336,30.40625)"
         style="font-variant:normal;font-weight:normal;font-size:10px;font-family:'DejaVu Sans';-inkscape-font-specification:DejaVuSans;writing-mode:lr-tb;fill:#000000;fill-opacity:1;fill-rule:nonzero;stroke:none"
         id="text372"><tspan
           x="0"
           y="0"
           id="tspan370">4</tspan></text><text
         transform="matrix(1,0,0,-1,227.29375,16.734375)"
         style="font-variant:normal;font-weight:normal;font-size:10px;font-family:'DejaVu Sans';-inkscape-font-specification:DejaVuSans;writing-mode:lr-tb;fill:#000000;fill-opacity:1;fill-rule:nonzero;stroke:none"
         id="text376"><tspan
           x="0 5.5700002 13.27 20.110001 23.290001 29.639999 36.619999 44.490002 51.439999 57.759998 60.939999 64.839996 67.620003 73.739998 80.089996 83.269997 89.629997 95.989998"
           y="0"
           id="tspan374">LDA SCORE (log 10)</tspan></text><text
         transform="matrix(1,0,0,-1,35.821875,54.1575)"
         style="font-variant:normal;font-weight:normal;font-size:7px;font-family:'DejaVu Sans';-inkscape-font-specification:DejaVuSans;writing-mode:lr-tb;fill:#000000;fill-opacity:1;fill-rule:nonzero;stroke:none"
         id="text380"><tspan
           x="0 4.8860002 9.177 13.615 15.561 19.844999 24.290001 28.580999 32.431 35.174999 39.48 42.356998 46.647999 48.594002 52.898998"
           y="0"
           id="tspan378">Caulobacterales</tspan></text><text
         transform="matrix(1,0,0,-1,28.9625,67.239643)"
         style="font-variant:normal;font-weight:normal;font-size:7px;font-family:'DejaVu Sans';-inkscape-font-specification:DejaVuSans;writing-mode:lr-tb;fill:#000000;fill-opacity:1;fill-rule:nonzero;stroke:none"
         id="text384"><tspan
           x="0 4.8860002 9.177 13.615 15.561 19.844999 24.290001 28.580999 32.431 35.174999 39.48 42.356998 46.647999 50.498001 54.803001 59.094002"
           y="0"
           id="tspan382">Caulobacteraceae</tspan></text><text
         transform="matrix(1,0,0,-1,28.9,80.321786)"
         style="font-variant:normal;font-weight:normal;font-size:7px;font-family:'DejaVu Sans';-inkscape-font-specification:DejaVuSans;writing-mode:lr-tb;fill:#000000;fill-opacity:1;fill-rule:nonzero;stroke:none"
         id="text388"><tspan
           x="0 4.2210002 8.6590004 12.964 17.402 21.546 23.492001 27.775999 32.221001 36.512001 40.362 43.105999 47.410999 50.287998 52.234001 56.672001"
           y="0"
           id="tspan386">Phenylobacterium</tspan></text><text
         transform="matrix(1,0,0,-1,40.509375,93.403929)"
         style="font-variant:normal;font-weight:normal;font-size:7px;font-family:'DejaVu Sans';-inkscape-font-specification:DejaVuSans;writing-mode:lr-tb;fill:#000000;fill-opacity:1;fill-rule:nonzero;stroke:none"
         id="text392"><tspan
           x="0 4.4450002 8.8900003 13.328 15.274 19.712 24.157 28.441 35.258999 39.542999 43.980999 48.271999"
           y="0"
           id="tspan390">Sphingomonas</tspan></text><text
         transform="matrix(1,0,0,-1,25.509375,106.48607)"
         style="font-variant:normal;font-weight:normal;font-size:7px;font-family:'DejaVu Sans';-inkscape-font-specification:DejaVuSans;writing-mode:lr-tb;fill:#000000;fill-opacity:1;fill-rule:nonzero;stroke:none"
         id="text396"><tspan
           x="0 4.4450002 8.8900003 13.328 15.274 19.712 24.157 28.441 35.258999 39.542999 43.980999 48.271999 52.716999 57.007999 58.953999 63.258999"
           y="0"
           id="tspan394">Sphingomonadales</tspan></text><text
         transform="matrix(1,0,0,-1,18.65,119.56821)"
         style="font-variant:normal;font-weight:normal;font-size:7px;font-family:'DejaVu Sans';-inkscape-font-specification:DejaVuSans;writing-mode:lr-tb;fill:#000000;fill-opacity:1;fill-rule:nonzero;stroke:none"
         id="text400"><tspan
           x="0 4.4450002 8.8900003 13.328 15.274 19.712 24.157 28.441 35.258999 39.542999 43.980999 48.271999 52.716999 57.007999 60.858002 65.163002 69.454002"
           y="0"
           id="tspan398">Sphingomonadaceae</tspan></text><text
         transform="matrix(1,0,0,-1,51.68125,132.65036)"
         style="font-variant:normal;font-weight:normal;font-size:7px;font-family:'DejaVu Sans';-inkscape-font-specification:DejaVuSans;writing-mode:lr-tb;fill:#000000;fill-opacity:1;fill-rule:nonzero;stroke:none"
         id="text404"><tspan
           x="0 5.1240001 9.5620003 13.853 17.5 21.146999 23.093 27.538 31.976 36.280998"
           y="0"
           id="tspan402">Unassigned</tspan></text><text
         transform="matrix(1,0,0,-1,48.009375,145.7325)"
         style="font-variant:normal;font-weight:normal;font-size:7px;font-family:'DejaVu Sans';-inkscape-font-specification:DejaVuSans;writing-mode:lr-tb;fill:#000000;fill-opacity:1;fill-rule:nonzero;stroke:none"
         id="text408"><tspan
           x="0 4.2210002 6.1669998 9.8140001 13.664 15.61 20.048 21.993999 26.438999 30.73 34.580002 37.324001 41.629002"
           y="0"
           id="tspan406">Piscinibacter</tspan></text><text
         transform="matrix(1,0,0,-1,42.353125,158.81464)"
         style="font-variant:normal;font-weight:normal;font-size:7px;font-family:'DejaVu Sans';-inkscape-font-specification:DejaVuSans;writing-mode:lr-tb;fill:#000000;fill-opacity:1;fill-rule:nonzero;stroke:none"
         id="text412"><tspan
           x="0 4.2210002 8.5120001 11.389 15.68 18.556999 22.995001 24.941 28.615999 32.900002 37.345001 39.291 43.729"
           y="0"
           id="tspan410">Pararhizobium</tspan></text><text
         transform="matrix(1,0,0,-1,56.603125,171.89679)"
         style="font-variant:normal;font-weight:normal;font-size:7px;font-family:'DejaVu Sans';-inkscape-font-specification:DejaVuSans;writing-mode:lr-tb;fill:#000000;fill-opacity:1;fill-rule:nonzero;stroke:none"
         id="text416"><tspan
           x="0 4.592 6.5380001 10.976 15.414 19.719 22.596001 26.900999 29.645 31.591"
           y="0"
           id="tspan414">Kinneretia</tspan></text><text
         transform="matrix(1,0,0,-1,54.415625,184.97893)"
         style="font-variant:normal;font-weight:normal;font-size:7px;font-family:'DejaVu Sans';-inkscape-font-specification:DejaVuSans;writing-mode:lr-tb;fill:#000000;fill-opacity:1;fill-rule:nonzero;stroke:none"
         id="text420"><tspan
           x="0 4.2210002 8.526 10.472 14.756 21.573999 25.858 30.296 34.587002"
           y="0"
           id="tspan418">Pelomonas</tspan></text><text
         transform="matrix(1,0,0,-1,26.790625,198.06107)"
         style="font-variant:normal;font-weight:normal;font-size:7px;font-family:'DejaVu Sans';-inkscape-font-specification:DejaVuSans;writing-mode:lr-tb;fill:#000000;fill-opacity:1;fill-rule:nonzero;stroke:none"
         id="text424"><tspan
           x="0 4.8860002 9.1700001 15.988 20.278999 27.097 31.381001 35.819 40.110001 44.555 48.846001 52.695999 57.000999 61.292"
           y="0"
           id="tspan422">Comamonadaceae</tspan></text><text
         transform="matrix(1,0,0,-1,-40.584375,211.14321)"
         style="font-variant:normal;font-weight:normal;font-size:7px;font-family:'DejaVu Sans';-inkscape-font-specification:DejaVuSans;writing-mode:lr-tb;fill:#000000;fill-opacity:1;fill-rule:nonzero;stroke:none"
         id="text428"><tspan
           x="0 5.4250002 9.7159996 16.534 23.351999 27.643 32.088001 34.965 39.249001 41.993 46.298 50.582001 55.027 59.318001 63.167999 65.912003 70.217003 73.094002 75.040001 79.331001 82.831001 84.777 89.214996 93.065002 97.370003 100.247 102.991 107.282 111.587 115.087 118.734 123.039 127.484 129.42999"
           y="0"
           id="tspan426">Gammaproteobacteria_incertae_sedis</tspan></text><text
         transform="matrix(1,0,0,-1,51.68125,224.22536)"
         style="font-variant:normal;font-weight:normal;font-size:7px;font-family:'DejaVu Sans';-inkscape-font-specification:DejaVuSans;writing-mode:lr-tb;fill:#000000;fill-opacity:1;fill-rule:nonzero;stroke:none"
         id="text432"><tspan
           x="0 5.1240001 9.5620003 13.853 17.5 21.146999 23.093 27.538 31.976 36.280998"
           y="0"
           id="tspan430">Unassigned</tspan></text><text
         transform="matrix(1,0,0,-1,53.025,237.3075)"
         style="font-variant:normal;font-weight:normal;font-size:7px;font-family:'DejaVu Sans';-inkscape-font-specification:DejaVuSans;writing-mode:lr-tb;fill:#000000;fill-opacity:1;fill-rule:nonzero;stroke:none"
         id="text436"><tspan
           x="0 4.7880001 8.6379995 10.584 15.029 16.975 21.42 25.711 29.561001 32.305 36.610001"
           y="0"
           id="tspan434">Acidibacter</tspan></text><text
         transform="matrix(1,0,0,-1,13.18125,250.38964)"
         style="font-variant:normal;font-weight:normal;font-size:7px;font-family:'DejaVu Sans';-inkscape-font-specification:DejaVuSans;writing-mode:lr-tb;fill:#000000;fill-opacity:1;fill-rule:nonzero;stroke:none"
         id="text440"><tspan
           x="0 5.4250002 9.7159996 16.534 23.351999 27.643 32.088001 34.965 39.249001 41.993 46.298 50.582001 55.027 59.318001 63.167999 65.912003 70.217003 73.094002 75.040001"
           y="0"
           id="tspan438">Gammaproteobacteria</tspan></text><text
         transform="matrix(1,0,0,-1,56.415625,263.47179)"
         style="font-variant:normal;font-weight:normal;font-size:7px;font-family:'DejaVu Sans';-inkscape-font-specification:DejaVuSans;writing-mode:lr-tb;fill:#000000;fill-opacity:1;fill-rule:nonzero;stroke:none"
         id="text444"><tspan
           x="0 4.0250001 5.9710002 8.8479996 15.666 17.612 21.462 25.9 28.643999 32.949001"
           y="0"
           id="tspan442">Firmicutes</tspan></text><text
         transform="matrix(1,0,0,-1,71.65,276.55393)"
         style="font-variant:normal;font-weight:normal;font-size:7px;font-family:'DejaVu Sans';-inkscape-font-specification:DejaVuSans;writing-mode:lr-tb;fill:#000000;fill-opacity:1;fill-rule:nonzero;stroke:none"
         id="text448"><tspan
           x="0 4.802 9.0930004 12.943 14.889 16.834999 18.781"
           y="0"
           id="tspan446">Bacilli</tspan></text><text
         transform="matrix(1,0,0,-1,59.4,289.63607)"
         style="font-variant:normal;font-weight:normal;font-size:7px;font-family:'DejaVu Sans';-inkscape-font-specification:DejaVuSans;writing-mode:lr-tb;fill:#000000;fill-opacity:1;fill-rule:nonzero;stroke:none"
         id="text452"><tspan
           x="0 4.802 9.0930004 12.943 14.889 16.834999 18.781 23.072001 25.018 29.323"
           y="0"
           id="tspan450">Bacillales</tspan></text><text
         transform="matrix(1,0,0,-1,44.5875,302.71821)"
         style="font-variant:normal;font-weight:normal;font-size:7px;font-family:'DejaVu Sans';-inkscape-font-specification:DejaVuSans;writing-mode:lr-tb;fill:#000000;fill-opacity:1;fill-rule:nonzero;stroke:none"
         id="text456"><tspan
           x="0 4.802 9.0930004 12.943 14.889 16.834999 18.781 23.072001 26.922001 31.226999 35.518002 39.823002 43.323002"
           y="0"
           id="tspan454">Bacillaceae_1</tspan></text><text
         transform="matrix(1,0,0,-1,65.525,315.80036)"
         style="font-variant:normal;font-weight:normal;font-size:7px;font-family:'DejaVu Sans';-inkscape-font-specification:DejaVuSans;writing-mode:lr-tb;fill:#000000;fill-opacity:1;fill-rule:nonzero;stroke:none"
         id="text460"><tspan
           x="0 4.802 9.0930004 12.943 14.889 16.834999 18.781 23.219"
           y="0"
           id="tspan458">Bacillus</tspan></text><text
         transform="matrix(1,0,0,-1,30.61875,328.8825)"
         style="font-variant:normal;font-weight:normal;font-size:7px;font-family:'DejaVu Sans';-inkscape-font-specification:DejaVuSans;writing-mode:lr-tb;fill:#000000;fill-opacity:1;fill-rule:nonzero;stroke:none"
         id="text464"><tspan
           x="0 4.4450002 7.1890001 10.066 14.371 18.816 21.559999 25.844 32.661999 36.806 40.655998 44.960999 47.705002 51.995998 53.942001 58.247002"
           y="0"
           id="tspan462">Streptomycetales</tspan></text><text
         transform="matrix(1,0,0,-1,23.759375,341.96464)"
         style="font-variant:normal;font-weight:normal;font-size:7px;font-family:'DejaVu Sans';-inkscape-font-specification:DejaVuSans;writing-mode:lr-tb;fill:#000000;fill-opacity:1;fill-rule:nonzero;stroke:none"
         id="text468"><tspan
           x="0 4.4450002 7.1890001 10.066 14.371 18.816 21.559999 25.844 32.661999 36.806 40.655998 44.960999 47.705002 51.995998 55.846001 60.151001 64.442001"
           y="0"
           id="tspan466">Streptomycetaceae</tspan></text><text
         transform="matrix(1,0,0,-1,43.93125,355.04679)"
         style="font-variant:normal;font-weight:normal;font-size:7px;font-family:'DejaVu Sans';-inkscape-font-specification:DejaVuSans;writing-mode:lr-tb;fill:#000000;fill-opacity:1;fill-rule:nonzero;stroke:none"
         id="text472"><tspan
           x="0 4.4450002 7.1890001 10.066 14.371 18.816 21.559999 25.844 32.661999 36.806 40.655998 44.960999"
           y="0"
           id="tspan470">Streptomyces</tspan></text><text
         transform="matrix(1,0,0,-1,41.43125,368.12893)"
         style="font-variant:normal;font-weight:normal;font-size:7px;font-family:'DejaVu Sans';-inkscape-font-specification:DejaVuSans;writing-mode:lr-tb;fill:#000000;fill-opacity:1;fill-rule:nonzero;stroke:none"
         id="text476"><tspan
           x="0 4.592 6.5380001 10.976 15.281 19.565001 23.212 27.657 31.941 34.818001 36.764 41.055 43.000999 47.306"
           y="0"
           id="tspan474">Kineosporiales</tspan></text><text
         transform="matrix(1,0,0,-1,34.571875,381.21107)"
         style="font-variant:normal;font-weight:normal;font-size:7px;font-family:'DejaVu Sans';-inkscape-font-specification:DejaVuSans;writing-mode:lr-tb;fill:#000000;fill-opacity:1;fill-rule:nonzero;stroke:none"
         id="text480"><tspan
           x="0 4.592 6.5380001 10.976 15.281 19.565001 23.212 27.657 31.941 34.818001 36.764 41.055 44.904999 49.209999 53.500999"
           y="0"
           id="tspan478">Kineosporiaceae</tspan></text><text
         transform="matrix(1,0,0,-1,51.3375,394.29321)"
         style="font-variant:normal;font-weight:normal;font-size:7px;font-family:'DejaVu Sans';-inkscape-font-specification:DejaVuSans;writing-mode:lr-tb;fill:#000000;fill-opacity:1;fill-rule:nonzero;stroke:none"
         id="text484"><tspan
           x="0 4.592 6.5380001 10.976 15.281 19.565001 23.212 27.657 31.941 34.818001 36.764"
           y="0"
           id="tspan482">Kineosporia</tspan></text><path
         d="m 104.8,424.70412 h 20 v 7 h -20 z"
         style="fill:#ff0000;fill-opacity:1;fill-rule:nonzero;stroke:#000000;stroke-width:1;stroke-linecap:butt;stroke-linejoin:miter;stroke-miterlimit:10;stroke-dasharray:none;stroke-opacity:1"
         id="path486" /><text
         transform="matrix(1,0,0,-1,132.8,424.70412)"
         style="font-variant:normal;font-weight:normal;font-size:10px;font-family:'DejaVu Sans';-inkscape-font-specification:DejaVuSans;writing-mode:lr-tb;fill:#000000;fill-opacity:1;fill-rule:nonzero;stroke:none"
         id="text490"><tspan
           x="0 6.5599999"
           y="0"
           id="tspan488">KO</tspan></text><path
         d="m 166.7375,424.70412 h 20 v 7 h -20 z"
         style="fill:#008000;fill-opacity:1;fill-rule:nonzero;stroke:#000000;stroke-width:1;stroke-linecap:butt;stroke-linejoin:miter;stroke-miterlimit:10;stroke-dasharray:none;stroke-opacity:1"
         id="path492" /><text
         transform="matrix(1,0,0,-1,194.7375,424.70412)"
         style="font-variant:normal;font-weight:normal;font-size:10px;font-family:'DejaVu Sans';-inkscape-font-specification:DejaVuSans;writing-mode:lr-tb;fill:#000000;fill-opacity:1;fill-rule:nonzero;stroke:none"
         id="text496"><tspan
           x="0 7.8699999"
           y="0"
           id="tspan494">OE</tspan></text><path
         d="m 228.925,424.70412 h 20 v 7 h -20 z"
         style="fill:#0000ff;fill-opacity:1;fill-rule:nonzero;stroke:#000000;stroke-width:1;stroke-linecap:butt;stroke-linejoin:miter;stroke-miterlimit:10;stroke-dasharray:none;stroke-opacity:1"
         id="path498" /><text
         transform="matrix(1,0,0,-1,256.925,424.70412)"
         style="font-variant:normal;font-weight:normal;font-size:10px;font-family:'DejaVu Sans';-inkscape-font-specification:DejaVuSans;writing-mode:lr-tb;fill:#000000;fill-opacity:1;fill-rule:nonzero;stroke:none"
         id="text502"><tspan
           x="0 9.8900003"
           y="0"
           id="tspan500">WT</tspan></text></g></g></svg>
