<?xml version="1.0" encoding="utf-8" standalone="no"?>
<!DOCTYPE svg PUBLIC "-//W3C//DTD SVG 1.1//EN"
  "http://www.w3.org/Graphics/SVG/1.1/DTD/svg11.dtd">
<!-- Created with matplotlib (http://matplotlib.org/) -->
<svg height="176pt" version="1.1" viewBox="0 0 504 176" width="504pt" xmlns="http://www.w3.org/2000/svg" xmlns:xlink="http://www.w3.org/1999/xlink">
 <defs>
  <style type="text/css">
*{stroke-linecap:butt;stroke-linejoin:round;}
  </style>
 </defs>
 <g id="figure_1">
  <g id="patch_1">
   <path d="
M0 176.4
L504 176.4
L504 0
L0 0
z
" style="fill:#ffffff;"/>
  </g>
  <g id="axes_1">
   <g id="patch_2">
    <path d="
M194.606 147.6
L284.606 147.6
L284.606 18
L194.606 18
z
" style="fill:#ffffff;"/>
   </g>
   <g id="patch_3">
    <path clip-path="url(#p57f367616b)" d="
M194.606 141.12
L194.606 128.16
L284.606 128.16
L284.606 141.12
z
" style="fill:#e6e6e6;"/>
   </g>
   <g id="patch_4">
    <path clip-path="url(#p57f367616b)" d="
M194.606 115.2
L194.606 102.24
L284.606 102.24
L284.606 115.2
z
" style="fill:#e6e6e6;"/>
   </g>
   <g id="patch_5">
    <path clip-path="url(#p57f367616b)" d="
M194.606 89.28
L194.606 76.32
L284.606 76.32
L284.606 89.28
z
" style="fill:#e6e6e6;"/>
   </g>
   <g id="patch_6">
    <path clip-path="url(#p57f367616b)" d="
M194.606 63.36
L194.606 50.4
L284.606 50.4
L284.606 63.36
z
" style="fill:#e6e6e6;"/>
   </g>
   <g id="patch_7">
    <path clip-path="url(#p57f367616b)" d="
M194.606 37.44
L194.606 24.48
L284.606 24.48
L284.606 37.44
z
" style="fill:#e6e6e6;"/>
   </g>
   <g id="patch_8">
    <path clip-path="url(#p57f367616b)" d="
M194.606 134.64
L195.27 134.64
L195.27 130.752
L194.606 130.752
z
" style="fill:#b3de69;stroke:#000000;stroke-linejoin:miter;"/>
   </g>
   <g id="patch_9">
    <path clip-path="url(#p57f367616b)" d="
M194.606 121.68
L194.71 121.68
L194.71 117.792
L194.606 117.792
z
" style="fill:#b3de69;stroke:#000000;stroke-linejoin:miter;"/>
   </g>
   <g id="patch_10">
    <path clip-path="url(#p57f367616b)" d="
M194.606 108.72
L200.697 108.72
L200.697 104.832
L194.606 104.832
z
" style="fill:#b3de69;stroke:#000000;stroke-linejoin:miter;"/>
   </g>
   <g id="patch_11">
    <path clip-path="url(#p57f367616b)" d="
M194.606 95.76
L231.786 95.76
L231.786 91.872
L194.606 91.872
z
" style="fill:#b3de69;stroke:#000000;stroke-linejoin:miter;"/>
   </g>
   <g id="patch_12">
    <path clip-path="url(#p57f367616b)" d="
M194.606 82.8
L194.83 82.8
L194.83 78.912
L194.606 78.912
z
" style="fill:#b3de69;stroke:#000000;stroke-linejoin:miter;"/>
   </g>
   <g id="patch_13">
    <path clip-path="url(#p57f367616b)" d="
M194.606 69.84
L199.505 69.84
L199.505 65.952
L194.606 65.952
z
" style="fill:#b3de69;stroke:#000000;stroke-linejoin:miter;"/>
   </g>
   <g id="patch_14">
    <path clip-path="url(#p57f367616b)" d="
M194.606 56.88
L194.997 56.88
L194.997 52.992
L194.606 52.992
z
" style="fill:#b3de69;stroke:#000000;stroke-linejoin:miter;"/>
   </g>
   <g id="patch_15">
    <path clip-path="url(#p57f367616b)" d="
M194.606 43.92
L196.082 43.92
L196.082 40.032
L194.606 40.032
z
" style="fill:#b3de69;stroke:#000000;stroke-linejoin:miter;"/>
   </g>
   <g id="patch_16">
    <path clip-path="url(#p57f367616b)" d="
M194.606 30.96
L260.587 30.96
L260.587 27.072
L194.606 27.072
z
" style="fill:#b3de69;stroke:#000000;stroke-linejoin:miter;"/>
   </g>
   <g id="patch_17">
    <path clip-path="url(#p57f367616b)" d="
M194.606 138.528
L194.935 138.528
L194.935 134.64
L194.606 134.64
z
" style="fill:#80b1d3;stroke:#000000;stroke-linejoin:miter;"/>
   </g>
   <g id="patch_18">
    <path clip-path="url(#p57f367616b)" d="
M194.606 125.568
L194.634 125.568
L194.634 121.68
L194.606 121.68
z
" style="fill:#80b1d3;stroke:#000000;stroke-linejoin:miter;"/>
   </g>
   <g id="patch_19">
    <path clip-path="url(#p57f367616b)" d="
M194.606 112.608
L205.339 112.608
L205.339 108.72
L194.606 108.72
z
" style="fill:#80b1d3;stroke:#000000;stroke-linejoin:miter;"/>
   </g>
   <g id="patch_20">
    <path clip-path="url(#p57f367616b)" d="
M194.606 99.648
L224.774 99.648
L224.774 95.76
L194.606 95.76
z
" style="fill:#80b1d3;stroke:#000000;stroke-linejoin:miter;"/>
   </g>
   <g id="patch_21">
    <path clip-path="url(#p57f367616b)" d="
M194.606 86.688
L194.648 86.688
L194.648 82.8
L194.606 82.8
z
" style="fill:#80b1d3;stroke:#000000;stroke-linejoin:miter;"/>
   </g>
   <g id="patch_22">
    <path clip-path="url(#p57f367616b)" d="
M194.606 73.728
L196.629 73.728
L196.629 69.84
L194.606 69.84
z
" style="fill:#80b1d3;stroke:#000000;stroke-linejoin:miter;"/>
   </g>
   <g id="patch_23">
    <path clip-path="url(#p57f367616b)" d="
M194.606 60.768
L194.676 60.768
L194.676 56.88
L194.606 56.88
z
" style="fill:#80b1d3;stroke:#000000;stroke-linejoin:miter;"/>
   </g>
   <g id="patch_24">
    <path clip-path="url(#p57f367616b)" d="
M194.606 47.808
L194.911 47.808
L194.911 43.92
L194.606 43.92
z
" style="fill:#80b1d3;stroke:#000000;stroke-linejoin:miter;"/>
   </g>
   <g id="patch_25">
    <path clip-path="url(#p57f367616b)" d="
M194.606 34.848
L280.321 34.848
L280.321 30.96
L194.606 30.96
z
" style="fill:#80b1d3;stroke:#000000;stroke-linejoin:miter;"/>
   </g>
   <g id="LineCollection_1">
    <path clip-path="url(#p57f367616b)" d="
M195.063 132.696
L195.476 132.696" style="fill:none;stroke:#000000;"/>
    <path clip-path="url(#p57f367616b)" d="
M194.65 119.736
L194.771 119.736" style="fill:none;stroke:#000000;"/>
    <path clip-path="url(#p57f367616b)" d="
M199.081 106.776
L202.313 106.776" style="fill:none;stroke:#000000;"/>
    <path clip-path="url(#p57f367616b)" d="
M226.253 93.816
L237.319 93.816" style="fill:none;stroke:#000000;"/>
    <path clip-path="url(#p57f367616b)" d="
M194.704 80.856
L194.956 80.856" style="fill:none;stroke:#000000;"/>
    <path clip-path="url(#p57f367616b)" d="
M198.255 67.896
L200.755 67.896" style="fill:none;stroke:#000000;"/>
    <path clip-path="url(#p57f367616b)" d="
M194.85 54.936
L195.145 54.936" style="fill:none;stroke:#000000;"/>
    <path clip-path="url(#p57f367616b)" d="
M195.624 41.976
L196.54 41.976" style="fill:none;stroke:#000000;"/>
    <path clip-path="url(#p57f367616b)" d="
M256.657 29.016
L264.517 29.016" style="fill:none;stroke:#000000;"/>
   </g>
   <g id="LineCollection_2">
    <path clip-path="url(#p57f367616b)" d="
M194.679 136.584
L195.192 136.584" style="fill:none;stroke:#000000;"/>
    <path clip-path="url(#p57f367616b)" d="
M194.599 123.624
L194.67 123.624" style="fill:none;stroke:#000000;"/>
    <path clip-path="url(#p57f367616b)" d="
M201.575 110.664
L209.104 110.664" style="fill:none;stroke:#000000;"/>
    <path clip-path="url(#p57f367616b)" d="
M222.509 97.704
L227.039 97.704" style="fill:none;stroke:#000000;"/>
    <path clip-path="url(#p57f367616b)" d="
M194.623 84.744
L194.674 84.744" style="fill:none;stroke:#000000;"/>
    <path clip-path="url(#p57f367616b)" d="
M195.322 71.784
L197.936 71.784" style="fill:none;stroke:#000000;"/>
    <path clip-path="url(#p57f367616b)" d="
M194.65 58.824
L194.702 58.824" style="fill:none;stroke:#000000;"/>
    <path clip-path="url(#p57f367616b)" d="
M194.746 45.864
L195.076 45.864" style="fill:none;stroke:#000000;"/>
    <path clip-path="url(#p57f367616b)" d="
M272.455 32.904
L288.186 32.904" style="fill:none;stroke:#000000;"/>
   </g>
   <g id="patch_26">
    <path d="
M194.606 18
L284.606 18" style="fill:none;"/>
   </g>
   <g id="patch_27">
    <path d="
M284.606 147.6
L284.606 18" style="fill:none;"/>
   </g>
   <g id="patch_28">
    <path d="
M194.606 147.6
L284.606 147.6" style="fill:none;stroke:#7f7f7f;stroke-linecap:square;stroke-linejoin:miter;"/>
   </g>
   <g id="patch_29">
    <path d="
M194.606 147.6
L194.606 18" style="fill:none;"/>
   </g>
   <g id="matplotlib.axis_1">
    <g id="xtick_1">
     <g id="line2d_1">
      <defs>
       <path d="
M0 0
L0 -4" id="m52ec4ef45c" style="stroke:#7f7f7f;stroke-width:0.5;"/>
      </defs>
      <g>
       <use style="fill:#7f7f7f;stroke:#7f7f7f;stroke-width:0.5;" x="194.60625" xlink:href="#m52ec4ef45c" y="147.6"/>
      </g>
     </g>
     <g id="text_1">
      <!-- 0.0 -->
      <defs>
       <path d="
M31.7812 66.4062
Q24.1719 66.4062 20.3281 58.9062
Q16.5 51.4219 16.5 36.375
Q16.5 21.3906 20.3281 13.8906
Q24.1719 6.39062 31.7812 6.39062
Q39.4531 6.39062 43.2812 13.8906
Q47.125 21.3906 47.125 36.375
Q47.125 51.4219 43.2812 58.9062
Q39.4531 66.4062 31.7812 66.4062
M31.7812 74.2188
Q44.0469 74.2188 50.5156 64.5156
Q56.9844 54.8281 56.9844 36.375
Q56.9844 17.9688 50.5156 8.26562
Q44.0469 -1.42188 31.7812 -1.42188
Q19.5312 -1.42188 13.0625 8.26562
Q6.59375 17.9688 6.59375 36.375
Q6.59375 54.8281 13.0625 64.5156
Q19.5312 74.2188 31.7812 74.2188" id="BitstreamVeraSans-Roman-30"/>
       <path d="
M10.6875 12.4062
L21 12.4062
L21 0
L10.6875 0
z
" id="BitstreamVeraSans-Roman-2e"/>
      </defs>
      <g transform="translate(188.774375 157.67875)scale(0.08 -0.08)">
       <use xlink:href="#BitstreamVeraSans-Roman-30"/>
       <use x="63.623046875" xlink:href="#BitstreamVeraSans-Roman-2e"/>
       <use x="95.41015625" xlink:href="#BitstreamVeraSans-Roman-30"/>
      </g>
     </g>
    </g>
    <g id="xtick_2">
     <g id="line2d_2">
      <g>
       <use style="fill:#7f7f7f;stroke:#7f7f7f;stroke-width:0.5;" x="280.320535714" xlink:href="#m52ec4ef45c" y="147.6"/>
      </g>
     </g>
     <g id="text_2">
      <!-- 20.1 -->
      <defs>
       <path d="
M19.1875 8.29688
L53.6094 8.29688
L53.6094 0
L7.32812 0
L7.32812 8.29688
Q12.9375 14.1094 22.625 23.8906
Q32.3281 33.6875 34.8125 36.5312
Q39.5469 41.8438 41.4219 45.5312
Q43.3125 49.2188 43.3125 52.7812
Q43.3125 58.5938 39.2344 62.25
Q35.1562 65.9219 28.6094 65.9219
Q23.9688 65.9219 18.8125 64.3125
Q13.6719 62.7031 7.8125 59.4219
L7.8125 69.3906
Q13.7656 71.7812 18.9375 73
Q24.125 74.2188 28.4219 74.2188
Q39.75 74.2188 46.4844 68.5469
Q53.2188 62.8906 53.2188 53.4219
Q53.2188 48.9219 51.5312 44.8906
Q49.8594 40.875 45.4062 35.4062
Q44.1875 33.9844 37.6406 27.2188
Q31.1094 20.4531 19.1875 8.29688" id="BitstreamVeraSans-Roman-32"/>
       <path d="
M12.4062 8.29688
L28.5156 8.29688
L28.5156 63.9219
L10.9844 60.4062
L10.9844 69.3906
L28.4219 72.9062
L38.2812 72.9062
L38.2812 8.29688
L54.3906 8.29688
L54.3906 0
L12.4062 0
z
" id="BitstreamVeraSans-Roman-31"/>
      </defs>
      <g transform="translate(272.076785714 157.67875)scale(0.08 -0.08)">
       <use xlink:href="#BitstreamVeraSans-Roman-32"/>
       <use x="63.623046875" xlink:href="#BitstreamVeraSans-Roman-30"/>
       <use x="127.24609375" xlink:href="#BitstreamVeraSans-Roman-2e"/>
       <use x="159.033203125" xlink:href="#BitstreamVeraSans-Roman-31"/>
      </g>
     </g>
    </g>
    <g id="text_3">
     <!-- Mean proportion (%) -->
     <defs>
      <path id="BitstreamVeraSans-Roman-20"/>
      <path d="
M9.8125 72.9062
L24.5156 72.9062
L43.1094 23.2969
L61.8125 72.9062
L76.5156 72.9062
L76.5156 0
L66.8906 0
L66.8906 64.0156
L48.0938 14.0156
L38.1875 14.0156
L19.3906 64.0156
L19.3906 0
L9.8125 0
z
" id="BitstreamVeraSans-Roman-4d"/>
      <path d="
M72.7031 32.0781
Q68.4531 32.0781 66.0312 28.4688
Q63.625 24.8594 63.625 18.4062
Q63.625 12.0625 66.0312 8.42188
Q68.4531 4.78125 72.7031 4.78125
Q76.8594 4.78125 79.2656 8.42188
Q81.6875 12.0625 81.6875 18.4062
Q81.6875 24.8125 79.2656 28.4375
Q76.8594 32.0781 72.7031 32.0781
M72.7031 38.2812
Q80.4219 38.2812 84.9531 32.9062
Q89.5 27.5469 89.5 18.4062
Q89.5 9.28125 84.9375 3.92188
Q80.375 -1.42188 72.7031 -1.42188
Q64.8906 -1.42188 60.3438 3.92188
Q55.8125 9.28125 55.8125 18.4062
Q55.8125 27.5938 60.375 32.9375
Q64.9375 38.2812 72.7031 38.2812
M22.3125 68.0156
Q18.1094 68.0156 15.6875 64.375
Q13.2812 60.75 13.2812 54.3906
Q13.2812 47.9531 15.6719 44.3281
Q18.0625 40.7188 22.3125 40.7188
Q26.5625 40.7188 28.9688 44.3281
Q31.3906 47.9531 31.3906 54.3906
Q31.3906 60.6875 28.9531 64.3438
Q26.5156 68.0156 22.3125 68.0156
M66.4062 74.2188
L74.2188 74.2188
L28.6094 -1.42188
L20.7969 -1.42188
z

M22.3125 74.2188
Q30.0312 74.2188 34.6094 68.875
Q39.2031 63.5312 39.2031 54.3906
Q39.2031 45.1719 34.6406 39.8438
Q30.0781 34.5156 22.3125 34.5156
Q14.5469 34.5156 10.0312 39.8594
Q5.51562 45.2188 5.51562 54.3906
Q5.51562 63.4844 10.0469 68.8438
Q14.5938 74.2188 22.3125 74.2188" id="BitstreamVeraSans-Roman-25"/>
      <path d="
M54.8906 33.0156
L54.8906 0
L45.9062 0
L45.9062 32.7188
Q45.9062 40.4844 42.875 44.3281
Q39.8438 48.1875 33.7969 48.1875
Q26.5156 48.1875 22.3125 43.5469
Q18.1094 38.9219 18.1094 30.9062
L18.1094 0
L9.07812 0
L9.07812 54.6875
L18.1094 54.6875
L18.1094 46.1875
Q21.3438 51.125 25.7031 53.5625
Q30.0781 56 35.7969 56
Q45.2188 56 50.0469 50.1719
Q54.8906 44.3438 54.8906 33.0156" id="BitstreamVeraSans-Roman-6e"/>
      <path d="
M41.1094 46.2969
Q39.5938 47.1719 37.8125 47.5781
Q36.0312 48 33.8906 48
Q26.2656 48 22.1875 43.0469
Q18.1094 38.0938 18.1094 28.8125
L18.1094 0
L9.07812 0
L9.07812 54.6875
L18.1094 54.6875
L18.1094 46.1875
Q20.9531 51.1719 25.4844 53.5781
Q30.0312 56 36.5312 56
Q37.4531 56 38.5781 55.875
Q39.7031 55.7656 41.0625 55.5156
z
" id="BitstreamVeraSans-Roman-72"/>
      <path d="
M30.6094 48.3906
Q23.3906 48.3906 19.1875 42.75
Q14.9844 37.1094 14.9844 27.2969
Q14.9844 17.4844 19.1562 11.8438
Q23.3438 6.20312 30.6094 6.20312
Q37.7969 6.20312 41.9844 11.8594
Q46.1875 17.5312 46.1875 27.2969
Q46.1875 37.0156 41.9844 42.7031
Q37.7969 48.3906 30.6094 48.3906
M30.6094 56
Q42.3281 56 49.0156 48.375
Q55.7188 40.7656 55.7188 27.2969
Q55.7188 13.875 49.0156 6.21875
Q42.3281 -1.42188 30.6094 -1.42188
Q18.8438 -1.42188 12.1719 6.21875
Q5.51562 13.875 5.51562 27.2969
Q5.51562 40.7656 12.1719 48.375
Q18.8438 56 30.6094 56" id="BitstreamVeraSans-Roman-6f"/>
      <path d="
M8.01562 75.875
L15.8281 75.875
Q23.1406 64.3594 26.7812 53.3125
Q30.4219 42.2812 30.4219 31.3906
Q30.4219 20.4531 26.7812 9.375
Q23.1406 -1.70312 15.8281 -13.1875
L8.01562 -13.1875
Q14.5 -2 17.7031 9.0625
Q20.9062 20.125 20.9062 31.3906
Q20.9062 42.6719 17.7031 53.6562
Q14.5 64.6562 8.01562 75.875" id="BitstreamVeraSans-Roman-29"/>
      <path d="
M9.42188 54.6875
L18.4062 54.6875
L18.4062 0
L9.42188 0
z

M9.42188 75.9844
L18.4062 75.9844
L18.4062 64.5938
L9.42188 64.5938
z
" id="BitstreamVeraSans-Roman-69"/>
      <path d="
M31 75.875
Q24.4688 64.6562 21.2812 53.6562
Q18.1094 42.6719 18.1094 31.3906
Q18.1094 20.125 21.3125 9.0625
Q24.5156 -2 31 -13.1875
L23.1875 -13.1875
Q15.875 -1.70312 12.2344 9.375
Q8.59375 20.4531 8.59375 31.3906
Q8.59375 42.2812 12.2031 53.3125
Q15.8281 64.3594 23.1875 75.875
z
" id="BitstreamVeraSans-Roman-28"/>
      <path d="
M56.2031 29.5938
L56.2031 25.2031
L14.8906 25.2031
Q15.4844 15.9219 20.4844 11.0625
Q25.4844 6.20312 34.4219 6.20312
Q39.5938 6.20312 44.4531 7.46875
Q49.3125 8.73438 54.1094 11.2812
L54.1094 2.78125
Q49.2656 0.734375 44.1875 -0.34375
Q39.1094 -1.42188 33.8906 -1.42188
Q20.7969 -1.42188 13.1562 6.1875
Q5.51562 13.8125 5.51562 26.8125
Q5.51562 40.2344 12.7656 48.1094
Q20.0156 56 32.3281 56
Q43.3594 56 49.7812 48.8906
Q56.2031 41.7969 56.2031 29.5938
M47.2188 32.2344
Q47.125 39.5938 43.0938 43.9844
Q39.0625 48.3906 32.4219 48.3906
Q24.9062 48.3906 20.3906 44.1406
Q15.875 39.8906 15.1875 32.1719
z
" id="BitstreamVeraSans-Roman-65"/>
      <path d="
M18.3125 70.2188
L18.3125 54.6875
L36.8125 54.6875
L36.8125 47.7031
L18.3125 47.7031
L18.3125 18.0156
Q18.3125 11.3281 20.1406 9.42188
Q21.9688 7.51562 27.5938 7.51562
L36.8125 7.51562
L36.8125 0
L27.5938 0
Q17.1875 0 13.2344 3.875
Q9.28125 7.76562 9.28125 18.0156
L9.28125 47.7031
L2.6875 47.7031
L2.6875 54.6875
L9.28125 54.6875
L9.28125 70.2188
z
" id="BitstreamVeraSans-Roman-74"/>
      <path d="
M34.2812 27.4844
Q23.3906 27.4844 19.1875 25
Q14.9844 22.5156 14.9844 16.5
Q14.9844 11.7188 18.1406 8.90625
Q21.2969 6.10938 26.7031 6.10938
Q34.1875 6.10938 38.7031 11.4062
Q43.2188 16.7031 43.2188 25.4844
L43.2188 27.4844
z

M52.2031 31.2031
L52.2031 0
L43.2188 0
L43.2188 8.29688
Q40.1406 3.32812 35.5469 0.953125
Q30.9531 -1.42188 24.3125 -1.42188
Q15.9219 -1.42188 10.9531 3.29688
Q6 8.01562 6 15.9219
Q6 25.1406 12.1719 29.8281
Q18.3594 34.5156 30.6094 34.5156
L43.2188 34.5156
L43.2188 35.4062
Q43.2188 41.6094 39.1406 45
Q35.0625 48.3906 27.6875 48.3906
Q23 48.3906 18.5469 47.2656
Q14.1094 46.1406 10.0156 43.8906
L10.0156 52.2031
Q14.9375 54.1094 19.5781 55.0469
Q24.2188 56 28.6094 56
Q40.4844 56 46.3438 49.8438
Q52.2031 43.7031 52.2031 31.2031" id="BitstreamVeraSans-Roman-61"/>
      <path d="
M18.1094 8.20312
L18.1094 -20.7969
L9.07812 -20.7969
L9.07812 54.6875
L18.1094 54.6875
L18.1094 46.3906
Q20.9531 51.2656 25.2656 53.625
Q29.5938 56 35.5938 56
Q45.5625 56 51.7812 48.0938
Q58.0156 40.1875 58.0156 27.2969
Q58.0156 14.4062 51.7812 6.48438
Q45.5625 -1.42188 35.5938 -1.42188
Q29.5938 -1.42188 25.2656 0.953125
Q20.9531 3.32812 18.1094 8.20312
M48.6875 27.2969
Q48.6875 37.2031 44.6094 42.8438
Q40.5312 48.4844 33.4062 48.4844
Q26.2656 48.4844 22.1875 42.8438
Q18.1094 37.2031 18.1094 27.2969
Q18.1094 17.3906 22.1875 11.75
Q26.2656 6.10938 33.4062 6.10938
Q40.5312 6.10938 44.6094 11.75
Q48.6875 17.3906 48.6875 27.2969" id="BitstreamVeraSans-Roman-70"/>
     </defs>
     <g transform="translate(198.7525 170.42125)scale(0.08 -0.08)">
      <use xlink:href="#BitstreamVeraSans-Roman-4d"/>
      <use x="86.279296875" xlink:href="#BitstreamVeraSans-Roman-65"/>
      <use x="147.802734375" xlink:href="#BitstreamVeraSans-Roman-61"/>
      <use x="209.08203125" xlink:href="#BitstreamVeraSans-Roman-6e"/>
      <use x="272.4609375" xlink:href="#BitstreamVeraSans-Roman-20"/>
      <use x="304.248046875" xlink:href="#BitstreamVeraSans-Roman-70"/>
      <use x="367.724609375" xlink:href="#BitstreamVeraSans-Roman-72"/>
      <use x="406.587890625" xlink:href="#BitstreamVeraSans-Roman-6f"/>
      <use x="467.76953125" xlink:href="#BitstreamVeraSans-Roman-70"/>
      <use x="531.24609375" xlink:href="#BitstreamVeraSans-Roman-6f"/>
      <use x="592.427734375" xlink:href="#BitstreamVeraSans-Roman-72"/>
      <use x="633.541015625" xlink:href="#BitstreamVeraSans-Roman-74"/>
      <use x="672.75" xlink:href="#BitstreamVeraSans-Roman-69"/>
      <use x="700.533203125" xlink:href="#BitstreamVeraSans-Roman-6f"/>
      <use x="761.71484375" xlink:href="#BitstreamVeraSans-Roman-6e"/>
      <use x="825.09375" xlink:href="#BitstreamVeraSans-Roman-20"/>
      <use x="856.880859375" xlink:href="#BitstreamVeraSans-Roman-28"/>
      <use x="895.89453125" xlink:href="#BitstreamVeraSans-Roman-25"/>
      <use x="990.9140625" xlink:href="#BitstreamVeraSans-Roman-29"/>
     </g>
    </g>
   </g>
   <g id="matplotlib.axis_2">
    <g id="ytick_1">
     <g id="text_4">
      <!-- Bacteria|Planctomycetes|Planctomycetacia -->
      <defs>
       <path d="
M52 44.1875
Q55.375 50.25 60.0625 53.125
Q64.75 56 71.0938 56
Q79.6406 56 84.2812 50.0156
Q88.9219 44.0469 88.9219 33.0156
L88.9219 0
L79.8906 0
L79.8906 32.7188
Q79.8906 40.5781 77.0938 44.375
Q74.3125 48.1875 68.6094 48.1875
Q61.625 48.1875 57.5625 43.5469
Q53.5156 38.9219 53.5156 30.9062
L53.5156 0
L44.4844 0
L44.4844 32.7188
Q44.4844 40.625 41.7031 44.4062
Q38.9219 48.1875 33.1094 48.1875
Q26.2188 48.1875 22.1562 43.5312
Q18.1094 38.875 18.1094 30.9062
L18.1094 0
L9.07812 0
L9.07812 54.6875
L18.1094 54.6875
L18.1094 46.1875
Q21.1875 51.2188 25.4844 53.6094
Q29.7812 56 35.6875 56
Q41.6562 56 45.8281 52.9688
Q50 49.9531 52 44.1875" id="BitstreamVeraSans-Roman-6d"/>
       <path d="
M21 76.4219
L21 -23.5781
L12.7031 -23.5781
L12.7031 76.4219
z
" id="BitstreamVeraSans-Roman-7c"/>
       <path d="
M9.42188 75.9844
L18.4062 75.9844
L18.4062 0
L9.42188 0
z
" id="BitstreamVeraSans-Roman-6c"/>
       <path d="
M19.6719 64.7969
L19.6719 37.4062
L32.0781 37.4062
Q38.9688 37.4062 42.7188 40.9688
Q46.4844 44.5312 46.4844 51.125
Q46.4844 57.6719 42.7188 61.2344
Q38.9688 64.7969 32.0781 64.7969
z

M9.8125 72.9062
L32.0781 72.9062
Q44.3438 72.9062 50.6094 67.3594
Q56.8906 61.8125 56.8906 51.125
Q56.8906 40.3281 50.6094 34.8125
Q44.3438 29.2969 32.0781 29.2969
L19.6719 29.2969
L19.6719 0
L9.8125 0
z
" id="BitstreamVeraSans-Roman-50"/>
       <path d="
M19.6719 34.8125
L19.6719 8.10938
L35.5 8.10938
Q43.4531 8.10938 47.2812 11.4062
Q51.125 14.7031 51.125 21.4844
Q51.125 28.3281 47.2812 31.5625
Q43.4531 34.8125 35.5 34.8125
z

M19.6719 64.7969
L19.6719 42.8281
L34.2812 42.8281
Q41.5 42.8281 45.0312 45.5312
Q48.5781 48.25 48.5781 53.8125
Q48.5781 59.3281 45.0312 62.0625
Q41.5 64.7969 34.2812 64.7969
z

M9.8125 72.9062
L35.0156 72.9062
Q46.2969 72.9062 52.3906 68.2188
Q58.5 63.5312 58.5 54.8906
Q58.5 48.1875 55.375 44.2344
Q52.25 40.2812 46.1875 39.3125
Q53.4688 37.75 57.5 32.7812
Q61.5312 27.8281 61.5312 20.4062
Q61.5312 10.6406 54.8906 5.3125
Q48.25 0 35.9844 0
L9.8125 0
z
" id="BitstreamVeraSans-Roman-42"/>
       <path d="
M32.1719 -5.07812
Q28.375 -14.8438 24.75 -17.8125
Q21.1406 -20.7969 15.0938 -20.7969
L7.90625 -20.7969
L7.90625 -13.2812
L13.1875 -13.2812
Q16.8906 -13.2812 18.9375 -11.5156
Q21 -9.76562 23.4844 -3.21875
L25.0938 0.875
L2.98438 54.6875
L12.5 54.6875
L29.5938 11.9219
L46.6875 54.6875
L56.2031 54.6875
z
" id="BitstreamVeraSans-Roman-79"/>
       <path d="
M44.2812 53.0781
L44.2812 44.5781
Q40.4844 46.5312 36.375 47.5
Q32.2812 48.4844 27.875 48.4844
Q21.1875 48.4844 17.8438 46.4375
Q14.5 44.3906 14.5 40.2812
Q14.5 37.1562 16.8906 35.375
Q19.2812 33.5938 26.5156 31.9844
L29.5938 31.2969
Q39.1562 29.25 43.1875 25.5156
Q47.2188 21.7812 47.2188 15.0938
Q47.2188 7.46875 41.1875 3.01562
Q35.1562 -1.42188 24.6094 -1.42188
Q20.2188 -1.42188 15.4531 -0.5625
Q10.6875 0.296875 5.42188 2
L5.42188 11.2812
Q10.4062 8.6875 15.2344 7.39062
Q20.0625 6.10938 24.8125 6.10938
Q31.1562 6.10938 34.5625 8.28125
Q37.9844 10.4531 37.9844 14.4062
Q37.9844 18.0625 35.5156 20.0156
Q33.0625 21.9688 24.7031 23.7812
L21.5781 24.5156
Q13.2344 26.2656 9.51562 29.9062
Q5.8125 33.5469 5.8125 39.8906
Q5.8125 47.6094 11.2812 51.7969
Q16.75 56 26.8125 56
Q31.7812 56 36.1719 55.2656
Q40.5781 54.5469 44.2812 53.0781" id="BitstreamVeraSans-Roman-73"/>
       <path d="
M48.7812 52.5938
L48.7812 44.1875
Q44.9688 46.2969 41.1406 47.3438
Q37.3125 48.3906 33.4062 48.3906
Q24.6562 48.3906 19.8125 42.8438
Q14.9844 37.3125 14.9844 27.2969
Q14.9844 17.2812 19.8125 11.7344
Q24.6562 6.20312 33.4062 6.20312
Q37.3125 6.20312 41.1406 7.25
Q44.9688 8.29688 48.7812 10.4062
L48.7812 2.09375
Q45.0156 0.34375 40.9844 -0.53125
Q36.9688 -1.42188 32.4219 -1.42188
Q20.0625 -1.42188 12.7812 6.34375
Q5.51562 14.1094 5.51562 27.2969
Q5.51562 40.6719 12.8594 48.3281
Q20.2188 56 33.0156 56
Q37.1562 56 41.1094 55.1406
Q45.0625 54.2969 48.7812 52.5938" id="BitstreamVeraSans-Roman-63"/>
      </defs>
      <g transform="translate(19.08125 136.75375)scale(0.08 -0.08)">
       <use xlink:href="#BitstreamVeraSans-Roman-42"/>
       <use x="68.603515625" xlink:href="#BitstreamVeraSans-Roman-61"/>
       <use x="129.8828125" xlink:href="#BitstreamVeraSans-Roman-63"/>
       <use x="184.86328125" xlink:href="#BitstreamVeraSans-Roman-74"/>
       <use x="224.072265625" xlink:href="#BitstreamVeraSans-Roman-65"/>
       <use x="285.595703125" xlink:href="#BitstreamVeraSans-Roman-72"/>
       <use x="326.708984375" xlink:href="#BitstreamVeraSans-Roman-69"/>
       <use x="354.4921875" xlink:href="#BitstreamVeraSans-Roman-61"/>
       <use x="415.771484375" xlink:href="#BitstreamVeraSans-Roman-7c"/>
       <use x="449.462890625" xlink:href="#BitstreamVeraSans-Roman-50"/>
       <use x="509.765625" xlink:href="#BitstreamVeraSans-Roman-6c"/>
       <use x="537.548828125" xlink:href="#BitstreamVeraSans-Roman-61"/>
       <use x="598.828125" xlink:href="#BitstreamVeraSans-Roman-6e"/>
       <use x="662.20703125" xlink:href="#BitstreamVeraSans-Roman-63"/>
       <use x="717.1875" xlink:href="#BitstreamVeraSans-Roman-74"/>
       <use x="756.396484375" xlink:href="#BitstreamVeraSans-Roman-6f"/>
       <use x="817.578125" xlink:href="#BitstreamVeraSans-Roman-6d"/>
       <use x="914.990234375" xlink:href="#BitstreamVeraSans-Roman-79"/>
       <use x="974.169921875" xlink:href="#BitstreamVeraSans-Roman-63"/>
       <use x="1029.15039062" xlink:href="#BitstreamVeraSans-Roman-65"/>
       <use x="1090.67382812" xlink:href="#BitstreamVeraSans-Roman-74"/>
       <use x="1129.8828125" xlink:href="#BitstreamVeraSans-Roman-65"/>
       <use x="1191.40625" xlink:href="#BitstreamVeraSans-Roman-73"/>
       <use x="1243.50585938" xlink:href="#BitstreamVeraSans-Roman-7c"/>
       <use x="1277.19726562" xlink:href="#BitstreamVeraSans-Roman-50"/>
       <use x="1337.5" xlink:href="#BitstreamVeraSans-Roman-6c"/>
       <use x="1365.28320312" xlink:href="#BitstreamVeraSans-Roman-61"/>
       <use x="1426.5625" xlink:href="#BitstreamVeraSans-Roman-6e"/>
       <use x="1489.94140625" xlink:href="#BitstreamVeraSans-Roman-63"/>
       <use x="1544.921875" xlink:href="#BitstreamVeraSans-Roman-74"/>
       <use x="1584.13085938" xlink:href="#BitstreamVeraSans-Roman-6f"/>
       <use x="1645.3125" xlink:href="#BitstreamVeraSans-Roman-6d"/>
       <use x="1742.72460938" xlink:href="#BitstreamVeraSans-Roman-79"/>
       <use x="1801.90429688" xlink:href="#BitstreamVeraSans-Roman-63"/>
       <use x="1856.88476562" xlink:href="#BitstreamVeraSans-Roman-65"/>
       <use x="1918.40820312" xlink:href="#BitstreamVeraSans-Roman-74"/>
       <use x="1957.6171875" xlink:href="#BitstreamVeraSans-Roman-61"/>
       <use x="2018.89648438" xlink:href="#BitstreamVeraSans-Roman-63"/>
       <use x="2073.87695312" xlink:href="#BitstreamVeraSans-Roman-69"/>
       <use x="2101.66015625" xlink:href="#BitstreamVeraSans-Roman-61"/>
      </g>
     </g>
    </g>
    <g id="ytick_2">
     <g id="text_5">
      <!-- Bacteria|Verrucomicrobia|Verrucomicrobiae -->
      <defs>
       <path d="
M8.5 21.5781
L8.5 54.6875
L17.4844 54.6875
L17.4844 21.9219
Q17.4844 14.1562 20.5 10.2656
Q23.5312 6.39062 29.5938 6.39062
Q36.8594 6.39062 41.0781 11.0312
Q45.3125 15.6719 45.3125 23.6875
L45.3125 54.6875
L54.2969 54.6875
L54.2969 0
L45.3125 0
L45.3125 8.40625
Q42.0469 3.42188 37.7188 1
Q33.4062 -1.42188 27.6875 -1.42188
Q18.2656 -1.42188 13.375 4.4375
Q8.5 10.2969 8.5 21.5781" id="BitstreamVeraSans-Roman-75"/>
       <path d="
M28.6094 0
L0.78125 72.9062
L11.0781 72.9062
L34.1875 11.5312
L57.3281 72.9062
L67.5781 72.9062
L39.7969 0
z
" id="BitstreamVeraSans-Roman-56"/>
       <path d="
M48.6875 27.2969
Q48.6875 37.2031 44.6094 42.8438
Q40.5312 48.4844 33.4062 48.4844
Q26.2656 48.4844 22.1875 42.8438
Q18.1094 37.2031 18.1094 27.2969
Q18.1094 17.3906 22.1875 11.75
Q26.2656 6.10938 33.4062 6.10938
Q40.5312 6.10938 44.6094 11.75
Q48.6875 17.3906 48.6875 27.2969
M18.1094 46.3906
Q20.9531 51.2656 25.2656 53.625
Q29.5938 56 35.5938 56
Q45.5625 56 51.7812 48.0938
Q58.0156 40.1875 58.0156 27.2969
Q58.0156 14.4062 51.7812 6.48438
Q45.5625 -1.42188 35.5938 -1.42188
Q29.5938 -1.42188 25.2656 0.953125
Q20.9531 3.32812 18.1094 8.20312
L18.1094 0
L9.07812 0
L9.07812 75.9844
L18.1094 75.9844
z
" id="BitstreamVeraSans-Roman-62"/>
      </defs>
      <g transform="translate(17.8475 123.79375)scale(0.08 -0.08)">
       <use xlink:href="#BitstreamVeraSans-Roman-42"/>
       <use x="68.603515625" xlink:href="#BitstreamVeraSans-Roman-61"/>
       <use x="129.8828125" xlink:href="#BitstreamVeraSans-Roman-63"/>
       <use x="184.86328125" xlink:href="#BitstreamVeraSans-Roman-74"/>
       <use x="224.072265625" xlink:href="#BitstreamVeraSans-Roman-65"/>
       <use x="285.595703125" xlink:href="#BitstreamVeraSans-Roman-72"/>
       <use x="326.708984375" xlink:href="#BitstreamVeraSans-Roman-69"/>
       <use x="354.4921875" xlink:href="#BitstreamVeraSans-Roman-61"/>
       <use x="415.771484375" xlink:href="#BitstreamVeraSans-Roman-7c"/>
       <use x="449.462890625" xlink:href="#BitstreamVeraSans-Roman-56"/>
       <use x="510.12109375" xlink:href="#BitstreamVeraSans-Roman-65"/>
       <use x="571.64453125" xlink:href="#BitstreamVeraSans-Roman-72"/>
       <use x="611.0078125" xlink:href="#BitstreamVeraSans-Roman-72"/>
       <use x="652.12109375" xlink:href="#BitstreamVeraSans-Roman-75"/>
       <use x="715.5" xlink:href="#BitstreamVeraSans-Roman-63"/>
       <use x="770.48046875" xlink:href="#BitstreamVeraSans-Roman-6f"/>
       <use x="831.662109375" xlink:href="#BitstreamVeraSans-Roman-6d"/>
       <use x="929.07421875" xlink:href="#BitstreamVeraSans-Roman-69"/>
       <use x="956.857421875" xlink:href="#BitstreamVeraSans-Roman-63"/>
       <use x="1011.83789062" xlink:href="#BitstreamVeraSans-Roman-72"/>
       <use x="1050.70117188" xlink:href="#BitstreamVeraSans-Roman-6f"/>
       <use x="1111.8828125" xlink:href="#BitstreamVeraSans-Roman-62"/>
       <use x="1175.359375" xlink:href="#BitstreamVeraSans-Roman-69"/>
       <use x="1203.14257812" xlink:href="#BitstreamVeraSans-Roman-61"/>
       <use x="1264.421875" xlink:href="#BitstreamVeraSans-Roman-7c"/>
       <use x="1298.11328125" xlink:href="#BitstreamVeraSans-Roman-56"/>
       <use x="1358.77148438" xlink:href="#BitstreamVeraSans-Roman-65"/>
       <use x="1420.29492188" xlink:href="#BitstreamVeraSans-Roman-72"/>
       <use x="1459.65820312" xlink:href="#BitstreamVeraSans-Roman-72"/>
       <use x="1500.77148438" xlink:href="#BitstreamVeraSans-Roman-75"/>
       <use x="1564.15039062" xlink:href="#BitstreamVeraSans-Roman-63"/>
       <use x="1619.13085938" xlink:href="#BitstreamVeraSans-Roman-6f"/>
       <use x="1680.3125" xlink:href="#BitstreamVeraSans-Roman-6d"/>
       <use x="1777.72460938" xlink:href="#BitstreamVeraSans-Roman-69"/>
       <use x="1805.5078125" xlink:href="#BitstreamVeraSans-Roman-63"/>
       <use x="1860.48828125" xlink:href="#BitstreamVeraSans-Roman-72"/>
       <use x="1899.3515625" xlink:href="#BitstreamVeraSans-Roman-6f"/>
       <use x="1960.53320312" xlink:href="#BitstreamVeraSans-Roman-62"/>
       <use x="2024.00976562" xlink:href="#BitstreamVeraSans-Roman-69"/>
       <use x="2051.79296875" xlink:href="#BitstreamVeraSans-Roman-61"/>
       <use x="2113.07226562" xlink:href="#BitstreamVeraSans-Roman-65"/>
      </g>
     </g>
    </g>
    <g id="ytick_3">
     <g id="text_6">
      <!-- Bacteria|Firmicutes|Bacilli -->
      <defs>
       <path d="
M9.8125 72.9062
L51.7031 72.9062
L51.7031 64.5938
L19.6719 64.5938
L19.6719 43.1094
L48.5781 43.1094
L48.5781 34.8125
L19.6719 34.8125
L19.6719 0
L9.8125 0
z
" id="BitstreamVeraSans-Roman-46"/>
      </defs>
      <g transform="translate(88.70625 110.83375)scale(0.08 -0.08)">
       <use xlink:href="#BitstreamVeraSans-Roman-42"/>
       <use x="68.603515625" xlink:href="#BitstreamVeraSans-Roman-61"/>
       <use x="129.8828125" xlink:href="#BitstreamVeraSans-Roman-63"/>
       <use x="184.86328125" xlink:href="#BitstreamVeraSans-Roman-74"/>
       <use x="224.072265625" xlink:href="#BitstreamVeraSans-Roman-65"/>
       <use x="285.595703125" xlink:href="#BitstreamVeraSans-Roman-72"/>
       <use x="326.708984375" xlink:href="#BitstreamVeraSans-Roman-69"/>
       <use x="354.4921875" xlink:href="#BitstreamVeraSans-Roman-61"/>
       <use x="415.771484375" xlink:href="#BitstreamVeraSans-Roman-7c"/>
       <use x="449.462890625" xlink:href="#BitstreamVeraSans-Roman-46"/>
       <use x="499.732421875" xlink:href="#BitstreamVeraSans-Roman-69"/>
       <use x="527.515625" xlink:href="#BitstreamVeraSans-Roman-72"/>
       <use x="566.87890625" xlink:href="#BitstreamVeraSans-Roman-6d"/>
       <use x="664.291015625" xlink:href="#BitstreamVeraSans-Roman-69"/>
       <use x="692.07421875" xlink:href="#BitstreamVeraSans-Roman-63"/>
       <use x="747.0546875" xlink:href="#BitstreamVeraSans-Roman-75"/>
       <use x="810.43359375" xlink:href="#BitstreamVeraSans-Roman-74"/>
       <use x="849.642578125" xlink:href="#BitstreamVeraSans-Roman-65"/>
       <use x="911.166015625" xlink:href="#BitstreamVeraSans-Roman-73"/>
       <use x="963.265625" xlink:href="#BitstreamVeraSans-Roman-7c"/>
       <use x="996.95703125" xlink:href="#BitstreamVeraSans-Roman-42"/>
       <use x="1065.56054688" xlink:href="#BitstreamVeraSans-Roman-61"/>
       <use x="1126.83984375" xlink:href="#BitstreamVeraSans-Roman-63"/>
       <use x="1181.8203125" xlink:href="#BitstreamVeraSans-Roman-69"/>
       <use x="1209.60351562" xlink:href="#BitstreamVeraSans-Roman-6c"/>
       <use x="1237.38671875" xlink:href="#BitstreamVeraSans-Roman-6c"/>
       <use x="1265.16992188" xlink:href="#BitstreamVeraSans-Roman-69"/>
      </g>
     </g>
    </g>
    <g id="ytick_4">
     <g id="text_7">
      <!-- Bacteria|Proteobacteria|Gammaproteobacteria -->
      <defs>
       <path d="
M59.5156 10.4062
L59.5156 29.9844
L43.4062 29.9844
L43.4062 38.0938
L69.2812 38.0938
L69.2812 6.78125
Q63.5781 2.73438 56.6875 0.65625
Q49.8125 -1.42188 42 -1.42188
Q24.9062 -1.42188 15.25 8.5625
Q5.60938 18.5625 5.60938 36.375
Q5.60938 54.25 15.25 64.2344
Q24.9062 74.2188 42 74.2188
Q49.125 74.2188 55.5469 72.4531
Q61.9688 70.7031 67.3906 67.2812
L67.3906 56.7812
Q61.9219 61.4219 55.7656 63.7656
Q49.6094 66.1094 42.8281 66.1094
Q29.4375 66.1094 22.7188 58.6406
Q16.0156 51.1719 16.0156 36.375
Q16.0156 21.625 22.7188 14.1562
Q29.4375 6.6875 42.8281 6.6875
Q48.0469 6.6875 52.1406 7.59375
Q56.25 8.5 59.5156 10.4062" id="BitstreamVeraSans-Roman-47"/>
      </defs>
      <g transform="translate(4.49375 97.87375)scale(0.08 -0.08)">
       <use xlink:href="#BitstreamVeraSans-Roman-42"/>
       <use x="68.603515625" xlink:href="#BitstreamVeraSans-Roman-61"/>
       <use x="129.8828125" xlink:href="#BitstreamVeraSans-Roman-63"/>
       <use x="184.86328125" xlink:href="#BitstreamVeraSans-Roman-74"/>
       <use x="224.072265625" xlink:href="#BitstreamVeraSans-Roman-65"/>
       <use x="285.595703125" xlink:href="#BitstreamVeraSans-Roman-72"/>
       <use x="326.708984375" xlink:href="#BitstreamVeraSans-Roman-69"/>
       <use x="354.4921875" xlink:href="#BitstreamVeraSans-Roman-61"/>
       <use x="415.771484375" xlink:href="#BitstreamVeraSans-Roman-7c"/>
       <use x="449.462890625" xlink:href="#BitstreamVeraSans-Roman-50"/>
       <use x="508.015625" xlink:href="#BitstreamVeraSans-Roman-72"/>
       <use x="546.87890625" xlink:href="#BitstreamVeraSans-Roman-6f"/>
       <use x="608.060546875" xlink:href="#BitstreamVeraSans-Roman-74"/>
       <use x="647.26953125" xlink:href="#BitstreamVeraSans-Roman-65"/>
       <use x="708.79296875" xlink:href="#BitstreamVeraSans-Roman-6f"/>
       <use x="769.974609375" xlink:href="#BitstreamVeraSans-Roman-62"/>
       <use x="833.451171875" xlink:href="#BitstreamVeraSans-Roman-61"/>
       <use x="894.73046875" xlink:href="#BitstreamVeraSans-Roman-63"/>
       <use x="949.7109375" xlink:href="#BitstreamVeraSans-Roman-74"/>
       <use x="988.919921875" xlink:href="#BitstreamVeraSans-Roman-65"/>
       <use x="1050.44335938" xlink:href="#BitstreamVeraSans-Roman-72"/>
       <use x="1091.55664062" xlink:href="#BitstreamVeraSans-Roman-69"/>
       <use x="1119.33984375" xlink:href="#BitstreamVeraSans-Roman-61"/>
       <use x="1180.61914062" xlink:href="#BitstreamVeraSans-Roman-7c"/>
       <use x="1214.31054688" xlink:href="#BitstreamVeraSans-Roman-47"/>
       <use x="1291.80078125" xlink:href="#BitstreamVeraSans-Roman-61"/>
       <use x="1353.08007812" xlink:href="#BitstreamVeraSans-Roman-6d"/>
       <use x="1450.4921875" xlink:href="#BitstreamVeraSans-Roman-6d"/>
       <use x="1547.90429688" xlink:href="#BitstreamVeraSans-Roman-61"/>
       <use x="1609.18359375" xlink:href="#BitstreamVeraSans-Roman-70"/>
       <use x="1672.66015625" xlink:href="#BitstreamVeraSans-Roman-72"/>
       <use x="1711.5234375" xlink:href="#BitstreamVeraSans-Roman-6f"/>
       <use x="1772.70507812" xlink:href="#BitstreamVeraSans-Roman-74"/>
       <use x="1811.9140625" xlink:href="#BitstreamVeraSans-Roman-65"/>
       <use x="1873.4375" xlink:href="#BitstreamVeraSans-Roman-6f"/>
       <use x="1934.61914062" xlink:href="#BitstreamVeraSans-Roman-62"/>
       <use x="1998.09570312" xlink:href="#BitstreamVeraSans-Roman-61"/>
       <use x="2059.375" xlink:href="#BitstreamVeraSans-Roman-63"/>
       <use x="2114.35546875" xlink:href="#BitstreamVeraSans-Roman-74"/>
       <use x="2153.56445312" xlink:href="#BitstreamVeraSans-Roman-65"/>
       <use x="2215.08789062" xlink:href="#BitstreamVeraSans-Roman-72"/>
       <use x="2256.20117188" xlink:href="#BitstreamVeraSans-Roman-69"/>
       <use x="2283.984375" xlink:href="#BitstreamVeraSans-Roman-61"/>
      </g>
     </g>
    </g>
    <g id="ytick_5">
     <g id="text_8">
      <!-- Bacteria|Acidobacteria|Vicinamibacteria -->
      <defs>
       <path d="
M45.4062 46.3906
L45.4062 75.9844
L54.3906 75.9844
L54.3906 0
L45.4062 0
L45.4062 8.20312
Q42.5781 3.32812 38.25 0.953125
Q33.9375 -1.42188 27.875 -1.42188
Q17.9688 -1.42188 11.7344 6.48438
Q5.51562 14.4062 5.51562 27.2969
Q5.51562 40.1875 11.7344 48.0938
Q17.9688 56 27.875 56
Q33.9375 56 38.25 53.625
Q42.5781 51.2656 45.4062 46.3906
M14.7969 27.2969
Q14.7969 17.3906 18.875 11.75
Q22.9531 6.10938 30.0781 6.10938
Q37.2031 6.10938 41.2969 11.75
Q45.4062 17.3906 45.4062 27.2969
Q45.4062 37.2031 41.2969 42.8438
Q37.2031 48.4844 30.0781 48.4844
Q22.9531 48.4844 18.875 42.8438
Q14.7969 37.2031 14.7969 27.2969" id="BitstreamVeraSans-Roman-64"/>
       <path d="
M34.1875 63.1875
L20.7969 26.9062
L47.6094 26.9062
z

M28.6094 72.9062
L39.7969 72.9062
L67.5781 0
L57.3281 0
L50.6875 18.7031
L17.8281 18.7031
L11.1875 0
L0.78125 0
z
" id="BitstreamVeraSans-Roman-41"/>
      </defs>
      <g transform="translate(31.70875 84.91375)scale(0.08 -0.08)">
       <use xlink:href="#BitstreamVeraSans-Roman-42"/>
       <use x="68.603515625" xlink:href="#BitstreamVeraSans-Roman-61"/>
       <use x="129.8828125" xlink:href="#BitstreamVeraSans-Roman-63"/>
       <use x="184.86328125" xlink:href="#BitstreamVeraSans-Roman-74"/>
       <use x="224.072265625" xlink:href="#BitstreamVeraSans-Roman-65"/>
       <use x="285.595703125" xlink:href="#BitstreamVeraSans-Roman-72"/>
       <use x="326.708984375" xlink:href="#BitstreamVeraSans-Roman-69"/>
       <use x="354.4921875" xlink:href="#BitstreamVeraSans-Roman-61"/>
       <use x="415.771484375" xlink:href="#BitstreamVeraSans-Roman-7c"/>
       <use x="449.462890625" xlink:href="#BitstreamVeraSans-Roman-41"/>
       <use x="516.12109375" xlink:href="#BitstreamVeraSans-Roman-63"/>
       <use x="571.1015625" xlink:href="#BitstreamVeraSans-Roman-69"/>
       <use x="598.884765625" xlink:href="#BitstreamVeraSans-Roman-64"/>
       <use x="662.361328125" xlink:href="#BitstreamVeraSans-Roman-6f"/>
       <use x="723.54296875" xlink:href="#BitstreamVeraSans-Roman-62"/>
       <use x="787.01953125" xlink:href="#BitstreamVeraSans-Roman-61"/>
       <use x="848.298828125" xlink:href="#BitstreamVeraSans-Roman-63"/>
       <use x="903.279296875" xlink:href="#BitstreamVeraSans-Roman-74"/>
       <use x="942.48828125" xlink:href="#BitstreamVeraSans-Roman-65"/>
       <use x="1004.01171875" xlink:href="#BitstreamVeraSans-Roman-72"/>
       <use x="1045.125" xlink:href="#BitstreamVeraSans-Roman-69"/>
       <use x="1072.90820312" xlink:href="#BitstreamVeraSans-Roman-61"/>
       <use x="1134.1875" xlink:href="#BitstreamVeraSans-Roman-7c"/>
       <use x="1167.87890625" xlink:href="#BitstreamVeraSans-Roman-56"/>
       <use x="1234.03710938" xlink:href="#BitstreamVeraSans-Roman-69"/>
       <use x="1261.8203125" xlink:href="#BitstreamVeraSans-Roman-63"/>
       <use x="1316.80078125" xlink:href="#BitstreamVeraSans-Roman-69"/>
       <use x="1344.58398438" xlink:href="#BitstreamVeraSans-Roman-6e"/>
       <use x="1407.96289062" xlink:href="#BitstreamVeraSans-Roman-61"/>
       <use x="1469.2421875" xlink:href="#BitstreamVeraSans-Roman-6d"/>
       <use x="1566.65429688" xlink:href="#BitstreamVeraSans-Roman-69"/>
       <use x="1594.4375" xlink:href="#BitstreamVeraSans-Roman-62"/>
       <use x="1657.9140625" xlink:href="#BitstreamVeraSans-Roman-61"/>
       <use x="1719.19335938" xlink:href="#BitstreamVeraSans-Roman-63"/>
       <use x="1774.17382812" xlink:href="#BitstreamVeraSans-Roman-74"/>
       <use x="1813.3828125" xlink:href="#BitstreamVeraSans-Roman-65"/>
       <use x="1874.90625" xlink:href="#BitstreamVeraSans-Roman-72"/>
       <use x="1916.01953125" xlink:href="#BitstreamVeraSans-Roman-69"/>
       <use x="1943.80273438" xlink:href="#BitstreamVeraSans-Roman-61"/>
      </g>
     </g>
    </g>
    <g id="ytick_6">
     <g id="text_9">
      <!-- Bacteria|Bacteroidetes|Cytophagia -->
      <defs>
       <path d="
M45.4062 27.9844
Q45.4062 37.75 41.375 43.1094
Q37.3594 48.4844 30.0781 48.4844
Q22.8594 48.4844 18.8281 43.1094
Q14.7969 37.75 14.7969 27.9844
Q14.7969 18.2656 18.8281 12.8906
Q22.8594 7.51562 30.0781 7.51562
Q37.3594 7.51562 41.375 12.8906
Q45.4062 18.2656 45.4062 27.9844
M54.3906 6.78125
Q54.3906 -7.17188 48.1875 -13.9844
Q42 -20.7969 29.2031 -20.7969
Q24.4688 -20.7969 20.2656 -20.0938
Q16.0625 -19.3906 12.1094 -17.9219
L12.1094 -9.1875
Q16.0625 -11.3281 19.9219 -12.3438
Q23.7812 -13.375 27.7812 -13.375
Q36.625 -13.375 41.0156 -8.76562
Q45.4062 -4.15625 45.4062 5.17188
L45.4062 9.625
Q42.625 4.78125 38.2812 2.39062
Q33.9375 0 27.875 0
Q17.8281 0 11.6719 7.65625
Q5.51562 15.3281 5.51562 27.9844
Q5.51562 40.6719 11.6719 48.3281
Q17.8281 56 27.875 56
Q33.9375 56 38.2812 53.6094
Q42.625 51.2188 45.4062 46.3906
L45.4062 54.6875
L54.3906 54.6875
z
" id="BitstreamVeraSans-Roman-67"/>
       <path d="
M64.4062 67.2812
L64.4062 56.8906
Q59.4219 61.5312 53.7812 63.8125
Q48.1406 66.1094 41.7969 66.1094
Q29.2969 66.1094 22.6562 58.4688
Q16.0156 50.8281 16.0156 36.375
Q16.0156 21.9688 22.6562 14.3281
Q29.2969 6.6875 41.7969 6.6875
Q48.1406 6.6875 53.7812 8.98438
Q59.4219 11.2812 64.4062 15.9219
L64.4062 5.60938
Q59.2344 2.09375 53.4375 0.328125
Q47.6562 -1.42188 41.2188 -1.42188
Q24.6562 -1.42188 15.125 8.70312
Q5.60938 18.8438 5.60938 36.375
Q5.60938 53.9531 15.125 64.0781
Q24.6562 74.2188 41.2188 74.2188
Q47.75 74.2188 53.5312 72.4844
Q59.3281 70.75 64.4062 67.2812" id="BitstreamVeraSans-Roman-43"/>
       <path d="
M54.8906 33.0156
L54.8906 0
L45.9062 0
L45.9062 32.7188
Q45.9062 40.4844 42.875 44.3281
Q39.8438 48.1875 33.7969 48.1875
Q26.5156 48.1875 22.3125 43.5469
Q18.1094 38.9219 18.1094 30.9062
L18.1094 0
L9.07812 0
L9.07812 75.9844
L18.1094 75.9844
L18.1094 46.1875
Q21.3438 51.125 25.7031 53.5625
Q30.0781 56 35.7969 56
Q45.2188 56 50.0469 50.1719
Q54.8906 44.3438 54.8906 33.0156" id="BitstreamVeraSans-Roman-68"/>
      </defs>
      <g transform="translate(52.555 71.95375)scale(0.08 -0.08)">
       <use xlink:href="#BitstreamVeraSans-Roman-42"/>
       <use x="68.603515625" xlink:href="#BitstreamVeraSans-Roman-61"/>
       <use x="129.8828125" xlink:href="#BitstreamVeraSans-Roman-63"/>
       <use x="184.86328125" xlink:href="#BitstreamVeraSans-Roman-74"/>
       <use x="224.072265625" xlink:href="#BitstreamVeraSans-Roman-65"/>
       <use x="285.595703125" xlink:href="#BitstreamVeraSans-Roman-72"/>
       <use x="326.708984375" xlink:href="#BitstreamVeraSans-Roman-69"/>
       <use x="354.4921875" xlink:href="#BitstreamVeraSans-Roman-61"/>
       <use x="415.771484375" xlink:href="#BitstreamVeraSans-Roman-7c"/>
       <use x="449.462890625" xlink:href="#BitstreamVeraSans-Roman-42"/>
       <use x="518.06640625" xlink:href="#BitstreamVeraSans-Roman-61"/>
       <use x="579.345703125" xlink:href="#BitstreamVeraSans-Roman-63"/>
       <use x="634.326171875" xlink:href="#BitstreamVeraSans-Roman-74"/>
       <use x="673.53515625" xlink:href="#BitstreamVeraSans-Roman-65"/>
       <use x="735.05859375" xlink:href="#BitstreamVeraSans-Roman-72"/>
       <use x="773.921875" xlink:href="#BitstreamVeraSans-Roman-6f"/>
       <use x="835.103515625" xlink:href="#BitstreamVeraSans-Roman-69"/>
       <use x="862.88671875" xlink:href="#BitstreamVeraSans-Roman-64"/>
       <use x="926.36328125" xlink:href="#BitstreamVeraSans-Roman-65"/>
       <use x="987.88671875" xlink:href="#BitstreamVeraSans-Roman-74"/>
       <use x="1027.09570312" xlink:href="#BitstreamVeraSans-Roman-65"/>
       <use x="1088.61914062" xlink:href="#BitstreamVeraSans-Roman-73"/>
       <use x="1140.71875" xlink:href="#BitstreamVeraSans-Roman-7c"/>
       <use x="1174.41015625" xlink:href="#BitstreamVeraSans-Roman-43"/>
       <use x="1244.234375" xlink:href="#BitstreamVeraSans-Roman-79"/>
       <use x="1303.4140625" xlink:href="#BitstreamVeraSans-Roman-74"/>
       <use x="1342.62304688" xlink:href="#BitstreamVeraSans-Roman-6f"/>
       <use x="1403.8046875" xlink:href="#BitstreamVeraSans-Roman-70"/>
       <use x="1467.28125" xlink:href="#BitstreamVeraSans-Roman-68"/>
       <use x="1530.66015625" xlink:href="#BitstreamVeraSans-Roman-61"/>
       <use x="1591.93945312" xlink:href="#BitstreamVeraSans-Roman-67"/>
       <use x="1655.41601562" xlink:href="#BitstreamVeraSans-Roman-69"/>
       <use x="1683.19921875" xlink:href="#BitstreamVeraSans-Roman-61"/>
      </g>
     </g>
    </g>
    <g id="ytick_7">
     <g id="text_10">
      <!-- Bacteria|Verrucomicrobia|Opitutae -->
      <defs>
       <path d="
M39.4062 66.2188
Q28.6562 66.2188 22.3281 58.2031
Q16.0156 50.2031 16.0156 36.375
Q16.0156 22.6094 22.3281 14.5938
Q28.6562 6.59375 39.4062 6.59375
Q50.1406 6.59375 56.4219 14.5938
Q62.7031 22.6094 62.7031 36.375
Q62.7031 50.2031 56.4219 58.2031
Q50.1406 66.2188 39.4062 66.2188
M39.4062 74.2188
Q54.7344 74.2188 63.9062 63.9375
Q73.0938 53.6562 73.0938 36.375
Q73.0938 19.1406 63.9062 8.85938
Q54.7344 -1.42188 39.4062 -1.42188
Q24.0312 -1.42188 14.8125 8.82812
Q5.60938 19.0938 5.60938 36.375
Q5.60938 53.6562 14.8125 63.9375
Q24.0312 74.2188 39.4062 74.2188" id="BitstreamVeraSans-Roman-4f"/>
      </defs>
      <g transform="translate(53.20125 58.99375)scale(0.08 -0.08)">
       <use xlink:href="#BitstreamVeraSans-Roman-42"/>
       <use x="68.603515625" xlink:href="#BitstreamVeraSans-Roman-61"/>
       <use x="129.8828125" xlink:href="#BitstreamVeraSans-Roman-63"/>
       <use x="184.86328125" xlink:href="#BitstreamVeraSans-Roman-74"/>
       <use x="224.072265625" xlink:href="#BitstreamVeraSans-Roman-65"/>
       <use x="285.595703125" xlink:href="#BitstreamVeraSans-Roman-72"/>
       <use x="326.708984375" xlink:href="#BitstreamVeraSans-Roman-69"/>
       <use x="354.4921875" xlink:href="#BitstreamVeraSans-Roman-61"/>
       <use x="415.771484375" xlink:href="#BitstreamVeraSans-Roman-7c"/>
       <use x="449.462890625" xlink:href="#BitstreamVeraSans-Roman-56"/>
       <use x="510.12109375" xlink:href="#BitstreamVeraSans-Roman-65"/>
       <use x="571.64453125" xlink:href="#BitstreamVeraSans-Roman-72"/>
       <use x="611.0078125" xlink:href="#BitstreamVeraSans-Roman-72"/>
       <use x="652.12109375" xlink:href="#BitstreamVeraSans-Roman-75"/>
       <use x="715.5" xlink:href="#BitstreamVeraSans-Roman-63"/>
       <use x="770.48046875" xlink:href="#BitstreamVeraSans-Roman-6f"/>
       <use x="831.662109375" xlink:href="#BitstreamVeraSans-Roman-6d"/>
       <use x="929.07421875" xlink:href="#BitstreamVeraSans-Roman-69"/>
       <use x="956.857421875" xlink:href="#BitstreamVeraSans-Roman-63"/>
       <use x="1011.83789062" xlink:href="#BitstreamVeraSans-Roman-72"/>
       <use x="1050.70117188" xlink:href="#BitstreamVeraSans-Roman-6f"/>
       <use x="1111.8828125" xlink:href="#BitstreamVeraSans-Roman-62"/>
       <use x="1175.359375" xlink:href="#BitstreamVeraSans-Roman-69"/>
       <use x="1203.14257812" xlink:href="#BitstreamVeraSans-Roman-61"/>
       <use x="1264.421875" xlink:href="#BitstreamVeraSans-Roman-7c"/>
       <use x="1298.11328125" xlink:href="#BitstreamVeraSans-Roman-4f"/>
       <use x="1376.82421875" xlink:href="#BitstreamVeraSans-Roman-70"/>
       <use x="1440.30078125" xlink:href="#BitstreamVeraSans-Roman-69"/>
       <use x="1468.08398438" xlink:href="#BitstreamVeraSans-Roman-74"/>
       <use x="1507.29296875" xlink:href="#BitstreamVeraSans-Roman-75"/>
       <use x="1570.671875" xlink:href="#BitstreamVeraSans-Roman-74"/>
       <use x="1609.88085938" xlink:href="#BitstreamVeraSans-Roman-61"/>
       <use x="1671.16015625" xlink:href="#BitstreamVeraSans-Roman-65"/>
      </g>
     </g>
    </g>
    <g id="ytick_8">
     <g id="text_11">
      <!-- Bacteria|Bacteroidetes|Chitinophagia -->
      <g transform="translate(42.705 46.03375)scale(0.08 -0.08)">
       <use xlink:href="#BitstreamVeraSans-Roman-42"/>
       <use x="68.603515625" xlink:href="#BitstreamVeraSans-Roman-61"/>
       <use x="129.8828125" xlink:href="#BitstreamVeraSans-Roman-63"/>
       <use x="184.86328125" xlink:href="#BitstreamVeraSans-Roman-74"/>
       <use x="224.072265625" xlink:href="#BitstreamVeraSans-Roman-65"/>
       <use x="285.595703125" xlink:href="#BitstreamVeraSans-Roman-72"/>
       <use x="326.708984375" xlink:href="#BitstreamVeraSans-Roman-69"/>
       <use x="354.4921875" xlink:href="#BitstreamVeraSans-Roman-61"/>
       <use x="415.771484375" xlink:href="#BitstreamVeraSans-Roman-7c"/>
       <use x="449.462890625" xlink:href="#BitstreamVeraSans-Roman-42"/>
       <use x="518.06640625" xlink:href="#BitstreamVeraSans-Roman-61"/>
       <use x="579.345703125" xlink:href="#BitstreamVeraSans-Roman-63"/>
       <use x="634.326171875" xlink:href="#BitstreamVeraSans-Roman-74"/>
       <use x="673.53515625" xlink:href="#BitstreamVeraSans-Roman-65"/>
       <use x="735.05859375" xlink:href="#BitstreamVeraSans-Roman-72"/>
       <use x="773.921875" xlink:href="#BitstreamVeraSans-Roman-6f"/>
       <use x="835.103515625" xlink:href="#BitstreamVeraSans-Roman-69"/>
       <use x="862.88671875" xlink:href="#BitstreamVeraSans-Roman-64"/>
       <use x="926.36328125" xlink:href="#BitstreamVeraSans-Roman-65"/>
       <use x="987.88671875" xlink:href="#BitstreamVeraSans-Roman-74"/>
       <use x="1027.09570312" xlink:href="#BitstreamVeraSans-Roman-65"/>
       <use x="1088.61914062" xlink:href="#BitstreamVeraSans-Roman-73"/>
       <use x="1140.71875" xlink:href="#BitstreamVeraSans-Roman-7c"/>
       <use x="1174.41015625" xlink:href="#BitstreamVeraSans-Roman-43"/>
       <use x="1244.234375" xlink:href="#BitstreamVeraSans-Roman-68"/>
       <use x="1307.61328125" xlink:href="#BitstreamVeraSans-Roman-69"/>
       <use x="1335.39648438" xlink:href="#BitstreamVeraSans-Roman-74"/>
       <use x="1374.60546875" xlink:href="#BitstreamVeraSans-Roman-69"/>
       <use x="1402.38867188" xlink:href="#BitstreamVeraSans-Roman-6e"/>
       <use x="1465.76757812" xlink:href="#BitstreamVeraSans-Roman-6f"/>
       <use x="1526.94921875" xlink:href="#BitstreamVeraSans-Roman-70"/>
       <use x="1590.42578125" xlink:href="#BitstreamVeraSans-Roman-68"/>
       <use x="1653.8046875" xlink:href="#BitstreamVeraSans-Roman-61"/>
       <use x="1715.08398438" xlink:href="#BitstreamVeraSans-Roman-67"/>
       <use x="1778.56054688" xlink:href="#BitstreamVeraSans-Roman-69"/>
       <use x="1806.34375" xlink:href="#BitstreamVeraSans-Roman-61"/>
      </g>
     </g>
    </g>
    <g id="ytick_9">
     <g id="text_12">
      <!-- Bacteria|Proteobacteria|Alphaproteobacteria -->
      <g transform="translate(13.33625 33.07375)scale(0.08 -0.08)">
       <use xlink:href="#BitstreamVeraSans-Roman-42"/>
       <use x="68.603515625" xlink:href="#BitstreamVeraSans-Roman-61"/>
       <use x="129.8828125" xlink:href="#BitstreamVeraSans-Roman-63"/>
       <use x="184.86328125" xlink:href="#BitstreamVeraSans-Roman-74"/>
       <use x="224.072265625" xlink:href="#BitstreamVeraSans-Roman-65"/>
       <use x="285.595703125" xlink:href="#BitstreamVeraSans-Roman-72"/>
       <use x="326.708984375" xlink:href="#BitstreamVeraSans-Roman-69"/>
       <use x="354.4921875" xlink:href="#BitstreamVeraSans-Roman-61"/>
       <use x="415.771484375" xlink:href="#BitstreamVeraSans-Roman-7c"/>
       <use x="449.462890625" xlink:href="#BitstreamVeraSans-Roman-50"/>
       <use x="508.015625" xlink:href="#BitstreamVeraSans-Roman-72"/>
       <use x="546.87890625" xlink:href="#BitstreamVeraSans-Roman-6f"/>
       <use x="608.060546875" xlink:href="#BitstreamVeraSans-Roman-74"/>
       <use x="647.26953125" xlink:href="#BitstreamVeraSans-Roman-65"/>
       <use x="708.79296875" xlink:href="#BitstreamVeraSans-Roman-6f"/>
       <use x="769.974609375" xlink:href="#BitstreamVeraSans-Roman-62"/>
       <use x="833.451171875" xlink:href="#BitstreamVeraSans-Roman-61"/>
       <use x="894.73046875" xlink:href="#BitstreamVeraSans-Roman-63"/>
       <use x="949.7109375" xlink:href="#BitstreamVeraSans-Roman-74"/>
       <use x="988.919921875" xlink:href="#BitstreamVeraSans-Roman-65"/>
       <use x="1050.44335938" xlink:href="#BitstreamVeraSans-Roman-72"/>
       <use x="1091.55664062" xlink:href="#BitstreamVeraSans-Roman-69"/>
       <use x="1119.33984375" xlink:href="#BitstreamVeraSans-Roman-61"/>
       <use x="1180.61914062" xlink:href="#BitstreamVeraSans-Roman-7c"/>
       <use x="1214.31054688" xlink:href="#BitstreamVeraSans-Roman-41"/>
       <use x="1282.71875" xlink:href="#BitstreamVeraSans-Roman-6c"/>
       <use x="1310.50195312" xlink:href="#BitstreamVeraSans-Roman-70"/>
       <use x="1373.97851562" xlink:href="#BitstreamVeraSans-Roman-68"/>
       <use x="1437.35742188" xlink:href="#BitstreamVeraSans-Roman-61"/>
       <use x="1498.63671875" xlink:href="#BitstreamVeraSans-Roman-70"/>
       <use x="1562.11328125" xlink:href="#BitstreamVeraSans-Roman-72"/>
       <use x="1600.9765625" xlink:href="#BitstreamVeraSans-Roman-6f"/>
       <use x="1662.15820312" xlink:href="#BitstreamVeraSans-Roman-74"/>
       <use x="1701.3671875" xlink:href="#BitstreamVeraSans-Roman-65"/>
       <use x="1762.890625" xlink:href="#BitstreamVeraSans-Roman-6f"/>
       <use x="1824.07226562" xlink:href="#BitstreamVeraSans-Roman-62"/>
       <use x="1887.54882812" xlink:href="#BitstreamVeraSans-Roman-61"/>
       <use x="1948.828125" xlink:href="#BitstreamVeraSans-Roman-63"/>
       <use x="2003.80859375" xlink:href="#BitstreamVeraSans-Roman-74"/>
       <use x="2043.01757812" xlink:href="#BitstreamVeraSans-Roman-65"/>
       <use x="2104.54101562" xlink:href="#BitstreamVeraSans-Roman-72"/>
       <use x="2145.65429688" xlink:href="#BitstreamVeraSans-Roman-69"/>
       <use x="2173.4375" xlink:href="#BitstreamVeraSans-Roman-61"/>
      </g>
     </g>
    </g>
   </g>
  </g>
  <g id="axes_2">
   <g id="patch_30">
    <path d="
M302.606 147.6
L450 147.6
L450 18
L302.606 18
z
" style="fill:#ffffff;"/>
   </g>
   <g id="patch_31">
    <path clip-path="url(#p5fc587b3d2)" d="
M302.606 141.12
L302.606 128.16
L450 128.16
L450 141.12
z
" style="fill:#e6e6e6;"/>
   </g>
   <g id="patch_32">
    <path clip-path="url(#p5fc587b3d2)" d="
M302.606 115.2
L302.606 102.24
L450 102.24
L450 115.2
z
" style="fill:#e6e6e6;"/>
   </g>
   <g id="patch_33">
    <path clip-path="url(#p5fc587b3d2)" d="
M302.606 89.28
L302.606 76.32
L450 76.32
L450 89.28
z
" style="fill:#e6e6e6;"/>
   </g>
   <g id="patch_34">
    <path clip-path="url(#p5fc587b3d2)" d="
M302.606 63.36
L302.606 50.4
L450 50.4
L450 63.36
z
" style="fill:#e6e6e6;"/>
   </g>
   <g id="patch_35">
    <path clip-path="url(#p5fc587b3d2)" d="
M302.606 37.44
L302.606 24.48
L450 24.48
L450 37.44
z
" style="fill:#e6e6e6;"/>
   </g>
   <g id="LineCollection_3">
    <path clip-path="url(#p5fc587b3d2)" d="
M400.869 147.6
L400.869 18" style="fill:none;stroke:#7f7f7f;stroke-dasharray:6.000000,6.000000;stroke-dashoffset:0.0;"/>
   </g>
   <g id="patch_36">
    <path d="
M302.606 18
L450 18" style="fill:none;"/>
   </g>
   <g id="patch_37">
    <path d="
M450 147.6
L450 18" style="fill:none;"/>
   </g>
   <g id="patch_38">
    <path d="
M302.606 147.6
L450 147.6" style="fill:none;stroke:#7f7f7f;stroke-linecap:square;stroke-linejoin:miter;"/>
   </g>
   <g id="patch_39">
    <path d="
M302.606 147.6
L302.606 18" style="fill:none;"/>
   </g>
   <g id="matplotlib.axis_3">
    <g id="xtick_3">
     <g id="line2d_3">
      <g>
       <use style="fill:#7f7f7f;stroke:#7f7f7f;stroke-width:0.5;" x="302.60625" xlink:href="#m52ec4ef45c" y="147.6"/>
      </g>
     </g>
     <g id="text_13">
      <!-- 8 -->
      <defs>
       <path d="
M10.5938 35.5
L73.1875 35.5
L73.1875 27.2031
L10.5938 27.2031
z
" id="BitstreamVeraSans-Roman-2212"/>
       <path d="
M31.7812 34.625
Q24.75 34.625 20.7188 30.8594
Q16.7031 27.0938 16.7031 20.5156
Q16.7031 13.9219 20.7188 10.1562
Q24.75 6.39062 31.7812 6.39062
Q38.8125 6.39062 42.8594 10.1719
Q46.9219 13.9688 46.9219 20.5156
Q46.9219 27.0938 42.8906 30.8594
Q38.875 34.625 31.7812 34.625
M21.9219 38.8125
Q15.5781 40.375 12.0312 44.7188
Q8.5 49.0781 8.5 55.3281
Q8.5 64.0625 14.7188 69.1406
Q20.9531 74.2188 31.7812 74.2188
Q42.6719 74.2188 48.875 69.1406
Q55.0781 64.0625 55.0781 55.3281
Q55.0781 49.0781 51.5312 44.7188
Q48 40.375 41.7031 38.8125
Q48.8281 37.1562 52.7969 32.3125
Q56.7812 27.4844 56.7812 20.5156
Q56.7812 9.90625 50.3125 4.23438
Q43.8438 -1.42188 31.7812 -1.42188
Q19.7344 -1.42188 13.25 4.23438
Q6.78125 9.90625 6.78125 20.5156
Q6.78125 27.4844 10.7812 32.3125
Q14.7969 37.1562 21.9219 38.8125
M18.3125 54.3906
Q18.3125 48.7344 21.8438 45.5625
Q25.3906 42.3906 31.7812 42.3906
Q38.1406 42.3906 41.7188 45.5625
Q45.3125 48.7344 45.3125 54.3906
Q45.3125 60.0625 41.7188 63.2344
Q38.1406 66.4062 31.7812 66.4062
Q25.3906 66.4062 21.8438 63.2344
Q18.3125 60.0625 18.3125 54.3906" id="BitstreamVeraSans-Roman-38"/>
      </defs>
      <g transform="translate(297.406875 157.67875)scale(0.08 -0.08)">
       <use xlink:href="#BitstreamVeraSans-Roman-2212"/>
       <use x="83.7890625" xlink:href="#BitstreamVeraSans-Roman-38"/>
      </g>
     </g>
    </g>
    <g id="xtick_4">
     <g id="line2d_4">
      <g>
       <use style="fill:#7f7f7f;stroke:#7f7f7f;stroke-width:0.5;" x="327.171875" xlink:href="#m52ec4ef45c" y="147.6"/>
      </g>
     </g>
     <g id="text_14">
      <!-- 6 -->
      <defs>
       <path d="
M33.0156 40.375
Q26.375 40.375 22.4844 35.8281
Q18.6094 31.2969 18.6094 23.3906
Q18.6094 15.5312 22.4844 10.9531
Q26.375 6.39062 33.0156 6.39062
Q39.6562 6.39062 43.5312 10.9531
Q47.4062 15.5312 47.4062 23.3906
Q47.4062 31.2969 43.5312 35.8281
Q39.6562 40.375 33.0156 40.375
M52.5938 71.2969
L52.5938 62.3125
Q48.875 64.0625 45.0938 64.9844
Q41.3125 65.9219 37.5938 65.9219
Q27.8281 65.9219 22.6719 59.3281
Q17.5312 52.7344 16.7969 39.4062
Q19.6719 43.6562 24.0156 45.9219
Q28.375 48.1875 33.5938 48.1875
Q44.5781 48.1875 50.9531 41.5156
Q57.3281 34.8594 57.3281 23.3906
Q57.3281 12.1562 50.6875 5.35938
Q44.0469 -1.42188 33.0156 -1.42188
Q20.3594 -1.42188 13.6719 8.26562
Q6.98438 17.9688 6.98438 36.375
Q6.98438 53.6562 15.1875 63.9375
Q23.3906 74.2188 37.2031 74.2188
Q40.9219 74.2188 44.7031 73.4844
Q48.4844 72.75 52.5938 71.2969" id="BitstreamVeraSans-Roman-36"/>
      </defs>
      <g transform="translate(321.950625 157.67875)scale(0.08 -0.08)">
       <use xlink:href="#BitstreamVeraSans-Roman-2212"/>
       <use x="83.7890625" xlink:href="#BitstreamVeraSans-Roman-36"/>
      </g>
     </g>
    </g>
    <g id="xtick_5">
     <g id="line2d_5">
      <g>
       <use style="fill:#7f7f7f;stroke:#7f7f7f;stroke-width:0.5;" x="351.7375" xlink:href="#m52ec4ef45c" y="147.6"/>
      </g>
     </g>
     <g id="text_15">
      <!-- 4 -->
      <defs>
       <path d="
M37.7969 64.3125
L12.8906 25.3906
L37.7969 25.3906
z

M35.2031 72.9062
L47.6094 72.9062
L47.6094 25.3906
L58.0156 25.3906
L58.0156 17.1875
L47.6094 17.1875
L47.6094 0
L37.7969 0
L37.7969 17.1875
L4.89062 17.1875
L4.89062 26.7031
z
" id="BitstreamVeraSans-Roman-34"/>
      </defs>
      <g transform="translate(346.48875 157.67875)scale(0.08 -0.08)">
       <use xlink:href="#BitstreamVeraSans-Roman-2212"/>
       <use x="83.7890625" xlink:href="#BitstreamVeraSans-Roman-34"/>
      </g>
     </g>
    </g>
    <g id="xtick_6">
     <g id="line2d_6">
      <g>
       <use style="fill:#7f7f7f;stroke:#7f7f7f;stroke-width:0.5;" x="376.303125" xlink:href="#m52ec4ef45c" y="147.6"/>
      </g>
     </g>
     <g id="text_16">
      <!-- 2 -->
      <g transform="translate(371.230625 157.67875)scale(0.08 -0.08)">
       <use xlink:href="#BitstreamVeraSans-Roman-2212"/>
       <use x="83.7890625" xlink:href="#BitstreamVeraSans-Roman-32"/>
      </g>
     </g>
    </g>
    <g id="xtick_7">
     <g id="line2d_7">
      <g>
       <use style="fill:#7f7f7f;stroke:#7f7f7f;stroke-width:0.5;" x="400.86875" xlink:href="#m52ec4ef45c" y="147.6"/>
      </g>
     </g>
     <g id="text_17">
      <!-- 0 -->
      <g transform="translate(398.853125 157.67875)scale(0.08 -0.08)">
       <use xlink:href="#BitstreamVeraSans-Roman-30"/>
      </g>
     </g>
    </g>
    <g id="xtick_8">
     <g id="line2d_8">
      <g>
       <use style="fill:#7f7f7f;stroke:#7f7f7f;stroke-width:0.5;" x="425.434375" xlink:href="#m52ec4ef45c" y="147.6"/>
      </g>
     </g>
     <g id="text_18">
      <!-- 2 -->
      <g transform="translate(423.583125 157.67875)scale(0.08 -0.08)">
       <use xlink:href="#BitstreamVeraSans-Roman-32"/>
      </g>
     </g>
    </g>
    <g id="xtick_9">
     <g id="line2d_9">
      <g>
       <use style="fill:#7f7f7f;stroke:#7f7f7f;stroke-width:0.5;" x="450.0" xlink:href="#m52ec4ef45c" y="147.6"/>
      </g>
     </g>
     <g id="text_19">
      <!-- 4 -->
      <g transform="translate(447.875 157.67875)scale(0.08 -0.08)">
       <use xlink:href="#BitstreamVeraSans-Roman-34"/>
      </g>
     </g>
    </g>
    <g id="text_20">
     <!-- Difference in mean proportions (%) -->
     <defs>
      <path d="
M19.6719 64.7969
L19.6719 8.10938
L31.5938 8.10938
Q46.6875 8.10938 53.6875 14.9375
Q60.6875 21.7812 60.6875 36.5312
Q60.6875 51.1719 53.6875 57.9844
Q46.6875 64.7969 31.5938 64.7969
z

M9.8125 72.9062
L30.0781 72.9062
Q51.2656 72.9062 61.1719 64.0938
Q71.0938 55.2812 71.0938 36.5312
Q71.0938 17.6719 61.125 8.82812
Q51.1719 0 30.0781 0
L9.8125 0
z
" id="BitstreamVeraSans-Roman-44"/>
      <path d="
M37.1094 75.9844
L37.1094 68.5
L28.5156 68.5
Q23.6875 68.5 21.7969 66.5469
Q19.9219 64.5938 19.9219 59.5156
L19.9219 54.6875
L34.7188 54.6875
L34.7188 47.7031
L19.9219 47.7031
L19.9219 0
L10.8906 0
L10.8906 47.7031
L2.29688 47.7031
L2.29688 54.6875
L10.8906 54.6875
L10.8906 58.5
Q10.8906 67.625 15.1406 71.7969
Q19.3906 75.9844 28.6094 75.9844
z
" id="BitstreamVeraSans-Roman-66"/>
     </defs>
     <g transform="translate(306.051875 170.42125)scale(0.08 -0.08)">
      <use xlink:href="#BitstreamVeraSans-Roman-44"/>
      <use x="77.001953125" xlink:href="#BitstreamVeraSans-Roman-69"/>
      <use x="104.78515625" xlink:href="#BitstreamVeraSans-Roman-66"/>
      <use x="139.990234375" xlink:href="#BitstreamVeraSans-Roman-66"/>
      <use x="175.1953125" xlink:href="#BitstreamVeraSans-Roman-65"/>
      <use x="236.71875" xlink:href="#BitstreamVeraSans-Roman-72"/>
      <use x="275.58203125" xlink:href="#BitstreamVeraSans-Roman-65"/>
      <use x="337.10546875" xlink:href="#BitstreamVeraSans-Roman-6e"/>
      <use x="400.484375" xlink:href="#BitstreamVeraSans-Roman-63"/>
      <use x="455.46484375" xlink:href="#BitstreamVeraSans-Roman-65"/>
      <use x="516.98828125" xlink:href="#BitstreamVeraSans-Roman-20"/>
      <use x="548.775390625" xlink:href="#BitstreamVeraSans-Roman-69"/>
      <use x="576.55859375" xlink:href="#BitstreamVeraSans-Roman-6e"/>
      <use x="639.9375" xlink:href="#BitstreamVeraSans-Roman-20"/>
      <use x="671.724609375" xlink:href="#BitstreamVeraSans-Roman-6d"/>
      <use x="769.13671875" xlink:href="#BitstreamVeraSans-Roman-65"/>
      <use x="830.66015625" xlink:href="#BitstreamVeraSans-Roman-61"/>
      <use x="891.939453125" xlink:href="#BitstreamVeraSans-Roman-6e"/>
      <use x="955.318359375" xlink:href="#BitstreamVeraSans-Roman-20"/>
      <use x="987.10546875" xlink:href="#BitstreamVeraSans-Roman-70"/>
      <use x="1050.58203125" xlink:href="#BitstreamVeraSans-Roman-72"/>
      <use x="1089.4453125" xlink:href="#BitstreamVeraSans-Roman-6f"/>
      <use x="1150.62695312" xlink:href="#BitstreamVeraSans-Roman-70"/>
      <use x="1214.10351562" xlink:href="#BitstreamVeraSans-Roman-6f"/>
      <use x="1275.28515625" xlink:href="#BitstreamVeraSans-Roman-72"/>
      <use x="1316.3984375" xlink:href="#BitstreamVeraSans-Roman-74"/>
      <use x="1355.60742188" xlink:href="#BitstreamVeraSans-Roman-69"/>
      <use x="1383.390625" xlink:href="#BitstreamVeraSans-Roman-6f"/>
      <use x="1444.57226562" xlink:href="#BitstreamVeraSans-Roman-6e"/>
      <use x="1507.95117188" xlink:href="#BitstreamVeraSans-Roman-73"/>
      <use x="1560.05078125" xlink:href="#BitstreamVeraSans-Roman-20"/>
      <use x="1591.83789062" xlink:href="#BitstreamVeraSans-Roman-28"/>
      <use x="1630.8515625" xlink:href="#BitstreamVeraSans-Roman-25"/>
      <use x="1725.87109375" xlink:href="#BitstreamVeraSans-Roman-29"/>
     </g>
    </g>
   </g>
   <g id="matplotlib.axis_4"/>
   <g id="text_21">
    <!-- 95% confidence intervals -->
    <defs>
     <path d="
M2.98438 54.6875
L12.5 54.6875
L29.5938 8.79688
L46.6875 54.6875
L56.2031 54.6875
L35.6875 0
L23.4844 0
z
" id="BitstreamVeraSans-Roman-76"/>
     <path d="
M10.9844 1.51562
L10.9844 10.5
Q14.7031 8.73438 18.5 7.8125
Q22.3125 6.89062 25.9844 6.89062
Q35.75 6.89062 40.8906 13.4531
Q46.0469 20.0156 46.7812 33.4062
Q43.9531 29.2031 39.5938 26.9531
Q35.25 24.7031 29.9844 24.7031
Q19.0469 24.7031 12.6719 31.3125
Q6.29688 37.9375 6.29688 49.4219
Q6.29688 60.6406 12.9375 67.4219
Q19.5781 74.2188 30.6094 74.2188
Q43.2656 74.2188 49.9219 64.5156
Q56.5938 54.8281 56.5938 36.375
Q56.5938 19.1406 48.4062 8.85938
Q40.2344 -1.42188 26.4219 -1.42188
Q22.7031 -1.42188 18.8906 -0.6875
Q15.0938 0.046875 10.9844 1.51562
M30.6094 32.4219
Q37.25 32.4219 41.125 36.9531
Q45.0156 41.5 45.0156 49.4219
Q45.0156 57.2812 41.125 61.8438
Q37.25 66.4062 30.6094 66.4062
Q23.9688 66.4062 20.0938 61.8438
Q16.2188 57.2812 16.2188 49.4219
Q16.2188 41.5 20.0938 36.9531
Q23.9688 32.4219 30.6094 32.4219" id="BitstreamVeraSans-Roman-39"/>
     <path d="
M10.7969 72.9062
L49.5156 72.9062
L49.5156 64.5938
L19.8281 64.5938
L19.8281 46.7344
Q21.9688 47.4688 24.1094 47.8281
Q26.2656 48.1875 28.4219 48.1875
Q40.625 48.1875 47.75 41.5
Q54.8906 34.8125 54.8906 23.3906
Q54.8906 11.625 47.5625 5.09375
Q40.2344 -1.42188 26.9062 -1.42188
Q22.3125 -1.42188 17.5469 -0.640625
Q12.7969 0.140625 7.71875 1.70312
L7.71875 11.625
Q12.1094 9.23438 16.7969 8.0625
Q21.4844 6.89062 26.7031 6.89062
Q35.1562 6.89062 40.0781 11.3281
Q45.0156 15.7656 45.0156 23.3906
Q45.0156 31 40.0781 35.4375
Q35.1562 39.8906 26.7031 39.8906
Q22.75 39.8906 18.8125 39.0156
Q14.8906 38.1406 10.7969 36.2812
z
" id="BitstreamVeraSans-Roman-35"/>
    </defs>
    <g transform="translate(325.83375 13.0)scale(0.08 -0.08)">
     <use xlink:href="#BitstreamVeraSans-Roman-39"/>
     <use x="63.623046875" xlink:href="#BitstreamVeraSans-Roman-35"/>
     <use x="127.24609375" xlink:href="#BitstreamVeraSans-Roman-25"/>
     <use x="222.265625" xlink:href="#BitstreamVeraSans-Roman-20"/>
     <use x="254.052734375" xlink:href="#BitstreamVeraSans-Roman-63"/>
     <use x="309.033203125" xlink:href="#BitstreamVeraSans-Roman-6f"/>
     <use x="370.21484375" xlink:href="#BitstreamVeraSans-Roman-6e"/>
     <use x="433.59375" xlink:href="#BitstreamVeraSans-Roman-66"/>
     <use x="468.798828125" xlink:href="#BitstreamVeraSans-Roman-69"/>
     <use x="496.58203125" xlink:href="#BitstreamVeraSans-Roman-64"/>
     <use x="560.05859375" xlink:href="#BitstreamVeraSans-Roman-65"/>
     <use x="621.58203125" xlink:href="#BitstreamVeraSans-Roman-6e"/>
     <use x="684.9609375" xlink:href="#BitstreamVeraSans-Roman-63"/>
     <use x="739.94140625" xlink:href="#BitstreamVeraSans-Roman-65"/>
     <use x="801.46484375" xlink:href="#BitstreamVeraSans-Roman-20"/>
     <use x="833.251953125" xlink:href="#BitstreamVeraSans-Roman-69"/>
     <use x="861.03515625" xlink:href="#BitstreamVeraSans-Roman-6e"/>
     <use x="924.4140625" xlink:href="#BitstreamVeraSans-Roman-74"/>
     <use x="963.623046875" xlink:href="#BitstreamVeraSans-Roman-65"/>
     <use x="1025.14648438" xlink:href="#BitstreamVeraSans-Roman-72"/>
     <use x="1066.25976562" xlink:href="#BitstreamVeraSans-Roman-76"/>
     <use x="1125.43945312" xlink:href="#BitstreamVeraSans-Roman-61"/>
     <use x="1186.71875" xlink:href="#BitstreamVeraSans-Roman-6c"/>
     <use x="1214.50195312" xlink:href="#BitstreamVeraSans-Roman-73"/>
    </g>
   </g>
   <g id="LineCollection_4">
    <path clip-path="url(#p5fc587b3d2)" d="
M400.881 134.64
L402.786 134.64" style="fill:none;stroke:#000000;"/>
    <path clip-path="url(#p5fc587b3d2)" d="
M400.88 121.68
L401.296 121.68" style="fill:none;stroke:#000000;"/>
    <path clip-path="url(#p5fc587b3d2)" d="
M374.89 108.72
L400.056 108.72" style="fill:none;stroke:#000000;"/>
    <path clip-path="url(#p5fc587b3d2)" d="
M402.649 95.76
L439.553 95.76" style="fill:none;stroke:#000000;"/>
    <path clip-path="url(#p5fc587b3d2)" d="
M400.976 82.8
L401.809 82.8" style="fill:none;stroke:#000000;"/>
    <path clip-path="url(#p5fc587b3d2)" d="
M403.966 69.84
L414.37 69.84" style="fill:none;stroke:#000000;"/>
    <path clip-path="url(#p5fc587b3d2)" d="
M401.308 56.88
L402.284 56.88" style="fill:none;stroke:#000000;"/>
    <path clip-path="url(#p5fc587b3d2)" d="
M402.725 43.92
L405.767 43.92" style="fill:none;stroke:#000000;"/>
    <path clip-path="url(#p5fc587b3d2)" d="
M317.353 30.96
L370.501 30.96" style="fill:none;stroke:#000000;"/>
   </g>
   <g id="line2d_10">
    <defs>
     <path d="
M0 3
L0 -3" id="mca62528ba1" style="stroke:#000000;stroke-width:0.5;"/>
    </defs>
    <g clip-path="url(#p5fc587b3d2)">
     <use style="stroke:#000000;stroke-width:0.5;" x="400.881111223" xlink:href="#mca62528ba1" y="134.64"/>
     <use style="stroke:#000000;stroke-width:0.5;" x="400.88030808" xlink:href="#mca62528ba1" y="121.68"/>
     <use style="stroke:#000000;stroke-width:0.5;" x="374.890412566" xlink:href="#mca62528ba1" y="108.72"/>
     <use style="stroke:#000000;stroke-width:0.5;" x="402.649322063" xlink:href="#mca62528ba1" y="95.76"/>
     <use style="stroke:#000000;stroke-width:0.5;" x="400.976113278" xlink:href="#mca62528ba1" y="82.8"/>
     <use style="stroke:#000000;stroke-width:0.5;" x="403.966052352" xlink:href="#mca62528ba1" y="69.84"/>
     <use style="stroke:#000000;stroke-width:0.5;" x="401.308457709" xlink:href="#mca62528ba1" y="56.88"/>
     <use style="stroke:#000000;stroke-width:0.5;" x="402.725375713" xlink:href="#mca62528ba1" y="43.92"/>
     <use style="stroke:#000000;stroke-width:0.5;" x="317.353351028" xlink:href="#mca62528ba1" y="30.96"/>
    </g>
   </g>
   <g id="line2d_11">
    <g clip-path="url(#p5fc587b3d2)">
     <use style="stroke:#000000;stroke-width:0.5;" x="402.785886965" xlink:href="#mca62528ba1" y="134.64"/>
     <use style="stroke:#000000;stroke-width:0.5;" x="401.296049638" xlink:href="#mca62528ba1" y="121.68"/>
     <use style="stroke:#000000;stroke-width:0.5;" x="400.056020618" xlink:href="#mca62528ba1" y="108.72"/>
     <use style="stroke:#000000;stroke-width:0.5;" x="439.553053768" xlink:href="#mca62528ba1" y="95.76"/>
     <use style="stroke:#000000;stroke-width:0.5;" x="401.80879264" xlink:href="#mca62528ba1" y="82.8"/>
     <use style="stroke:#000000;stroke-width:0.5;" x="414.36980931" xlink:href="#mca62528ba1" y="69.84"/>
     <use style="stroke:#000000;stroke-width:0.5;" x="402.284200258" xlink:href="#mca62528ba1" y="56.88"/>
     <use style="stroke:#000000;stroke-width:0.5;" x="405.767351597" xlink:href="#mca62528ba1" y="43.92"/>
     <use style="stroke:#000000;stroke-width:0.5;" x="370.501239165" xlink:href="#mca62528ba1" y="30.96"/>
    </g>
   </g>
   <g id="line2d_12">
    <defs>
     <path d="
M0 2.73861
C0.726289 2.73861 1.42293 2.45006 1.93649 1.93649
C2.45006 1.42293 2.73861 0.726289 2.73861 0
C2.73861 -0.726289 2.45006 -1.42293 1.93649 -1.93649
C1.42293 -2.45006 0.726289 -2.73861 0 -2.73861
C-0.726289 -2.73861 -1.42293 -2.45006 -1.93649 -1.93649
C-2.45006 -1.42293 -2.73861 -0.726289 -2.73861 0
C-2.73861 0.726289 -2.45006 1.42293 -1.93649 1.93649
C-1.42293 2.45006 -0.726289 2.73861 0 2.73861
z
" id="mda986ae1ea" style="stroke:#000000;stroke-width:0.5;"/>
    </defs>
    <g clip-path="url(#p5fc587b3d2)">
     <use style="fill:#b3de69;stroke:#000000;stroke-width:0.5;" x="401.833499094" xlink:href="#mda986ae1ea" y="134.64"/>
     <use style="fill:#b3de69;stroke:#000000;stroke-width:0.5;" x="401.088178859" xlink:href="#mda986ae1ea" y="121.68"/>
     <use style="fill:#b3de69;stroke:#000000;stroke-width:0.5;" x="387.473216592" xlink:href="#mda986ae1ea" y="108.72"/>
     <use style="fill:#b3de69;stroke:#000000;stroke-width:0.5;" x="421.101187916" xlink:href="#mda986ae1ea" y="95.76"/>
     <use style="fill:#b3de69;stroke:#000000;stroke-width:0.5;" x="401.392452959" xlink:href="#mda986ae1ea" y="82.8"/>
     <use style="fill:#b3de69;stroke:#000000;stroke-width:0.5;" x="409.167930831" xlink:href="#mda986ae1ea" y="69.84"/>
     <use style="fill:#b3de69;stroke:#000000;stroke-width:0.5;" x="401.796328983" xlink:href="#mda986ae1ea" y="56.88"/>
     <use style="fill:#b3de69;stroke:#000000;stroke-width:0.5;" x="404.246363655" xlink:href="#mda986ae1ea" y="43.92"/>
     <use style="fill:#b3de69;stroke:#000000;stroke-width:0.5;" x="343.927295096" xlink:href="#mda986ae1ea" y="30.96"/>
    </g>
   </g>
   <g id="line2d_13">
    <defs>
     <path d="
M0 2.73861
C0.726289 2.73861 1.42293 2.45006 1.93649 1.93649
C2.45006 1.42293 2.73861 0.726289 2.73861 0
C2.73861 -0.726289 2.45006 -1.42293 1.93649 -1.93649
C1.42293 -2.45006 0.726289 -2.73861 0 -2.73861
C-0.726289 -2.73861 -1.42293 -2.45006 -1.93649 -1.93649
C-2.45006 -1.42293 -2.73861 -0.726289 -2.73861 0
C-2.73861 0.726289 -2.45006 1.42293 -1.93649 1.93649
C-1.42293 2.45006 -0.726289 2.73861 0 2.73861
z
" id="mca57b5d2b7" style="stroke:#000000;stroke-width:0.5;"/>
    </defs>
    <g clip-path="url(#p5fc587b3d2)">
     <use style="fill:#80b1d3;stroke:#000000;stroke-width:0.5;" x="387.473216592" xlink:href="#mca57b5d2b7" y="108.72"/>
     <use style="fill:#80b1d3;stroke:#000000;stroke-width:0.5;" x="343.927295096" xlink:href="#mca57b5d2b7" y="30.96"/>
    </g>
   </g>
  </g>
  <g id="axes_3">
   <g id="patch_40">
    <path d="
M194.606 18
L450 18" style="fill:none;"/>
   </g>
   <g id="patch_41">
    <path d="
M450 147.6
L450 18" style="fill:none;"/>
   </g>
   <g id="patch_42">
    <path d="
M194.606 147.6
L450 147.6" style="fill:none;"/>
   </g>
   <g id="patch_43">
    <path d="
M194.606 147.6
L194.606 18" style="fill:none;"/>
   </g>
   <g id="matplotlib.axis_5">
    <g id="ytick_10">
     <g id="text_22">
      <!-- 0.048 -->
      <g transform="translate(454.0 136.8475)scale(0.08 -0.08)">
       <use xlink:href="#BitstreamVeraSans-Roman-30"/>
       <use x="63.623046875" xlink:href="#BitstreamVeraSans-Roman-2e"/>
       <use x="95.41015625" xlink:href="#BitstreamVeraSans-Roman-30"/>
       <use x="159.033203125" xlink:href="#BitstreamVeraSans-Roman-34"/>
       <use x="222.65625" xlink:href="#BitstreamVeraSans-Roman-38"/>
      </g>
     </g>
    </g>
    <g id="ytick_11">
     <g id="text_23">
      <!-- 0.041 -->
      <g transform="translate(454.0 123.8875)scale(0.08 -0.08)">
       <use xlink:href="#BitstreamVeraSans-Roman-30"/>
       <use x="63.623046875" xlink:href="#BitstreamVeraSans-Roman-2e"/>
       <use x="95.41015625" xlink:href="#BitstreamVeraSans-Roman-30"/>
       <use x="159.033203125" xlink:href="#BitstreamVeraSans-Roman-34"/>
       <use x="222.65625" xlink:href="#BitstreamVeraSans-Roman-31"/>
      </g>
     </g>
    </g>
    <g id="ytick_12">
     <g id="text_24">
      <!-- 0.040 -->
      <g transform="translate(454.0 110.9275)scale(0.08 -0.08)">
       <use xlink:href="#BitstreamVeraSans-Roman-30"/>
       <use x="63.623046875" xlink:href="#BitstreamVeraSans-Roman-2e"/>
       <use x="95.41015625" xlink:href="#BitstreamVeraSans-Roman-30"/>
       <use x="159.033203125" xlink:href="#BitstreamVeraSans-Roman-34"/>
       <use x="222.65625" xlink:href="#BitstreamVeraSans-Roman-30"/>
      </g>
     </g>
    </g>
    <g id="ytick_13">
     <g id="text_25">
      <!-- 0.036 -->
      <defs>
       <path d="
M40.5781 39.3125
Q47.6562 37.7969 51.625 33
Q55.6094 28.2188 55.6094 21.1875
Q55.6094 10.4062 48.1875 4.48438
Q40.7656 -1.42188 27.0938 -1.42188
Q22.5156 -1.42188 17.6562 -0.515625
Q12.7969 0.390625 7.625 2.20312
L7.625 11.7188
Q11.7188 9.32812 16.5938 8.10938
Q21.4844 6.89062 26.8125 6.89062
Q36.0781 6.89062 40.9375 10.5469
Q45.7969 14.2031 45.7969 21.1875
Q45.7969 27.6406 41.2812 31.2656
Q36.7656 34.9062 28.7188 34.9062
L20.2188 34.9062
L20.2188 43.0156
L29.1094 43.0156
Q36.375 43.0156 40.2344 45.9219
Q44.0938 48.8281 44.0938 54.2969
Q44.0938 59.9062 40.1094 62.9062
Q36.1406 65.9219 28.7188 65.9219
Q24.6562 65.9219 20.0156 65.0312
Q15.375 64.1562 9.8125 62.3125
L9.8125 71.0938
Q15.4375 72.6562 20.3438 73.4375
Q25.25 74.2188 29.5938 74.2188
Q40.8281 74.2188 47.3594 69.1094
Q53.9062 64.0156 53.9062 55.3281
Q53.9062 49.2656 50.4375 45.0938
Q46.9688 40.9219 40.5781 39.3125" id="BitstreamVeraSans-Roman-33"/>
      </defs>
      <g transform="translate(454.0 97.9675)scale(0.08 -0.08)">
       <use xlink:href="#BitstreamVeraSans-Roman-30"/>
       <use x="63.623046875" xlink:href="#BitstreamVeraSans-Roman-2e"/>
       <use x="95.41015625" xlink:href="#BitstreamVeraSans-Roman-30"/>
       <use x="159.033203125" xlink:href="#BitstreamVeraSans-Roman-33"/>
       <use x="222.65625" xlink:href="#BitstreamVeraSans-Roman-36"/>
      </g>
     </g>
    </g>
    <g id="ytick_14">
     <g id="text_26">
      <!-- 0.022 -->
      <g transform="translate(454.0 85.0075)scale(0.08 -0.08)">
       <use xlink:href="#BitstreamVeraSans-Roman-30"/>
       <use x="63.623046875" xlink:href="#BitstreamVeraSans-Roman-2e"/>
       <use x="95.41015625" xlink:href="#BitstreamVeraSans-Roman-30"/>
       <use x="159.033203125" xlink:href="#BitstreamVeraSans-Roman-32"/>
       <use x="222.65625" xlink:href="#BitstreamVeraSans-Roman-32"/>
      </g>
     </g>
    </g>
    <g id="ytick_15">
     <g id="text_27">
      <!-- 5.23e-3 -->
      <defs>
       <path d="
M4.89062 31.3906
L31.2031 31.3906
L31.2031 23.3906
L4.89062 23.3906
z
" id="BitstreamVeraSans-Roman-2d"/>
      </defs>
      <g transform="translate(454.0 72.0475)scale(0.08 -0.08)">
       <use xlink:href="#BitstreamVeraSans-Roman-35"/>
       <use x="63.623046875" xlink:href="#BitstreamVeraSans-Roman-2e"/>
       <use x="95.41015625" xlink:href="#BitstreamVeraSans-Roman-32"/>
       <use x="159.033203125" xlink:href="#BitstreamVeraSans-Roman-33"/>
       <use x="222.65625" xlink:href="#BitstreamVeraSans-Roman-65"/>
       <use x="284.1796875" xlink:href="#BitstreamVeraSans-Roman-2d"/>
       <use x="320.263671875" xlink:href="#BitstreamVeraSans-Roman-33"/>
      </g>
     </g>
    </g>
    <g id="ytick_16">
     <g id="text_28">
      <!-- 4.14e-3 -->
      <g transform="translate(454.0 59.0875)scale(0.08 -0.08)">
       <use xlink:href="#BitstreamVeraSans-Roman-34"/>
       <use x="63.623046875" xlink:href="#BitstreamVeraSans-Roman-2e"/>
       <use x="95.41015625" xlink:href="#BitstreamVeraSans-Roman-31"/>
       <use x="159.033203125" xlink:href="#BitstreamVeraSans-Roman-34"/>
       <use x="222.65625" xlink:href="#BitstreamVeraSans-Roman-65"/>
       <use x="284.1796875" xlink:href="#BitstreamVeraSans-Roman-2d"/>
       <use x="320.263671875" xlink:href="#BitstreamVeraSans-Roman-33"/>
      </g>
     </g>
    </g>
    <g id="ytick_17">
     <g id="text_29">
      <!-- 1.47e-3 -->
      <defs>
       <path d="
M8.20312 72.9062
L55.0781 72.9062
L55.0781 68.7031
L28.6094 0
L18.3125 0
L43.2188 64.5938
L8.20312 64.5938
z
" id="BitstreamVeraSans-Roman-37"/>
      </defs>
      <g transform="translate(454.0 46.1275)scale(0.08 -0.08)">
       <use xlink:href="#BitstreamVeraSans-Roman-31"/>
       <use x="63.623046875" xlink:href="#BitstreamVeraSans-Roman-2e"/>
       <use x="95.41015625" xlink:href="#BitstreamVeraSans-Roman-34"/>
       <use x="159.033203125" xlink:href="#BitstreamVeraSans-Roman-37"/>
       <use x="222.65625" xlink:href="#BitstreamVeraSans-Roman-65"/>
       <use x="284.1796875" xlink:href="#BitstreamVeraSans-Roman-2d"/>
       <use x="320.263671875" xlink:href="#BitstreamVeraSans-Roman-33"/>
      </g>
     </g>
    </g>
    <g id="ytick_18">
     <g id="text_30">
      <!-- 1.33e-3 -->
      <g transform="translate(454.0 33.1675)scale(0.08 -0.08)">
       <use xlink:href="#BitstreamVeraSans-Roman-31"/>
       <use x="63.623046875" xlink:href="#BitstreamVeraSans-Roman-2e"/>
       <use x="95.41015625" xlink:href="#BitstreamVeraSans-Roman-33"/>
       <use x="159.033203125" xlink:href="#BitstreamVeraSans-Roman-33"/>
       <use x="222.65625" xlink:href="#BitstreamVeraSans-Roman-65"/>
       <use x="284.1796875" xlink:href="#BitstreamVeraSans-Roman-2d"/>
       <use x="320.263671875" xlink:href="#BitstreamVeraSans-Roman-33"/>
      </g>
     </g>
    </g>
    <g id="text_31">
     <!-- p-value (corrected) -->
     <g transform="translate(494.7575 120.6575)rotate(-90.0)scale(0.08 -0.08)">
      <use xlink:href="#BitstreamVeraSans-Roman-70"/>
      <use x="63.4765625" xlink:href="#BitstreamVeraSans-Roman-2d"/>
      <use x="96.935546875" xlink:href="#BitstreamVeraSans-Roman-76"/>
      <use x="156.115234375" xlink:href="#BitstreamVeraSans-Roman-61"/>
      <use x="217.39453125" xlink:href="#BitstreamVeraSans-Roman-6c"/>
      <use x="245.177734375" xlink:href="#BitstreamVeraSans-Roman-75"/>
      <use x="308.556640625" xlink:href="#BitstreamVeraSans-Roman-65"/>
      <use x="370.080078125" xlink:href="#BitstreamVeraSans-Roman-20"/>
      <use x="401.8671875" xlink:href="#BitstreamVeraSans-Roman-28"/>
      <use x="440.880859375" xlink:href="#BitstreamVeraSans-Roman-63"/>
      <use x="495.861328125" xlink:href="#BitstreamVeraSans-Roman-6f"/>
      <use x="557.04296875" xlink:href="#BitstreamVeraSans-Roman-72"/>
      <use x="596.40625" xlink:href="#BitstreamVeraSans-Roman-72"/>
      <use x="635.26953125" xlink:href="#BitstreamVeraSans-Roman-65"/>
      <use x="696.79296875" xlink:href="#BitstreamVeraSans-Roman-63"/>
      <use x="751.7734375" xlink:href="#BitstreamVeraSans-Roman-74"/>
      <use x="790.982421875" xlink:href="#BitstreamVeraSans-Roman-65"/>
      <use x="852.505859375" xlink:href="#BitstreamVeraSans-Roman-64"/>
      <use x="915.982421875" xlink:href="#BitstreamVeraSans-Roman-29"/>
     </g>
    </g>
   </g>
  </g>
  <g id="legend_1">
   <g id="patch_44">
    <path d="
M4 18.1425
L93.6225 18.1425
L93.6225 4
L4 4
z
" style="fill:#ffffff;"/>
   </g>
   <g id="patch_45">
    <path d="
M7.2 13.2788
L23.2 13.2788
L23.2 7.67875
L7.2 7.67875
z
" style="fill:#b3de69;stroke:#000000;stroke-linejoin:miter;"/>
   </g>
   <g id="text_32">
    <!-- WT -->
    <defs>
     <path d="
M-0.296875 72.9062
L61.375 72.9062
L61.375 64.5938
L35.5 64.5938
L35.5 0
L25.5938 0
L25.5938 64.5938
L-0.296875 64.5938
z
" id="BitstreamVeraSans-Roman-54"/>
     <path d="
M3.32812 72.9062
L13.2812 72.9062
L28.6094 11.2812
L43.8906 72.9062
L54.9844 72.9062
L70.3125 11.2812
L85.5938 72.9062
L95.6094 72.9062
L77.2969 0
L64.8906 0
L49.5156 63.2812
L33.9844 0
L21.5781 0
z
" id="BitstreamVeraSans-Roman-57"/>
    </defs>
    <g transform="translate(29.6 13.27875)scale(0.08 -0.08)">
     <use xlink:href="#BitstreamVeraSans-Roman-57"/>
     <use x="98.876953125" xlink:href="#BitstreamVeraSans-Roman-54"/>
    </g>
   </g>
   <g id="patch_46">
    <path d="
M58.1538 13.2788
L74.1538 13.2788
L74.1538 7.67875
L58.1538 7.67875
z
" style="fill:#80b1d3;stroke:#000000;stroke-linejoin:miter;"/>
   </g>
   <g id="text_33">
    <!-- KO -->
    <defs>
     <path d="
M9.8125 72.9062
L19.6719 72.9062
L19.6719 42.0938
L52.3906 72.9062
L65.0938 72.9062
L28.9062 38.9219
L67.6719 0
L54.6875 0
L19.6719 35.1094
L19.6719 0
L9.8125 0
z
" id="BitstreamVeraSans-Roman-4b"/>
    </defs>
    <g transform="translate(80.55375 13.27875)scale(0.08 -0.08)">
     <use xlink:href="#BitstreamVeraSans-Roman-4b"/>
     <use x="60.076171875" xlink:href="#BitstreamVeraSans-Roman-4f"/>
    </g>
   </g>
  </g>
 </g>
 <defs>
  <clipPath id="p57f367616b">
   <rect height="129.6" width="90.0" x="194.60625" y="18.0"/>
  </clipPath>
  <clipPath id="p5fc587b3d2">
   <rect height="129.6" width="147.39375" x="302.60625" y="18.0"/>
  </clipPath>
 </defs>
</svg>
