<?xml version="1.0" encoding="UTF-8" standalone="no"?>
<svg
   xmlns:dc="http://purl.org/dc/elements/1.1/"
   xmlns:cc="http://creativecommons.org/ns#"
   xmlns:rdf="http://www.w3.org/1999/02/22-rdf-syntax-ns#"
   xmlns:svg="http://www.w3.org/2000/svg"
   xmlns="http://www.w3.org/2000/svg"
   viewBox="0 0 690.66669 445.33334"
   height="445.33334"
   width="690.66669"
   xml:space="preserve"
   id="svg2"
   version="1.1"><metadata
     id="metadata8"><rdf:RDF><cc:Work
         rdf:about=""><dc:format>image/svg+xml</dc:format><dc:type
           rdf:resource="http://purl.org/dc/dcmitype/StillImage" /></cc:Work></rdf:RDF></metadata><defs
     id="defs6"><clipPath
       id="clipPath30"
       clipPathUnits="userSpaceOnUse"><path
         id="path28"
         d="m 55,269.8 h 358.67 v 55 H 55 Z" /></clipPath><clipPath
       id="clipPath42"
       clipPathUnits="userSpaceOnUse"><path
         id="path40"
         d="M 0,18.95 H 55 V 269.8 H 0 Z" /></clipPath></defs><g
     transform="matrix(1.3333333,0,0,-1.3333333,0,445.33333)"
     id="g10"><g
       id="g12" /><g
       id="g14" /><g
       id="g16"><text
         id="text20"
         style="font-variant:normal;font-weight:bold;font-size:9px;font-family:Helvetica;-inkscape-font-specification:Helvetica-Bold;writing-mode:lr-tb;fill:#000000;fill-opacity:1;fill-rule:nonzero;stroke:none"
         transform="matrix(1,0,0,-1,204.98,326.41)"><tspan
           id="tspan18"
           y="0"
           x="0 4.7789998 10.278 15.777 18.278999 23.283001 28.287001 30.789 37.791 42.794998 48.203999 53.702999">Top 30 Genus</tspan></text>
</g><g
       id="g22" /><g
       id="g24"><g
         clip-path="url(#clipPath30)"
         id="g26"><path
           id="path32"
           style="fill:none;stroke:#000000;stroke-width:0.75;stroke-linecap:round;stroke-linejoin:round;stroke-miterlimit:10;stroke-dasharray:none;stroke-opacity:1"
           d="m 144.67,269.8 v 52.38 H 324 V 269.8" /></g></g><g
       id="g34" /><g
       id="g36"><g
         clip-path="url(#clipPath42)"
         id="g38"><path
           id="path44"
           style="fill:none;stroke:#000000;stroke-width:0.75;stroke-linecap:round;stroke-linejoin:round;stroke-miterlimit:10;stroke-dasharray:none;stroke-opacity:1"
           d="m 55,62.84 v 0 -12.54 0" /><path
           id="path46"
           style="fill:none;stroke:#000000;stroke-width:0.75;stroke-linecap:round;stroke-linejoin:round;stroke-miterlimit:10;stroke-dasharray:none;stroke-opacity:1"
           d="m 55,75.39 v 0 -18.82 0" /><path
           id="path48"
           style="fill:none;stroke:#000000;stroke-width:0.75;stroke-linecap:round;stroke-linejoin:round;stroke-miterlimit:10;stroke-dasharray:none;stroke-opacity:1"
           d="M 55,100.47 H 54.94 V 87.93 H 55" /><path
           id="path50"
           style="fill:none;stroke:#000000;stroke-width:0.75;stroke-linecap:round;stroke-linejoin:round;stroke-miterlimit:10;stroke-dasharray:none;stroke-opacity:1"
           d="M 55,37.76 H 54.9 V 25.22 H 55" /><path
           id="path52"
           style="fill:none;stroke:#000000;stroke-width:0.75;stroke-linecap:round;stroke-linejoin:round;stroke-miterlimit:10;stroke-dasharray:none;stroke-opacity:1"
           d="M 55,113.01 H 54.83 V 94.2 h 0.11" /><path
           id="path54"
           style="fill:none;stroke:#000000;stroke-width:0.75;stroke-linecap:round;stroke-linejoin:round;stroke-miterlimit:10;stroke-dasharray:none;stroke-opacity:1"
           d="M 55,65.98 H 54.79 V 31.49 h 0.11" /><path
           id="path56"
           style="fill:none;stroke:#000000;stroke-width:0.75;stroke-linecap:round;stroke-linejoin:round;stroke-miterlimit:10;stroke-dasharray:none;stroke-opacity:1"
           d="M 55,175.73 H 54.57 V 163.18 H 55" /><path
           id="path58"
           style="fill:none;stroke:#000000;stroke-width:0.75;stroke-linecap:round;stroke-linejoin:round;stroke-miterlimit:10;stroke-dasharray:none;stroke-opacity:1"
           d="M 54.83,103.61 H 53.86 V 48.73 h 0.93" /><path
           id="path60"
           style="fill:none;stroke:#000000;stroke-width:0.75;stroke-linecap:round;stroke-linejoin:round;stroke-miterlimit:10;stroke-dasharray:none;stroke-opacity:1"
           d="m 55,188.27 h -1.39 v -18.81 h 0.96" /><path
           id="path62"
           style="fill:none;stroke:#000000;stroke-width:0.75;stroke-linecap:round;stroke-linejoin:round;stroke-miterlimit:10;stroke-dasharray:none;stroke-opacity:1"
           d="M 55,125.56 H 53.35 V 76.17 h 0.51" /><path
           id="path64"
           style="fill:none;stroke:#000000;stroke-width:0.75;stroke-linecap:round;stroke-linejoin:round;stroke-miterlimit:10;stroke-dasharray:none;stroke-opacity:1"
           d="m 55,200.81 h -2.33 v -21.95 h 0.94" /><path
           id="path66"
           style="fill:none;stroke:#000000;stroke-width:0.75;stroke-linecap:round;stroke-linejoin:round;stroke-miterlimit:10;stroke-dasharray:none;stroke-opacity:1"
           d="M 55,238.44 H 52.56 V 225.9 H 55" /><path
           id="path68"
           style="fill:none;stroke:#000000;stroke-width:0.75;stroke-linecap:round;stroke-linejoin:round;stroke-miterlimit:10;stroke-dasharray:none;stroke-opacity:1"
           d="m 55,138.1 h -2.74 v -37.24 h 1.09" /><path
           id="path70"
           style="fill:none;stroke:#000000;stroke-width:0.75;stroke-linecap:round;stroke-linejoin:round;stroke-miterlimit:10;stroke-dasharray:none;stroke-opacity:1"
           d="M 55,263.52 H 51.89 V 250.98 H 55" /><path
           id="path72"
           style="fill:none;stroke:#000000;stroke-width:0.75;stroke-linecap:round;stroke-linejoin:round;stroke-miterlimit:10;stroke-dasharray:none;stroke-opacity:1"
           d="m 55,150.64 h -3.79 v -31.16 h 1.05" /><path
           id="path74"
           style="fill:none;stroke:#000000;stroke-width:0.75;stroke-linecap:round;stroke-linejoin:round;stroke-miterlimit:10;stroke-dasharray:none;stroke-opacity:1"
           d="m 52.67,189.84 h -4.19 v -54.78 h 2.73" /><path
           id="path76"
           style="fill:none;stroke:#000000;stroke-width:0.75;stroke-linecap:round;stroke-linejoin:round;stroke-miterlimit:10;stroke-dasharray:none;stroke-opacity:1"
           d="M 55,213.35 H 44.5 v -50.9 h 3.98" /><path
           id="path78"
           style="fill:none;stroke:#000000;stroke-width:0.75;stroke-linecap:round;stroke-linejoin:round;stroke-miterlimit:10;stroke-dasharray:none;stroke-opacity:1"
           d="M 52.56,232.17 H 20.95 V 187.9 H 44.5" /><path
           id="path80"
           style="fill:none;stroke:#000000;stroke-width:0.75;stroke-linecap:round;stroke-linejoin:round;stroke-miterlimit:10;stroke-dasharray:none;stroke-opacity:1"
           d="M 51.89,257.25 H 2.62 v -47.22 h 18.33" /></g></g><g
       id="g82" /><g
       id="g84"><path
         id="path86"
         style="fill:#4575b4;fill-opacity:1;fill-rule:nonzero;stroke:#999999;stroke-width:0.75;stroke-linecap:round;stroke-linejoin:round;stroke-miterlimit:10;stroke-dasharray:none;stroke-opacity:1"
         d="m 55,257.25 h 179.33 v 12.54 H 55 Z" /><path
         id="path88"
         style="fill:#4575b4;fill-opacity:1;fill-rule:nonzero;stroke:#999999;stroke-width:0.75;stroke-linecap:round;stroke-linejoin:round;stroke-miterlimit:10;stroke-dasharray:none;stroke-opacity:1"
         d="m 55,244.71 h 179.33 v 12.54 H 55 Z" /><path
         id="path90"
         style="fill:#fc9961;fill-opacity:1;fill-rule:nonzero;stroke:#999999;stroke-width:0.75;stroke-linecap:round;stroke-linejoin:round;stroke-miterlimit:10;stroke-dasharray:none;stroke-opacity:1"
         d="m 55,232.17 h 179.33 v 12.54 H 55 Z" /><path
         id="path92"
         style="fill:#fdb775;fill-opacity:1;fill-rule:nonzero;stroke:#999999;stroke-width:0.75;stroke-linecap:round;stroke-linejoin:round;stroke-miterlimit:10;stroke-dasharray:none;stroke-opacity:1"
         d="m 55,219.63 h 179.33 v 12.54 H 55 Z" /><path
         id="path94"
         style="fill:#4575b4;fill-opacity:1;fill-rule:nonzero;stroke:#999999;stroke-width:0.75;stroke-linecap:round;stroke-linejoin:round;stroke-miterlimit:10;stroke-dasharray:none;stroke-opacity:1"
         d="m 55,207.08 h 179.33 v 12.54 H 55 Z" /><path
         id="path96"
         style="fill:#85b3d5;fill-opacity:1;fill-rule:nonzero;stroke:#999999;stroke-width:0.75;stroke-linecap:round;stroke-linejoin:round;stroke-miterlimit:10;stroke-dasharray:none;stroke-opacity:1"
         d="m 55,194.54 h 179.33 v 12.54 H 55 Z" /><path
         id="path98"
         style="fill:#85b3d5;fill-opacity:1;fill-rule:nonzero;stroke:#999999;stroke-width:0.75;stroke-linecap:round;stroke-linejoin:round;stroke-miterlimit:10;stroke-dasharray:none;stroke-opacity:1"
         d="m 55,182 h 179.33 v 12.54 H 55 Z" /><path
         id="path100"
         style="fill:#7caad0;fill-opacity:1;fill-rule:nonzero;stroke:#999999;stroke-width:0.75;stroke-linecap:round;stroke-linejoin:round;stroke-miterlimit:10;stroke-dasharray:none;stroke-opacity:1"
         d="M 55,169.46 H 234.33 V 182 H 55 Z" /><path
         id="path102"
         style="fill:#73a1cb;fill-opacity:1;fill-rule:nonzero;stroke:#999999;stroke-width:0.75;stroke-linecap:round;stroke-linejoin:round;stroke-miterlimit:10;stroke-dasharray:none;stroke-opacity:1"
         d="m 55,156.91 h 179.33 v 12.54 H 55 Z" /><path
         id="path104"
         style="fill:#4575b4;fill-opacity:1;fill-rule:nonzero;stroke:#999999;stroke-width:0.75;stroke-linecap:round;stroke-linejoin:round;stroke-miterlimit:10;stroke-dasharray:none;stroke-opacity:1"
         d="m 55,144.37 h 179.33 v 12.54 H 55 Z" /><path
         id="path106"
         style="fill:#608fc2;fill-opacity:1;fill-rule:nonzero;stroke:#999999;stroke-width:0.75;stroke-linecap:round;stroke-linejoin:round;stroke-miterlimit:10;stroke-dasharray:none;stroke-opacity:1"
         d="m 55,131.83 h 179.33 v 12.54 H 55 Z" /><path
         id="path108"
         style="fill:#4575b4;fill-opacity:1;fill-rule:nonzero;stroke:#999999;stroke-width:0.75;stroke-linecap:round;stroke-linejoin:round;stroke-miterlimit:10;stroke-dasharray:none;stroke-opacity:1"
         d="m 55,119.29 h 179.33 v 12.54 H 55 Z" /><path
         id="path110"
         style="fill:#4575b4;fill-opacity:1;fill-rule:nonzero;stroke:#999999;stroke-width:0.75;stroke-linecap:round;stroke-linejoin:round;stroke-miterlimit:10;stroke-dasharray:none;stroke-opacity:1"
         d="m 55,106.74 h 179.33 v 12.54 H 55 Z" /><path
         id="path112"
         style="fill:#4575b4;fill-opacity:1;fill-rule:nonzero;stroke:#999999;stroke-width:0.75;stroke-linecap:round;stroke-linejoin:round;stroke-miterlimit:10;stroke-dasharray:none;stroke-opacity:1"
         d="m 55,94.2 h 179.33 v 12.54 H 55 Z" /><path
         id="path114"
         style="fill:#4575b4;fill-opacity:1;fill-rule:nonzero;stroke:#999999;stroke-width:0.75;stroke-linecap:round;stroke-linejoin:round;stroke-miterlimit:10;stroke-dasharray:none;stroke-opacity:1"
         d="M 55,81.66 H 234.33 V 94.2 H 55 Z" /><path
         id="path116"
         style="fill:#4e7db8;fill-opacity:1;fill-rule:nonzero;stroke:#999999;stroke-width:0.75;stroke-linecap:round;stroke-linejoin:round;stroke-miterlimit:10;stroke-dasharray:none;stroke-opacity:1"
         d="M 55,69.12 H 234.33 V 81.66 H 55 Z" /><path
         id="path118"
         style="fill:#4e7db8;fill-opacity:1;fill-rule:nonzero;stroke:#999999;stroke-width:0.75;stroke-linecap:round;stroke-linejoin:round;stroke-miterlimit:10;stroke-dasharray:none;stroke-opacity:1"
         d="M 55,56.57 H 234.33 V 69.11 H 55 Z" /><path
         id="path120"
         style="fill:#4e7db8;fill-opacity:1;fill-rule:nonzero;stroke:#999999;stroke-width:0.75;stroke-linecap:round;stroke-linejoin:round;stroke-miterlimit:10;stroke-dasharray:none;stroke-opacity:1"
         d="M 55,44.03 H 234.33 V 56.57 H 55 Z" /><path
         id="path122"
         style="fill:#4e7db8;fill-opacity:1;fill-rule:nonzero;stroke:#999999;stroke-width:0.75;stroke-linecap:round;stroke-linejoin:round;stroke-miterlimit:10;stroke-dasharray:none;stroke-opacity:1"
         d="M 55,31.49 H 234.33 V 44.03 H 55 Z" /><path
         id="path124"
         style="fill:#4e7db8;fill-opacity:1;fill-rule:nonzero;stroke:#999999;stroke-width:0.75;stroke-linecap:round;stroke-linejoin:round;stroke-miterlimit:10;stroke-dasharray:none;stroke-opacity:1"
         d="M 55,18.95 H 234.33 V 31.49 H 55 Z" /><path
         id="path126"
         style="fill:#d73027;fill-opacity:1;fill-rule:nonzero;stroke:#999999;stroke-width:0.75;stroke-linecap:round;stroke-linejoin:round;stroke-miterlimit:10;stroke-dasharray:none;stroke-opacity:1"
         d="m 234.33,257.25 h 179.33 v 12.54 H 234.33 Z" /><path
         id="path128"
         style="fill:#e6573c;fill-opacity:1;fill-rule:nonzero;stroke:#999999;stroke-width:0.75;stroke-linecap:round;stroke-linejoin:round;stroke-miterlimit:10;stroke-dasharray:none;stroke-opacity:1"
         d="m 234.33,244.71 h 179.33 v 12.54 H 234.33 Z" /><path
         id="path130"
         style="fill:#4575b4;fill-opacity:1;fill-rule:nonzero;stroke:#999999;stroke-width:0.75;stroke-linecap:round;stroke-linejoin:round;stroke-miterlimit:10;stroke-dasharray:none;stroke-opacity:1"
         d="m 234.33,232.17 h 179.33 v 12.54 H 234.33 Z" /><path
         id="path132"
         style="fill:#4575b4;fill-opacity:1;fill-rule:nonzero;stroke:#999999;stroke-width:0.75;stroke-linecap:round;stroke-linejoin:round;stroke-miterlimit:10;stroke-dasharray:none;stroke-opacity:1"
         d="m 234.33,219.63 h 179.33 v 12.54 H 234.33 Z" /><path
         id="path134"
         style="fill:#a6cde2;fill-opacity:1;fill-rule:nonzero;stroke:#999999;stroke-width:0.75;stroke-linecap:round;stroke-linejoin:round;stroke-miterlimit:10;stroke-dasharray:none;stroke-opacity:1"
         d="m 234.33,207.08 h 179.33 v 12.54 H 234.33 Z" /><path
         id="path136"
         style="fill:#5786bd;fill-opacity:1;fill-rule:nonzero;stroke:#999999;stroke-width:0.75;stroke-linecap:round;stroke-linejoin:round;stroke-miterlimit:10;stroke-dasharray:none;stroke-opacity:1"
         d="m 234.33,194.54 h 179.33 v 12.54 H 234.33 Z" /><path
         id="path138"
         style="fill:#4575b4;fill-opacity:1;fill-rule:nonzero;stroke:#999999;stroke-width:0.75;stroke-linecap:round;stroke-linejoin:round;stroke-miterlimit:10;stroke-dasharray:none;stroke-opacity:1"
         d="m 234.33,182 h 179.33 v 12.54 H 234.33 Z" /><path
         id="path140"
         style="fill:#4575b4;fill-opacity:1;fill-rule:nonzero;stroke:#999999;stroke-width:0.75;stroke-linecap:round;stroke-linejoin:round;stroke-miterlimit:10;stroke-dasharray:none;stroke-opacity:1"
         d="M 234.33,169.46 H 413.66 V 182 H 234.33 Z" /><path
         id="path142"
         style="fill:#4575b4;fill-opacity:1;fill-rule:nonzero;stroke:#999999;stroke-width:0.75;stroke-linecap:round;stroke-linejoin:round;stroke-miterlimit:10;stroke-dasharray:none;stroke-opacity:1"
         d="m 234.33,156.91 h 179.33 v 12.54 H 234.33 Z" /><path
         id="path144"
         style="fill:#6594c4;fill-opacity:1;fill-rule:nonzero;stroke:#999999;stroke-width:0.75;stroke-linecap:round;stroke-linejoin:round;stroke-miterlimit:10;stroke-dasharray:none;stroke-opacity:1"
         d="m 234.33,144.37 h 179.33 v 12.54 H 234.33 Z" /><path
         id="path146"
         style="fill:#4575b4;fill-opacity:1;fill-rule:nonzero;stroke:#999999;stroke-width:0.75;stroke-linecap:round;stroke-linejoin:round;stroke-miterlimit:10;stroke-dasharray:none;stroke-opacity:1"
         d="m 234.33,131.83 h 179.33 v 12.54 H 234.33 Z" /><path
         id="path148"
         style="fill:#4e7db8;fill-opacity:1;fill-rule:nonzero;stroke:#999999;stroke-width:0.75;stroke-linecap:round;stroke-linejoin:round;stroke-miterlimit:10;stroke-dasharray:none;stroke-opacity:1"
         d="m 234.33,119.29 h 179.33 v 12.54 H 234.33 Z" /><path
         id="path150"
         style="fill:#4575b4;fill-opacity:1;fill-rule:nonzero;stroke:#999999;stroke-width:0.75;stroke-linecap:round;stroke-linejoin:round;stroke-miterlimit:10;stroke-dasharray:none;stroke-opacity:1"
         d="m 234.33,106.74 h 179.33 v 12.54 H 234.33 Z" /><path
         id="path152"
         style="fill:#4575b4;fill-opacity:1;fill-rule:nonzero;stroke:#999999;stroke-width:0.75;stroke-linecap:round;stroke-linejoin:round;stroke-miterlimit:10;stroke-dasharray:none;stroke-opacity:1"
         d="m 234.33,94.2 h 179.33 v 12.54 H 234.33 Z" /><path
         id="path154"
         style="fill:#4575b4;fill-opacity:1;fill-rule:nonzero;stroke:#999999;stroke-width:0.75;stroke-linecap:round;stroke-linejoin:round;stroke-miterlimit:10;stroke-dasharray:none;stroke-opacity:1"
         d="M 234.33,81.66 H 413.66 V 94.2 H 234.33 Z" /><path
         id="path156"
         style="fill:#4575b4;fill-opacity:1;fill-rule:nonzero;stroke:#999999;stroke-width:0.75;stroke-linecap:round;stroke-linejoin:round;stroke-miterlimit:10;stroke-dasharray:none;stroke-opacity:1"
         d="M 234.33,69.12 H 413.66 V 81.66 H 234.33 Z" /><path
         id="path158"
         style="fill:#4575b4;fill-opacity:1;fill-rule:nonzero;stroke:#999999;stroke-width:0.75;stroke-linecap:round;stroke-linejoin:round;stroke-miterlimit:10;stroke-dasharray:none;stroke-opacity:1"
         d="M 234.33,56.57 H 413.66 V 69.11 H 234.33 Z" /><path
         id="path160"
         style="fill:#4575b4;fill-opacity:1;fill-rule:nonzero;stroke:#999999;stroke-width:0.75;stroke-linecap:round;stroke-linejoin:round;stroke-miterlimit:10;stroke-dasharray:none;stroke-opacity:1"
         d="M 234.33,44.03 H 413.66 V 56.57 H 234.33 Z" /><path
         id="path162"
         style="fill:#4575b4;fill-opacity:1;fill-rule:nonzero;stroke:#999999;stroke-width:0.75;stroke-linecap:round;stroke-linejoin:round;stroke-miterlimit:10;stroke-dasharray:none;stroke-opacity:1"
         d="M 234.33,31.49 H 413.66 V 44.03 H 234.33 Z" /><path
         id="path164"
         style="fill:#4575b4;fill-opacity:1;fill-rule:nonzero;stroke:#999999;stroke-width:0.75;stroke-linecap:round;stroke-linejoin:round;stroke-miterlimit:10;stroke-dasharray:none;stroke-opacity:1"
         d="M 234.33,18.95 H 413.66 V 31.49 H 234.33 Z" /></g><g
       id="g166" /><g
       id="g168"><text
         id="text172"
         style="font-variant:normal;font-weight:normal;font-size:7px;font-family:Helvetica;-inkscape-font-specification:Helvetica;writing-mode:lr-tb;fill:#000000;fill-opacity:1;fill-rule:nonzero;stroke:none"
         transform="matrix(0,-1,-1,0,142.15,15.95)"><tspan
           id="tspan170"
           y="0"
           x="0 5.0539999">C1</tspan></text>
<text
         id="text176"
         style="font-variant:normal;font-weight:normal;font-size:7px;font-family:Helvetica;-inkscape-font-specification:Helvetica;writing-mode:lr-tb;fill:#000000;fill-opacity:1;fill-rule:nonzero;stroke:none"
         transform="matrix(0,-1,-1,0,321.49,15.95)"><tspan
           id="tspan174"
           y="0"
           x="0 5.0539999">C2</tspan></text>
</g><g
       id="g178" /><g
       id="g180"><text
         id="text184"
         style="font-variant:normal;font-weight:normal;font-size:7px;font-family:Helvetica;-inkscape-font-specification:Helvetica;writing-mode:lr-tb;fill:#000000;fill-opacity:1;fill-rule:nonzero;stroke:none"
         transform="matrix(1,0,0,-1,416.67,261.01)"><tspan
           id="tspan182"
           y="0"
           x="0 3.892 7.7839999 11.676 16.73 20.622 24.514 30.344999 34.237 38.129002 42.021 43.575001 45.129002 49.021">g__Haemophilus</tspan></text>
<text
         id="text188"
         style="font-variant:normal;font-weight:normal;font-size:7px;font-family:Helvetica;-inkscape-font-specification:Helvetica;writing-mode:lr-tb;fill:#000000;fill-opacity:1;fill-rule:nonzero;stroke:none"
         transform="matrix(1,0,0,-1,416.67,248.47)"><tspan
           id="tspan186"
           y="0"
           x="0 3.892 7.7839999 11.676 16.344999 20.237 24.129 25.683001 29.575001 33.466999 37.359001 43.189999 47.082001 50.973999 54.866001">g__Sphingomonas</tspan></text>
<text
         id="text192"
         style="font-variant:normal;font-weight:normal;font-size:7px;font-family:Helvetica;-inkscape-font-specification:Helvetica;writing-mode:lr-tb;fill:#000000;fill-opacity:1;fill-rule:nonzero;stroke:none"
         transform="matrix(1,0,0,-1,416.67,235.93)"><tspan
           id="tspan190"
           y="0"
           x="0 3.892 7.7839999 11.676 15.953 19.844999 23.344999 27.237 31.129 35.021 38.521 40.466999 44.359001 46.794998 48.348999 52.241001">g__Fusobacterium</tspan></text>
<text
         id="text196"
         style="font-variant:normal;font-weight:normal;font-size:7px;font-family:Helvetica;-inkscape-font-specification:Helvetica;writing-mode:lr-tb;fill:#000000;fill-opacity:1;fill-rule:nonzero;stroke:none"
         transform="matrix(1,0,0,-1,416.67,223.38)"><tspan
           id="tspan194"
           y="0"
           x="0 3.892 7.7839999 11.676 16.73 20.622 24.514 28.406 32.298 35.798 39.298 41.243999 45.136002 49.028 52.919998 56.812 60.703999">g__Capnocytophaga</tspan></text>
<text
         id="text200"
         style="font-variant:normal;font-weight:normal;font-size:7px;font-family:Helvetica;-inkscape-font-specification:Helvetica;writing-mode:lr-tb;fill:#000000;fill-opacity:1;fill-rule:nonzero;stroke:none"
         transform="matrix(1,0,0,-1,416.67,210.84)"><tspan
           id="tspan198"
           y="0"
           x="0 3.892 7.7839999 11.676 16.73 20.622 22.176001 25.676001 29.176001 33.068001 35.504002 37.057999">g__Neisseria</tspan></text>
<text
         id="text204"
         style="font-variant:normal;font-weight:normal;font-size:7px;font-family:Helvetica;-inkscape-font-specification:Helvetica;writing-mode:lr-tb;fill:#000000;fill-opacity:1;fill-rule:nonzero;stroke:none"
         transform="matrix(1,0,0,-1,416.67,198.3)"><tspan
           id="tspan202"
           y="0"
           x="0 3.892 7.7839999 11.676 16.344999 18.676001 22.358 25.683001 29.575001 31.521 35.412998 36.966999 38.521">g__Prevotella</tspan></text>
<text
         id="text208"
         style="font-variant:normal;font-weight:normal;font-size:7px;font-family:Helvetica;-inkscape-font-specification:Helvetica;writing-mode:lr-tb;fill:#000000;fill-opacity:1;fill-rule:nonzero;stroke:none"
         transform="matrix(1,0,0,-1,416.67,185.76)"><tspan
           id="tspan206"
           y="0"
           x="0 3.892 7.7839999 11.676 17.122 21.014 26.844999 30.737 32.291 33.845001">g__Gemella</tspan></text>
<text
         id="text212"
         style="font-variant:normal;font-weight:normal;font-size:7px;font-family:Helvetica;-inkscape-font-specification:Helvetica;writing-mode:lr-tb;fill:#000000;fill-opacity:1;fill-rule:nonzero;stroke:none"
         transform="matrix(1,0,0,-1,416.67,173.21)"><tspan
           id="tspan210"
           y="0"
           x="0 3.892 7.7839999 11.676 15.953 17.507 19.061001 20.615 22.351 26.243 29.743 31.688999 35.581001">g__Filifactor</tspan></text>
<text
         id="text216"
         style="font-variant:normal;font-weight:normal;font-size:7px;font-family:Helvetica;-inkscape-font-specification:Helvetica;writing-mode:lr-tb;fill:#000000;fill-opacity:1;fill-rule:nonzero;stroke:none"
         transform="matrix(1,0,0,-1,416.67,160.67)"><tspan
           id="tspan214"
           y="0"
           x="0 3.892 7.7839999 11.676 16.344999 17.899 19.452999 23.344999 27.237 29.568001 33.25 36.575001 40.466999 42.412998 46.305 47.859001 49.412998">g__Alloprevotella</tspan></text>
<text
         id="text220"
         style="font-variant:normal;font-weight:normal;font-size:7px;font-family:Helvetica;-inkscape-font-specification:Helvetica;writing-mode:lr-tb;fill:#000000;fill-opacity:1;fill-rule:nonzero;stroke:none"
         transform="matrix(1,0,0,-1,416.67,148.13)"><tspan
           id="tspan218"
           y="0"
           x="0 3.892 7.7839999 11.676 16.344999 19.844999 21.791 23.344999 27.237 31.129 35.021 38.912998 42.412998 43.966999 45.521 47.075001 50.966999">g__Actinobacillus</tspan></text>
<text
         id="text224"
         style="font-variant:normal;font-weight:normal;font-size:7px;font-family:Helvetica;-inkscape-font-specification:Helvetica;writing-mode:lr-tb;fill:#000000;fill-opacity:1;fill-rule:nonzero;stroke:none"
         transform="matrix(1,0,0,-1,416.67,135.59)"><tspan
           id="tspan222"
           y="0"
           x="0 3.892 7.7839999 11.284 12.838 16.73 20.23 23.73 25.284 27.23 28.784 32.675999">unclassified</tspan></text>
<text
         id="text228"
         style="font-variant:normal;font-weight:normal;font-size:7px;font-family:Helvetica;-inkscape-font-specification:Helvetica;writing-mode:lr-tb;fill:#000000;fill-opacity:1;fill-rule:nonzero;stroke:none"
         transform="matrix(1,0,0,-1,416.67,123.04)"><tspan
           id="tspan226"
           y="0"
           x="0 3.892 7.7839999 11.676 15.785 19.677 21.231001 22.785 24.339001 28.231001 32.123001 36.014999 37.569 39.123001">g__Veillonella</tspan></text>
<text
         id="text232"
         style="font-variant:normal;font-weight:normal;font-size:7px;font-family:Helvetica;-inkscape-font-specification:Helvetica;writing-mode:lr-tb;fill:#000000;fill-opacity:1;fill-rule:nonzero;stroke:none"
         transform="matrix(1,0,0,-1,416.67,110.5)"><tspan
           id="tspan230"
           y="0"
           x="0 3.892 7.7839999 11.676 16.344999 18.291 22.183001 26.075001 29.966999 33.859001 35.412998 39.305">g__Atopobium</tspan></text>
<text
         id="text236"
         style="font-variant:normal;font-weight:normal;font-size:7px;font-family:Helvetica;-inkscape-font-specification:Helvetica;writing-mode:lr-tb;fill:#000000;fill-opacity:1;fill-rule:nonzero;stroke:none"
         transform="matrix(1,0,0,-1,416.67,97.96)"><tspan
           id="tspan234"
           y="0"
           x="0 3.892 7.7839999 11.676 16.344999 20.237 24.129 26.459999 30.351999 34.243999 38.136002 40.082001 41.636002 45.528 49.419998 52.919998 54.866001 58.757999">g__Aggregatibacter</tspan></text>
<text
         id="text240"
         style="font-variant:normal;font-weight:normal;font-size:7px;font-family:Helvetica;-inkscape-font-specification:Helvetica;writing-mode:lr-tb;fill:#000000;fill-opacity:1;fill-rule:nonzero;stroke:none"
         transform="matrix(1,0,0,-1,416.67,85.42)"><tspan
           id="tspan238"
           y="0"
           x="0 3.892 7.7839999 11.676 15.995 19.886999 23.778999 25.725 29.617001 33.117001 35.063 37.394001 41.285999 45.178001 47.124001 51.015999 54.515999 58.408001 61.908001 65.407997 69.300003">g__Peptostreptococcus</tspan></text>
<text
         id="text244"
         style="font-variant:normal;font-weight:normal;font-size:7px;font-family:Helvetica;-inkscape-font-specification:Helvetica;writing-mode:lr-tb;fill:#000000;fill-opacity:1;fill-rule:nonzero;stroke:none"
         transform="matrix(1,0,0,-1,416.67,72.87)"><tspan
           id="tspan242"
           y="0"
           x="0 3.892 7.7839999 11.676 16.065001 19.957001 22.497999 25.997999 27.552 33.382999 37.275002 41.167 45.058998">g__Parvimonas</tspan></text>
<text
         id="text248"
         style="font-variant:normal;font-weight:normal;font-size:7px;font-family:Helvetica;-inkscape-font-specification:Helvetica;writing-mode:lr-tb;fill:#000000;fill-opacity:1;fill-rule:nonzero;stroke:none"
         transform="matrix(1,0,0,-1,416.67,60.33)"><tspan
           id="tspan246"
           y="0"
           x="0 3.892 7.7839999 11.676 16.73 20.622 26.452999 30.135 33.634998 35.188999 39.081001 42.973 46.865002 50.365002 52.311001 56.202999">g__Campylobacter</tspan></text>
<text
         id="text252"
         style="font-variant:normal;font-weight:normal;font-size:7px;font-family:Helvetica;-inkscape-font-specification:Helvetica;writing-mode:lr-tb;fill:#000000;fill-opacity:1;fill-rule:nonzero;stroke:none"
         transform="matrix(1,0,0,-1,416.67,47.79)"><tspan
           id="tspan250"
           y="0"
           x="0 3.892 7.7839999 11.676 16.344999 17.899 21.259001 25.150999 29.042999 32.935001 34.488998 36.042999">g__Eikenella</tspan></text>
<text
         id="text256"
         style="font-variant:normal;font-weight:normal;font-size:7px;font-family:Helvetica;-inkscape-font-specification:Helvetica;writing-mode:lr-tb;fill:#000000;fill-opacity:1;fill-rule:nonzero;stroke:none"
         transform="matrix(1,0,0,-1,416.67,35.25)"><tspan
           id="tspan254"
           y="0"
           x="0 3.892 7.7839999 11.676 16.73 20.622 22.568001 26.459999 30.351999 34.243999 35.798 37.352001">g__Catonella</tspan></text>
<text
         id="text260"
         style="font-variant:normal;font-weight:normal;font-size:7px;font-family:Helvetica;-inkscape-font-specification:Helvetica;writing-mode:lr-tb;fill:#000000;fill-opacity:1;fill-rule:nonzero;stroke:none"
         transform="matrix(1,0,0,-1,416.67,22.7)"><tspan
           id="tspan258"
           y="0"
           x="0 3.892 7.7839999 11.676 16.344999 20.237 21.791 25.683001 29.575001 33.466999 36.966999 38.912998 42.805 45.241001 46.794998 50.687">g__Solobacterium</tspan></text>
</g><g
       id="g262" /><g
       id="g264"><path
         id="path266"
         style="fill:#4575b4;fill-opacity:1;fill-rule:nonzero;stroke:none"
         d="m 496.47,119.8 h 10 v 1.5 h -10 z" /><path
         id="path268"
         style="fill:#4979b6;fill-opacity:1;fill-rule:nonzero;stroke:none"
         d="m 496.47,121.3 h 10 v 1.5 h -10 z" /><path
         id="path270"
         style="fill:#4e7db8;fill-opacity:1;fill-rule:nonzero;stroke:none"
         d="m 496.47,122.8 h 10 v 1.5 h -10 z" /><path
         id="path272"
         style="fill:#5282bb;fill-opacity:1;fill-rule:nonzero;stroke:none"
         d="m 496.47,124.3 h 10 v 1.5 h -10 z" /><path
         id="path274"
         style="fill:#5786bd;fill-opacity:1;fill-rule:nonzero;stroke:none"
         d="m 496.47,125.8 h 10 v 1.5 h -10 z" /><path
         id="path276"
         style="fill:#5c8bbf;fill-opacity:1;fill-rule:nonzero;stroke:none"
         d="m 496.47,127.3 h 10 v 1.5 h -10 z" /><path
         id="path278"
         style="fill:#608fc2;fill-opacity:1;fill-rule:nonzero;stroke:none"
         d="m 496.47,128.8 h 10 v 1.5 h -10 z" /><path
         id="path280"
         style="fill:#6594c4;fill-opacity:1;fill-rule:nonzero;stroke:none"
         d="m 496.47,130.3 h 10 v 1.5 h -10 z" /><path
         id="path282"
         style="fill:#6998c6;fill-opacity:1;fill-rule:nonzero;stroke:none"
         d="m 496.47,131.8 h 10 v 1.5 h -10 z" /><path
         id="path284"
         style="fill:#6e9dc9;fill-opacity:1;fill-rule:nonzero;stroke:none"
         d="m 496.47,133.3 h 10 v 1.5 h -10 z" /><path
         id="path286"
         style="fill:#73a1cb;fill-opacity:1;fill-rule:nonzero;stroke:none"
         d="m 496.47,134.8 h 10 v 1.5 h -10 z" /><path
         id="path288"
         style="fill:#77a6ce;fill-opacity:1;fill-rule:nonzero;stroke:none"
         d="m 496.47,136.3 h 10 v 1.5 h -10 z" /><path
         id="path290"
         style="fill:#7caad0;fill-opacity:1;fill-rule:nonzero;stroke:none"
         d="m 496.47,137.8 h 10 v 1.5 h -10 z" /><path
         id="path292"
         style="fill:#80afd2;fill-opacity:1;fill-rule:nonzero;stroke:none"
         d="m 496.47,139.3 h 10 v 1.5 h -10 z" /><path
         id="path294"
         style="fill:#85b3d5;fill-opacity:1;fill-rule:nonzero;stroke:none"
         d="m 496.47,140.8 h 10 v 1.5 h -10 z" /><path
         id="path296"
         style="fill:#8ab8d7;fill-opacity:1;fill-rule:nonzero;stroke:none"
         d="m 496.47,142.3 h 10 v 1.5 h -10 z" /><path
         id="path298"
         style="fill:#8ebcd9;fill-opacity:1;fill-rule:nonzero;stroke:none"
         d="m 496.47,143.8 h 10 v 1.5 h -10 z" /><path
         id="path300"
         style="fill:#93c0db;fill-opacity:1;fill-rule:nonzero;stroke:none"
         d="m 496.47,145.3 h 10 v 1.5 h -10 z" /><path
         id="path302"
         style="fill:#98c3dd;fill-opacity:1;fill-rule:nonzero;stroke:none"
         d="m 496.47,146.8 h 10 v 1.5 h -10 z" /><path
         id="path304"
         style="fill:#9cc6df;fill-opacity:1;fill-rule:nonzero;stroke:none"
         d="m 496.47,148.3 h 10 v 1.5 h -10 z" /><path
         id="path306"
         style="fill:#a1cae1;fill-opacity:1;fill-rule:nonzero;stroke:none"
         d="m 496.47,149.8 h 10 v 1.5 h -10 z" /><path
         id="path308"
         style="fill:#a6cde2;fill-opacity:1;fill-rule:nonzero;stroke:none"
         d="m 496.47,151.3 h 10 v 1.5 h -10 z" /><path
         id="path310"
         style="fill:#abd0e4;fill-opacity:1;fill-rule:nonzero;stroke:none"
         d="m 496.47,152.8 h 10 v 1.5 h -10 z" /><path
         id="path312"
         style="fill:#b0d3e6;fill-opacity:1;fill-rule:nonzero;stroke:none"
         d="m 496.47,154.3 h 10 v 1.5 h -10 z" /><path
         id="path314"
         style="fill:#b4d6e8;fill-opacity:1;fill-rule:nonzero;stroke:none"
         d="m 496.47,155.8 h 10 v 1.5 h -10 z" /><path
         id="path316"
         style="fill:#b9d9e9;fill-opacity:1;fill-rule:nonzero;stroke:none"
         d="m 496.47,157.3 h 10 v 1.5 h -10 z" /><path
         id="path318"
         style="fill:#bedceb;fill-opacity:1;fill-rule:nonzero;stroke:none"
         d="m 496.47,158.8 h 10 v 1.5 h -10 z" /><path
         id="path320"
         style="fill:#c3e0ed;fill-opacity:1;fill-rule:nonzero;stroke:none"
         d="m 496.47,160.3 h 10 v 1.5 h -10 z" /><path
         id="path322"
         style="fill:#c8e3ef;fill-opacity:1;fill-rule:nonzero;stroke:none"
         d="m 496.47,161.8 h 10 v 1.5 h -10 z" /><path
         id="path324"
         style="fill:#cce6f0;fill-opacity:1;fill-rule:nonzero;stroke:none"
         d="m 496.47,163.3 h 10 v 1.5 h -10 z" /><path
         id="path326"
         style="fill:#d1e9f2;fill-opacity:1;fill-rule:nonzero;stroke:none"
         d="m 496.47,164.8 h 10 v 1.5 h -10 z" /><path
         id="path328"
         style="fill:#d6ecf4;fill-opacity:1;fill-rule:nonzero;stroke:none"
         d="m 496.47,166.3 h 10 v 1.5 h -10 z" /><path
         id="path330"
         style="fill:#dbeff6;fill-opacity:1;fill-rule:nonzero;stroke:none"
         d="m 496.47,167.8 h 10 v 1.5 h -10 z" /><path
         id="path332"
         style="fill:#e0f3f7;fill-opacity:1;fill-rule:nonzero;stroke:none"
         d="m 496.47,169.3 h 10 v 1.5 h -10 z" /><path
         id="path334"
         style="fill:#e1f3f4;fill-opacity:1;fill-rule:nonzero;stroke:none"
         d="m 496.47,170.8 h 10 v 1.5 h -10 z" /><path
         id="path336"
         style="fill:#e3f4f1;fill-opacity:1;fill-rule:nonzero;stroke:none"
         d="m 496.47,172.3 h 10 v 1.5 h -10 z" /><path
         id="path338"
         style="fill:#e5f5ed;fill-opacity:1;fill-rule:nonzero;stroke:none"
         d="m 496.47,173.8 h 10 v 1.5 h -10 z" /><path
         id="path340"
         style="fill:#e7f5ea;fill-opacity:1;fill-rule:nonzero;stroke:none"
         d="m 496.47,175.3 h 10 v 1.5 h -10 z" /><path
         id="path342"
         style="fill:#e9f6e6;fill-opacity:1;fill-rule:nonzero;stroke:none"
         d="m 496.47,176.8 h 10 v 1.5 h -10 z" /><path
         id="path344"
         style="fill:#ebf7e3;fill-opacity:1;fill-rule:nonzero;stroke:none"
         d="m 496.47,178.3 h 10 v 1.5 h -10 z" /><path
         id="path346"
         style="fill:#edf8df;fill-opacity:1;fill-rule:nonzero;stroke:none"
         d="m 496.47,179.8 h 10 v 1.5 h -10 z" /><path
         id="path348"
         style="fill:#eff8dc;fill-opacity:1;fill-rule:nonzero;stroke:none"
         d="m 496.47,181.3 h 10 v 1.5 h -10 z" /><path
         id="path350"
         style="fill:#f0f9d8;fill-opacity:1;fill-rule:nonzero;stroke:none"
         d="m 496.47,182.8 h 10 v 1.5 h -10 z" /><path
         id="path352"
         style="fill:#f2fad5;fill-opacity:1;fill-rule:nonzero;stroke:none"
         d="m 496.47,184.3 h 10 v 1.5 h -10 z" /><path
         id="path354"
         style="fill:#f4fbd2;fill-opacity:1;fill-rule:nonzero;stroke:none"
         d="m 496.47,185.8 h 10 v 1.5 h -10 z" /><path
         id="path356"
         style="fill:#f6fbce;fill-opacity:1;fill-rule:nonzero;stroke:none"
         d="m 496.47,187.3 h 10 v 1.5 h -10 z" /><path
         id="path358"
         style="fill:#f8fccb;fill-opacity:1;fill-rule:nonzero;stroke:none"
         d="m 496.47,188.8 h 10 v 1.5 h -10 z" /><path
         id="path360"
         style="fill:#fafdc7;fill-opacity:1;fill-rule:nonzero;stroke:none"
         d="m 496.47,190.3 h 10 v 1.5 h -10 z" /><path
         id="path362"
         style="fill:#fcfdc4;fill-opacity:1;fill-rule:nonzero;stroke:none"
         d="m 496.47,191.8 h 10 v 1.5 h -10 z" /><path
         id="path364"
         style="fill:#fefec0;fill-opacity:1;fill-rule:nonzero;stroke:none"
         d="m 496.47,193.3 h 10 v 1.5 h -10 z" /><path
         id="path366"
         style="fill:#fefebd;fill-opacity:1;fill-rule:nonzero;stroke:none"
         d="m 496.47,194.8 h 10 v 1.5 h -10 z" /><path
         id="path368"
         style="fill:#fefcba;fill-opacity:1;fill-rule:nonzero;stroke:none"
         d="m 496.47,196.3 h 10 v 1.5 h -10 z" /><path
         id="path370"
         style="fill:#fefab7;fill-opacity:1;fill-rule:nonzero;stroke:none"
         d="m 496.47,197.8 h 10 v 1.5 h -10 z" /><path
         id="path372"
         style="fill:#fef8b5;fill-opacity:1;fill-rule:nonzero;stroke:none"
         d="m 496.47,199.3 h 10 v 1.5 h -10 z" /><path
         id="path374"
         style="fill:#fef6b2;fill-opacity:1;fill-rule:nonzero;stroke:none"
         d="m 496.47,200.8 h 10 v 1.5 h -10 z" /><path
         id="path376"
         style="fill:#fef4af;fill-opacity:1;fill-rule:nonzero;stroke:none"
         d="m 496.47,202.3 h 10 v 1.5 h -10 z" /><path
         id="path378"
         style="fill:#fef2ac;fill-opacity:1;fill-rule:nonzero;stroke:none"
         d="m 496.47,203.8 h 10 v 1.5 h -10 z" /><path
         id="path380"
         style="fill:#fef0a9;fill-opacity:1;fill-rule:nonzero;stroke:none"
         d="m 496.47,205.3 h 10 v 1.5 h -10 z" /><path
         id="path382"
         style="fill:#feefa6;fill-opacity:1;fill-rule:nonzero;stroke:none"
         d="m 496.47,206.8 h 10 v 1.5 h -10 z" /><path
         id="path384"
         style="fill:#feeda3;fill-opacity:1;fill-rule:nonzero;stroke:none"
         d="m 496.47,208.3 h 10 v 1.5 h -10 z" /><path
         id="path386"
         style="fill:#feeba1;fill-opacity:1;fill-rule:nonzero;stroke:none"
         d="m 496.47,209.8 h 10 v 1.5 h -10 z" /><path
         id="path388"
         style="fill:#fee99e;fill-opacity:1;fill-rule:nonzero;stroke:none"
         d="m 496.47,211.3 h 10 v 1.5 h -10 z" /><path
         id="path390"
         style="fill:#fee79b;fill-opacity:1;fill-rule:nonzero;stroke:none"
         d="m 496.47,212.8 h 10 v 1.5 h -10 z" /><path
         id="path392"
         style="fill:#fee598;fill-opacity:1;fill-rule:nonzero;stroke:none"
         d="m 496.47,214.3 h 10 v 1.5 h -10 z" /><path
         id="path394"
         style="fill:#fee395;fill-opacity:1;fill-rule:nonzero;stroke:none"
         d="m 496.47,215.8 h 10 v 1.5 h -10 z" /><path
         id="path396"
         style="fill:#fee192;fill-opacity:1;fill-rule:nonzero;stroke:none"
         d="m 496.47,217.3 h 10 v 1.5 h -10 z" /><path
         id="path398"
         style="fill:#fedf8f;fill-opacity:1;fill-rule:nonzero;stroke:none"
         d="m 496.47,218.8 h 10 v 1.5 h -10 z" /><path
         id="path400"
         style="fill:#fdda8c;fill-opacity:1;fill-rule:nonzero;stroke:none"
         d="m 496.47,220.3 h 10 v 1.5 h -10 z" /><path
         id="path402"
         style="fill:#fdd589;fill-opacity:1;fill-rule:nonzero;stroke:none"
         d="m 496.47,221.8 h 10 v 1.5 h -10 z" /><path
         id="path404"
         style="fill:#fdd085;fill-opacity:1;fill-rule:nonzero;stroke:none"
         d="m 496.47,223.3 h 10 v 1.5 h -10 z" /><path
         id="path406"
         style="fill:#fdcb82;fill-opacity:1;fill-rule:nonzero;stroke:none"
         d="m 496.47,224.8 h 10 v 1.5 h -10 z" /><path
         id="path408"
         style="fill:#fdc67f;fill-opacity:1;fill-rule:nonzero;stroke:none"
         d="m 496.47,226.3 h 10 v 1.5 h -10 z" /><path
         id="path410"
         style="fill:#fdc17b;fill-opacity:1;fill-rule:nonzero;stroke:none"
         d="m 496.47,227.8 h 10 v 1.5 h -10 z" /><path
         id="path412"
         style="fill:#fdbc78;fill-opacity:1;fill-rule:nonzero;stroke:none"
         d="m 496.47,229.3 h 10 v 1.5 h -10 z" /><path
         id="path414"
         style="fill:#fdb775;fill-opacity:1;fill-rule:nonzero;stroke:none"
         d="m 496.47,230.8 h 10 v 1.5 h -10 z" /><path
         id="path416"
         style="fill:#fcb271;fill-opacity:1;fill-rule:nonzero;stroke:none"
         d="m 496.47,232.3 h 10 v 1.5 h -10 z" /><path
         id="path418"
         style="fill:#fcad6e;fill-opacity:1;fill-rule:nonzero;stroke:none"
         d="m 496.47,233.8 h 10 v 1.5 h -10 z" /><path
         id="path420"
         style="fill:#fca86b;fill-opacity:1;fill-rule:nonzero;stroke:none"
         d="m 496.47,235.3 h 10 v 1.5 h -10 z" /><path
         id="path422"
         style="fill:#fca367;fill-opacity:1;fill-rule:nonzero;stroke:none"
         d="m 496.47,236.8 h 10 v 1.5 h -10 z" /><path
         id="path424"
         style="fill:#fc9e64;fill-opacity:1;fill-rule:nonzero;stroke:none"
         d="m 496.47,238.3 h 10 v 1.5 h -10 z" /><path
         id="path426"
         style="fill:#fc9961;fill-opacity:1;fill-rule:nonzero;stroke:none"
         d="m 496.47,239.8 h 10 v 1.5 h -10 z" /><path
         id="path428"
         style="fill:#fc945d;fill-opacity:1;fill-rule:nonzero;stroke:none"
         d="m 496.47,241.3 h 10 v 1.5 h -10 z" /><path
         id="path430"
         style="fill:#fc8f5a;fill-opacity:1;fill-rule:nonzero;stroke:none"
         d="m 496.47,242.8 h 10 v 1.5 h -10 z" /><path
         id="path432"
         style="fill:#fa8a57;fill-opacity:1;fill-rule:nonzero;stroke:none"
         d="m 496.47,244.3 h 10 v 1.5 h -10 z" /><path
         id="path434"
         style="fill:#f88454;fill-opacity:1;fill-rule:nonzero;stroke:none"
         d="m 496.47,245.8 h 10 v 1.5 h -10 z" /><path
         id="path436"
         style="fill:#f67e51;fill-opacity:1;fill-rule:nonzero;stroke:none"
         d="m 496.47,247.3 h 10 v 1.5 h -10 z" /><path
         id="path438"
         style="fill:#f4794e;fill-opacity:1;fill-rule:nonzero;stroke:none"
         d="m 496.47,248.8 h 10 v 1.5 h -10 z" /><path
         id="path440"
         style="fill:#f1734b;fill-opacity:1;fill-rule:nonzero;stroke:none"
         d="m 496.47,250.3 h 10 v 1.5 h -10 z" /><path
         id="path442"
         style="fill:#ef6d48;fill-opacity:1;fill-rule:nonzero;stroke:none"
         d="m 496.47,251.8 h 10 v 1.5 h -10 z" /><path
         id="path444"
         style="fill:#ed6845;fill-opacity:1;fill-rule:nonzero;stroke:none"
         d="m 496.47,253.3 h 10 v 1.5 h -10 z" /><path
         id="path446"
         style="fill:#eb6242;fill-opacity:1;fill-rule:nonzero;stroke:none"
         d="m 496.47,254.8 h 10 v 1.5 h -10 z" /><path
         id="path448"
         style="fill:#e85d3f;fill-opacity:1;fill-rule:nonzero;stroke:none"
         d="m 496.47,256.3 h 10 v 1.5 h -10 z" /><path
         id="path450"
         style="fill:#e6573c;fill-opacity:1;fill-rule:nonzero;stroke:none"
         d="m 496.47,257.8 h 10 v 1.5 h -10 z" /><path
         id="path452"
         style="fill:#e45139;fill-opacity:1;fill-rule:nonzero;stroke:none"
         d="m 496.47,259.3 h 10 v 1.5 h -10 z" /><path
         id="path454"
         style="fill:#e24c36;fill-opacity:1;fill-rule:nonzero;stroke:none"
         d="m 496.47,260.8 h 10 v 1.5 h -10 z" /><path
         id="path456"
         style="fill:#df4633;fill-opacity:1;fill-rule:nonzero;stroke:none"
         d="m 496.47,262.3 h 10 v 1.5 h -10 z" /><path
         id="path458"
         style="fill:#dd4030;fill-opacity:1;fill-rule:nonzero;stroke:none"
         d="m 496.47,263.8 h 10 v 1.5 h -10 z" /><path
         id="path460"
         style="fill:#db3b2d;fill-opacity:1;fill-rule:nonzero;stroke:none"
         d="m 496.47,265.3 h 10 v 1.5 h -10 z" /><path
         id="path462"
         style="fill:#d9352a;fill-opacity:1;fill-rule:nonzero;stroke:none"
         d="m 496.47,266.8 h 10 v 1.5 h -10 z" /><path
         id="path464"
         style="fill:#d73027;fill-opacity:1;fill-rule:nonzero;stroke:none"
         d="m 496.47,268.3 h 10 v 1.5 h -10 z" /><text
         id="text468"
         style="font-variant:normal;font-weight:normal;font-size:7px;font-family:Helvetica;-inkscape-font-specification:Helvetica;writing-mode:lr-tb;fill:#000000;fill-opacity:1;fill-rule:nonzero;stroke:none"
         transform="matrix(1,0,0,-1,510.47,117.28)"><tspan
           id="tspan466"
           y="0"
           x="0">0</tspan></text>
<text
         id="text472"
         style="font-variant:normal;font-weight:normal;font-size:7px;font-family:Helvetica;-inkscape-font-specification:Helvetica;writing-mode:lr-tb;fill:#000000;fill-opacity:1;fill-rule:nonzero;stroke:none"
         transform="matrix(1,0,0,-1,510.47,151.43)"><tspan
           id="tspan470"
           y="0"
           x="0 3.892">10</tspan></text>
<text
         id="text476"
         style="font-variant:normal;font-weight:normal;font-size:7px;font-family:Helvetica;-inkscape-font-specification:Helvetica;writing-mode:lr-tb;fill:#000000;fill-opacity:1;fill-rule:nonzero;stroke:none"
         transform="matrix(1,0,0,-1,510.47,185.58)"><tspan
           id="tspan474"
           y="0"
           x="0 3.892">20</tspan></text>
<text
         id="text480"
         style="font-variant:normal;font-weight:normal;font-size:7px;font-family:Helvetica;-inkscape-font-specification:Helvetica;writing-mode:lr-tb;fill:#000000;fill-opacity:1;fill-rule:nonzero;stroke:none"
         transform="matrix(1,0,0,-1,510.47,219.73)"><tspan
           id="tspan478"
           y="0"
           x="0 3.892">30</tspan></text>
<text
         id="text484"
         style="font-variant:normal;font-weight:normal;font-size:7px;font-family:Helvetica;-inkscape-font-specification:Helvetica;writing-mode:lr-tb;fill:#000000;fill-opacity:1;fill-rule:nonzero;stroke:none"
         transform="matrix(1,0,0,-1,510.47,253.87)"><tspan
           id="tspan482"
           y="0"
           x="0 3.892">40</tspan></text>
</g><g
       id="g486" /><g
       id="g488" /></g></svg>